<svg width="24" height="24" viewBox="0 0 24 24" fill="none" xmlns="http://www.w3.org/2000/svg">
<path d="M24 2.83889C23.1013 3.32911 22.1479 3.65067 21.1716 3.79282C22.2002 3.03596 22.9701 1.84456 23.3376 0.440777C22.3712 1.14732 21.3134 1.64478 20.2104 1.91154C19.5346 1.02617 18.6581 0.411079 17.6948 0.146044C16.7314 -0.118991 15.7256 -0.0217482 14.8077 0.425162C13.8898 0.872073 13.1022 1.64804 12.547 2.65243C11.9918 3.65682 11.6946 4.84331 11.694 6.05804C11.6933 6.52266 11.7356 6.98586 11.82 7.43873C9.86251 7.31779 7.94756 6.69171 6.19943 5.60111C4.4513 4.51051 2.90906 2.97977 1.6728 1.10823C1.04311 2.44219 0.8502 4.02131 1.13333 5.52413C1.41646 7.02696 2.15435 8.34053 3.1968 9.19745C2.41431 9.16793 1.64895 8.90817 0.9648 8.43991V8.5167C0.96499 9.9158 1.35847 11.2717 2.0785 12.3545C2.79852 13.4373 3.80076 14.1803 4.9152 14.4574C4.49242 14.5988 4.05613 14.6698 3.618 14.6685C3.30678 14.6687 2.99624 14.6331 2.6904 14.5622C3.00486 15.7659 3.61712 16.8186 4.44158 17.5732C5.26604 18.3278 6.2615 18.7464 7.2888 18.7707C5.2241 20.7593 2.6033 21.6603 0 21.2766C2.25127 23.0575 4.8717 24.0028 7.548 23.9996C9.39092 24.0149 11.2179 23.5795 12.923 22.7187C14.628 21.8578 16.1771 20.5887 17.4802 18.985C18.7833 17.3813 19.8145 15.475 20.5139 13.3768C21.2133 11.2785 21.567 9.03024 21.5544 6.76241C21.5544 6.49956 21.5492 6.23869 21.5388 5.97978C22.5042 5.12094 23.3377 4.05737 24 2.83889Z" fill="#AFB4B8"/>
</svg>
