<svg width="39" height="57" viewBox="0 0 39 57" fill="none" xmlns="http://www.w3.org/2000/svg">
<path d="M39.1541 4.05478C21.3546 3.73261 6.70608 12.7247 6.50024 24.0994C6.2944 35.4743 20.6077 44.9907 38.4071 45.3129C56.2065 45.635 70.8556 36.6429 71.0613 25.2681C71.2669 13.8932 56.9533 4.37705 39.1541 4.05478Z" fill="#7000FF"/>
<path d="M39.1517 4.05476C21.3522 3.73259 6.7037 12.7247 6.49786 24.0993C6.29202 35.4742 20.6054 44.9907 38.4047 45.3129C56.2042 45.635 70.8532 36.6429 71.0589 25.268C71.2646 13.8932 56.9509 4.37704 39.1517 4.05476ZM38.3314 49.3576C17.0422 48.9723 -0.0777405 37.5901 0.168642 23.9849C0.414866 10.3798 17.9353 -0.375301 39.2248 0.0100398C60.514 0.395327 77.6343 11.7773 77.3875 25.3827C77.1407 38.9878 59.6209 49.7429 38.3314 49.3576V49.3576Z" fill="#DAC4F7"/>
<path d="M2.52309 24.0276C2.76481 10.6741 19.6477 0.0674348 40.4017 0.0438512C40.0105 0.0292771 39.6187 0.0171414 39.2248 0.0100398C17.9353 -0.375301 0.414866 10.3798 0.168642 23.9849C-0.0777405 37.5901 17.0422 48.9723 38.3314 49.3576C38.7254 49.3647 39.1176 49.3669 39.5089 49.3664C18.7694 48.5916 2.28132 37.3809 2.52309 24.0276V24.0276Z" fill="#DAC4F7"/>
<path d="M39.1522 4.0547C38.8071 4.0485 38.4638 4.04702 38.1213 4.0476C55.4391 4.71038 69.1992 14.0764 68.9973 25.2306C68.7954 36.385 54.7053 45.247 37.375 45.2825C37.7171 45.2956 38.0604 45.3066 38.4053 45.3128C56.2047 45.635 70.8538 36.6429 71.0595 25.268C71.2651 13.8932 56.9515 4.37698 39.1522 4.0547Z" fill="#994AFC"/>
<path d="M77.188 33.3821L77.2441 33.3831L77.3881 25.3824C77.1413 38.9877 59.6214 49.7428 38.332 49.3575C17.0427 48.9722 -0.0772131 37.5901 0.169169 23.9849C0.169169 23.9852 0.00970183 32.7943 0.00222927 33.2028C-0.224756 45.744 16.9109 56.2607 38.2004 56.646C59.4896 57.0313 76.9936 47.1416 77.2217 34.6004C77.2291 34.192 77.2161 33.7857 77.188 33.3821V33.3821Z" fill="#5105B2"/>
<path fill-rule="evenodd" clip-rule="evenodd" d="M27.9559 23.7865C27.9559 21.9897 28.7596 20.1817 30.665 19.1608C32.778 18.029 35.8722 18.6637 37.7374 19.6757C40.9974 21.4445 43.3951 24.6261 43.3951 27.4304C43.3951 29.0481 43.2645 30.106 42.1209 31.437C39.678 34.2772 34.5729 32.9987 31.9777 30.9355C29.7357 29.1522 27.9542 26.5874 27.9542 23.7876L27.9559 23.7865ZM45.3039 28.1849C45.257 29.6873 44.7061 31.1493 43.4336 32.3741C42.1058 33.6525 40.4348 34.2526 38.6734 34.3533C34.074 34.3533 30.3033 32.2308 28.3192 29.5563C25.945 26.3557 24.8784 22.2752 28.0999 19.1462C28.5704 18.6883 29.4829 18.142 30.1978 17.8767C35.4754 15.921 40.9823 19.2581 43.2159 22.2684C44.604 24.1402 45.3039 26.0982 45.3039 28.1849Z" fill="#994AFC"/>
<path fill-rule="evenodd" clip-rule="evenodd" d="M33.0424 21.2967C33.0424 19.6097 33.3002 17.9931 34.5677 16.7303C35.3262 15.9747 36.1416 15.4026 37.528 15.1261C43.1605 14.0033 48.2221 19.4261 49.6988 22.367C50.7068 24.3764 51.0249 26.5583 50.3853 28.6406C49.8629 30.3388 48.1333 32.4099 45.1245 32.4099C37.9851 32.4099 33.044 25.4075 33.044 21.2967H33.0424ZM34.2178 28.4055C35.5991 30.0097 36.8599 30.9892 38.9662 32.1535C42.479 34.0958 47.7331 34.4317 50.536 31.5971C55.4904 26.5841 50.5578 16.9151 42.5092 14.216C38.7954 13.1939 35.2056 13.5588 32.9536 16.0777C29.702 19.7149 31.2156 24.9216 34.2161 28.4055H34.2178Z" fill="#994AFC"/>
<path fill-rule="evenodd" clip-rule="evenodd" d="M26.8973 23.7862C26.8973 21.9895 27.701 20.1815 29.6064 19.1605C31.7194 18.0287 34.8136 18.6635 36.6789 19.6755C39.9388 21.4443 42.3365 24.6258 42.3365 27.4302C42.3365 29.0478 42.2059 30.1057 41.0623 31.4368C38.6194 34.2769 33.5143 32.9985 30.9191 30.9353C28.6771 29.1519 26.8956 26.5872 26.8956 23.7873L26.8973 23.7862ZM44.2453 28.1847C44.1984 29.687 43.6475 31.1491 42.375 32.3738C41.0472 33.6523 39.3762 34.2523 37.6148 34.3531C33.0154 34.3531 29.2447 32.2305 27.2606 29.5561C24.8864 26.3554 23.8198 22.2749 27.0413 19.146C27.5118 18.6881 28.4243 18.1418 29.1392 17.8765C34.4168 15.9207 39.9237 19.2579 42.1573 22.2682C43.5454 24.14 44.2453 26.098 44.2453 28.1847Z" fill="#DAC4F7"/>
<path fill-rule="evenodd" clip-rule="evenodd" d="M31.9838 21.2965C31.9838 19.6094 32.2416 17.9929 33.5091 16.7301C34.2676 15.9744 35.083 15.4024 36.4694 15.1259C42.1019 14.003 47.1635 19.4258 48.6402 22.3667C49.6482 24.3762 49.9663 26.5581 49.3267 28.6403C48.8043 30.3386 47.0747 32.4096 44.0659 32.4096C36.9265 32.4096 31.9854 25.4072 31.9854 21.2965H31.9838ZM33.1592 28.4052C34.5405 30.0094 35.8013 30.989 37.9076 32.1533C41.4204 34.0956 46.6745 34.4314 49.4774 31.5969C54.4318 26.5838 49.4992 16.9148 41.4506 14.2157C37.7368 13.1936 34.147 13.5586 31.895 16.0774C28.6434 19.7147 30.157 24.9214 33.1575 28.4052H33.1592Z" fill="#F2E8FF"/>
</svg>
