<svg width="36" height="73" viewBox="0 0 36 73" fill="none" xmlns="http://www.w3.org/2000/svg">
<path d="M-9.50134 69.757C-26.9793 62.9066 -35.9467 42.1856 -29.491 23.5641C-23.0352 4.94256 -3.56375 -4.63511 13.914 2.21375C31.3922 9.06242 40.3596 29.7841 33.9039 48.4056C27.4481 67.0276 7.9767 76.6057 -9.50134 69.757Z" fill="#5105B2"/>
<path d="M8.5801 7.80762C-6.03267 2.08151 -22.312 10.0892 -27.7094 25.658C-33.1068 41.2269 -25.6095 58.5521 -10.9968 64.2774C3.61601 70.0043 19.8957 61.9956 25.2932 46.4274C30.6904 30.8586 23.1931 13.5337 8.5801 7.80762Z" fill="#7000FF"/>
<path d="M8.58073 7.80768C-6.03203 2.08157 -22.3114 10.0892 -27.7088 25.6581C-33.1062 41.2269 -25.6089 58.5522 -10.9961 64.2774C3.61665 70.0044 19.8963 61.9957 25.2938 46.4275C30.691 30.8587 23.1937 13.5337 8.58073 7.80768ZM-12.9154 69.8146C-30.3934 62.9658 -39.3608 42.2436 -32.9051 23.6219C-26.4493 5.00047 -6.97782 -4.57726 10.5 2.27161C27.9782 9.12047 36.9456 29.842 30.49 48.4637C24.0343 67.0851 4.56264 76.6632 -12.9154 69.8146Z" fill="#DAC4F7"/>
<path d="M-30.9722 24.3794C-24.6359 6.10248 -5.76136 -3.46043 11.4606 2.66734C11.1431 2.53131 10.8235 2.39825 10.5 2.27161C-6.97781 -4.57726 -26.4493 5.00046 -32.9051 23.6219C-39.3608 42.2436 -30.3934 62.9658 -12.9154 69.8145C-12.5919 69.9417 -12.2676 70.0601 -11.9429 70.1751C-28.7861 62.9554 -37.3084 42.6564 -30.9722 24.3794Z" fill="#DAC4F7"/>
<path d="M8.57954 7.80759C8.29634 7.69664 8.01244 7.59281 7.728 7.49194C21.7852 13.5431 28.893 30.4972 23.6003 45.7643C18.3075 61.0307 2.55057 69.0254 -11.8379 63.9307C-11.5601 64.0509 -11.2805 64.1676 -10.9973 64.2773C3.61545 70.0043 19.8952 61.9956 25.2926 46.4274C30.6898 30.8586 23.1925 13.5337 8.57954 7.80759Z" fill="#994AFC"/>
<path fill-rule="evenodd" clip-rule="evenodd" d="M-11.8546 30.4902C-11.3321 28.5502 -9.9995 27.062 -7.78961 27.0594C-5.33904 27.0571 -2.41705 29.5285 -0.838648 31.6978C1.92001 35.4894 3.40214 40.3086 2.58671 43.3366C2.11634 45.0832 1.67761 46.1501 0.142418 46.9272C-3.13605 48.5837 -7.88979 44.2565 -9.89547 40.5308C-11.6278 37.3111 -12.6707 33.5136 -11.8566 30.4905L-11.8546 30.4902ZM4.2837 45.253C3.79978 46.8481 2.8216 48.1088 1.18789 48.6966C-0.51691 49.3106 -2.36906 48.994 -4.16681 48.086C-8.78461 45.4311 -11.9531 40.9628 -13.1675 36.9299C-14.6205 32.1036 -14.5049 27.082 -10.3607 25.5631C-9.75522 25.3403 -8.6802 25.2771 -7.88525 25.4033C-2.01794 26.338 2.54062 33.12 3.9078 37.6596C4.75712 40.4818 4.89046 42.9999 4.2837 45.253Z" fill="#994AFC"/>
<path fill-rule="evenodd" clip-rule="evenodd" d="M-6.60705 28.8074C-6.11351 26.9729 -5.3802 25.365 -3.73079 24.729C-2.74376 24.3484 -1.75295 24.2006 -0.272004 24.7062C5.7446 26.7608 9.26974 35.6011 9.90076 39.6578C10.3308 42.4291 10.0138 44.9866 8.75872 46.8788C7.73435 48.4217 5.3818 49.6679 2.34328 47.9181C-4.86664 43.7661 -7.80793 33.2783 -6.60535 28.8083L-6.60705 28.8074ZM-7.49966 37.2208C-6.57399 39.7686 -5.58731 41.5669 -3.80078 44.0579C-0.821521 48.2128 4.38622 51.6336 8.04598 50.1814C14.5158 47.6115 12.3631 34.229 5.02463 26.6133C1.57326 23.3422 -2.15876 21.6514 -5.16987 23.0806C-9.5176 25.1447 -9.51224 31.6867 -7.50135 37.2199L-7.49966 37.2208Z" fill="#994AFC"/>
<path fill-rule="evenodd" clip-rule="evenodd" d="M-12.7647 30.1106C-12.2423 28.1705 -10.9097 26.6823 -8.69976 26.6798C-6.2492 26.6774 -3.32721 29.1488 -1.7488 31.3182C1.00985 35.1097 2.49198 39.929 1.67656 42.9569C1.20618 44.7036 0.767449 45.7704 -0.767738 46.5476C-4.04621 48.2041 -8.79995 43.8769 -10.8056 40.1511C-12.538 36.9315 -13.5808 33.1339 -12.7667 30.1108L-12.7647 30.1106ZM3.37354 44.8734C2.88963 46.4685 1.91144 47.7291 0.277737 48.317C-1.42707 48.931 -3.27922 48.6143 -5.07696 47.7064C-9.69477 45.0515 -12.8633 40.5832 -14.0777 36.5502C-15.5307 31.7239 -15.415 26.7024 -11.2709 25.1834C-10.6654 24.9606 -9.59035 24.8975 -8.7954 25.0237C-2.9281 25.9583 1.63046 32.7403 2.99765 37.2799C3.84696 40.1022 3.98031 42.6203 3.37354 44.8734Z" fill="#DAC4F7"/>
<path fill-rule="evenodd" clip-rule="evenodd" d="M-7.5172 28.4277C-7.02366 26.5932 -6.29036 24.9854 -4.64094 24.3494C-3.65391 23.9688 -2.6631 23.821 -1.18216 24.3265C4.83445 26.3812 8.35958 35.2214 8.9906 39.2782C9.42065 42.0494 9.10363 44.607 7.84856 46.4992C6.82419 48.0421 4.47164 49.2882 1.43313 47.5384C-5.77679 43.3864 -8.71808 32.8987 -7.51551 28.4287L-7.5172 28.4277ZM-8.40982 36.8412C-7.48414 39.3889 -6.49747 41.1873 -4.71094 43.6783C-1.73168 47.8332 3.47606 51.254 7.13582 49.8018C13.6057 47.2319 11.4529 33.8494 4.11447 26.2337C0.6631 22.9626 -3.06892 21.2717 -6.08002 22.701C-10.4278 24.7651 -10.4224 31.307 -8.41151 36.8402L-8.40982 36.8412Z" fill="#F2E8FF"/>
</svg>
