<svg width="369" height="111" viewBox="0 0 369 111" fill="none" xmlns="http://www.w3.org/2000/svg">
<path d="M45.3048 17.687C20.4878 19.0196 1.44978 40.218 2.78231 65.0351C4.11485 89.8521 25.3133 108.89 50.1304 107.558L323.736 92.8665C348.553 91.534 367.591 70.3356 366.259 45.5185C364.926 20.7014 343.728 1.66347 318.911 2.996L45.3048 17.687Z" fill="#2FBF71" stroke="#994AFC" stroke-width="5"/>
<path d="M166.472 48.2344L145.453 49.3631L145.922 58.1005L164.196 57.1193L164.528 63.3104L146.254 64.2916L146.981 77.8221L139.841 78.2054L137.964 43.2558L166.124 41.7438L166.472 48.2344Z" fill="#FCDC4D"/>
<path d="M173.756 48.3441C172.624 48.4048 171.62 48.0415 170.743 47.254C169.866 46.4666 169.399 45.5403 169.342 44.4751C169.28 43.3102 169.643 42.3059 170.432 41.4624C171.221 40.6188 172.182 40.1667 173.314 40.1059C174.412 40.0469 175.382 40.3954 176.224 41.1514C177.066 41.9073 177.518 42.8678 177.58 44.0328C177.639 45.1312 177.292 46.1179 176.538 46.993C175.782 47.8347 174.854 48.2851 173.756 48.3441ZM171.762 76.4914L170.422 51.5274L177.312 51.1574L178.652 76.1215L171.762 76.4914Z" fill="#FCDC4D"/>
<path d="M212.129 69.2166L212.778 69.1818L213.052 74.2744L210.156 74.4299C207.227 74.5872 205.253 73.5749 204.234 71.3931C202.242 74.0704 198.816 75.5396 193.956 75.8005C190.661 75.9774 188.015 75.5019 186.018 74.374C184.02 73.2129 182.954 71.4007 182.822 68.9376C182.697 66.6076 183.399 64.7673 184.929 63.4167C186.492 62.0643 188.65 61.214 191.402 60.866L202.59 59.414L202.555 58.7649C202.483 57.4335 201.896 56.4469 200.794 55.8051C199.691 55.1633 198.208 54.8925 196.344 54.9925C192.816 55.182 190.85 56.5059 190.448 58.9643L183.558 59.3343C183.744 56.587 184.942 54.3362 187.151 52.5819C189.36 50.8276 192.329 49.8504 196.057 49.6502C199.851 49.4465 202.992 50.1124 205.478 51.648C207.963 53.1836 209.293 55.5657 209.466 58.7944L209.914 67.1324C209.993 68.597 210.731 69.2917 212.129 69.2166ZM202.882 64.8562L202.839 64.0573L193.44 65.263C190.89 65.6336 189.657 66.6178 189.743 68.2155C189.836 69.9463 191.397 70.7304 194.426 70.5678C196.789 70.4409 198.814 69.9149 200.5 68.9898C202.185 68.0315 202.979 66.6536 202.882 64.8562Z" fill="#FCDC4D"/>
<path d="M228.014 73.9718C225.018 74.1326 222.801 73.5507 221.361 72.226C219.953 70.8662 219.187 69.038 219.063 66.7413L218.401 54.409L212.21 54.7415L211.918 49.2993L214.364 49.1679C215.896 49.0857 216.961 48.7281 217.561 48.095C218.193 47.4268 218.472 46.4104 218.399 45.0457L218.23 41.9002L224.621 41.5571L224.999 48.5969L232.588 48.1894L232.88 53.6316L225.291 54.0391L225.889 65.173C225.914 65.639 225.969 66.0367 226.053 66.366C226.138 66.6952 226.307 67.0533 226.562 67.4403C226.814 67.7939 227.212 68.0563 227.756 68.2274C228.332 68.3967 229.02 68.4599 229.819 68.417C230.684 68.3706 231.627 68.2031 232.646 67.9147L232.927 73.1572C231.416 73.6055 229.778 73.8771 228.014 73.9718Z" fill="#FCDC4D"/>
</svg>
