<svg width="783" height="233" viewBox="0 0 783 233" fill="none" xmlns="http://www.w3.org/2000/svg">
<path d="M67.7375 13.5317L723.848 71.489L725.021 58.2073L68.9106 0.249985L67.7375 13.5317ZM715.049 171.101L58.9383 113.144L57.7652 126.426L713.876 184.383L715.049 171.101ZM58.9383 113.144C31.4316 110.714 11.102 86.446 13.5322 58.9386L0.250459 57.7655C-2.827 92.6081 22.9233 123.348 57.7652 126.426L58.9383 113.144ZM769.255 125.695C766.825 153.202 742.556 173.531 715.05 171.101L713.877 184.383C748.719 187.46 779.459 161.71 782.537 126.868L769.255 125.695ZM723.849 71.4898C751.356 73.92 771.685 98.1883 769.255 125.695L782.537 126.868C785.614 92.0255 759.865 61.2854 725.022 58.208L723.849 71.4898ZM68.9113 0.250703C34.0687 -2.82675 3.32863 22.9236 0.251177 57.7655L13.5329 58.9386C15.9632 31.4318 40.2315 11.1023 67.7382 13.5325L68.9113 0.250703Z" fill="#FCDC4D"/>
<path d="M6.89129 58.3509C9.64477 27.1762 37.1493 4.13698 68.324 6.89046L724.435 64.8477C755.609 67.6012 778.649 95.1058 775.896 126.28C773.142 157.455 745.637 180.495 714.462 177.741L58.3517 119.784C27.1771 117.03 4.1371 89.5249 6.89129 58.3502V58.3509Z" fill="white"/>
<path d="M212.134 57.073L208.028 103.559L198.797 102.743L201.531 71.7972L201 71.7498L184.192 96.0986L174.695 95.2596L162.416 68.3419L161.819 68.2895L159.085 99.235L149.854 98.4196L153.961 51.9338L165.515 52.9546L180.079 85.8304L180.677 85.8835L200.645 56.0579L212.134 57.073Z" fill="#5105B3"/>
<path d="M235.321 106.639C229.3 106.107 224.505 104.077 220.935 100.55C217.365 97.0216 215.806 92.6899 216.26 87.5544C216.714 82.4188 218.985 78.4255 223.074 75.5743C227.208 72.7274 232.306 71.5716 238.372 72.1068C244.437 72.6427 249.232 74.672 252.758 78.1963C256.328 81.7242 257.887 86.0559 257.433 91.1914C256.979 96.327 254.686 100.318 250.552 103.166C246.463 106.017 241.386 107.175 235.321 106.639H235.321ZM227.886 95.3407C229.77 97.2472 232.483 98.3571 236.025 98.6696C239.566 98.9828 242.432 98.3657 244.621 96.8191C246.814 95.2286 248.029 93.0822 248.268 90.3818C248.506 87.6815 247.684 85.3777 245.799 83.4712C243.919 81.5202 241.208 80.3887 237.667 80.0755C234.125 79.7623 231.258 80.4017 229.064 81.9928C226.876 83.5395 225.662 85.6629 225.423 88.364C225.185 91.0643 226.005 93.3903 227.886 95.3407H227.886Z" fill="#5105B3"/>
<path d="M272.448 109.249L259.908 74.6777L269.803 75.552L278.504 100.548L279.101 100.601L291.916 77.5052L301.745 78.3737L283.405 110.217L272.448 109.249Z" fill="#5105B3"/>
<path d="M310.947 75.1715C309.442 75.0386 308.185 74.3698 307.176 73.1651C306.167 71.9604 305.725 70.6501 305.85 69.2335C305.986 67.684 306.656 66.4269 307.856 65.4621C309.057 64.4974 310.41 64.0814 311.915 64.2143C313.376 64.3436 314.59 64.9858 315.559 66.1424C316.527 67.299 316.944 68.6516 316.807 70.2011C316.678 71.6623 316.033 72.8993 314.872 73.9122C313.717 74.8805 312.408 75.3008 310.947 75.1722L310.947 75.1715ZM303.014 111.949L305.947 78.7453L315.111 79.5549L312.178 112.759L303.014 111.949Z" fill="#5105B3"/>
<path d="M348.604 105.134L357.636 105.932C356.618 109.367 354.379 111.98 350.92 113.772C347.508 115.523 343.301 116.177 338.298 115.735C332.189 115.196 327.411 113.212 323.967 109.784C320.566 106.36 319.092 102.081 319.546 96.9456C320.015 91.6333 322.228 87.5451 326.184 84.6825C330.184 81.8234 335.04 80.646 340.751 81.1503C346.064 81.6194 350.386 83.4519 353.718 86.6457C357.054 89.7957 358.495 94.1842 358.044 99.8104C357.962 100.74 357.813 101.664 357.598 102.582L328.511 100.012C328.617 102.342 329.562 104.276 331.344 105.817C333.131 107.314 335.662 108.207 338.938 108.496C343.985 108.942 347.207 107.821 348.605 105.134H348.604ZM340.111 88.3885C337.233 88.1342 334.859 88.5049 332.986 89.4991C331.113 90.494 329.873 91.9013 329.266 93.7216L349.321 95.4938C349.224 93.5664 348.361 91.9731 346.732 90.7138C345.151 89.4143 342.944 88.6392 340.11 88.3892L340.111 88.3885Z" fill="#5105B3"/>
<path d="M425.115 75.886L424.365 84.3871L408.294 82.9669L404.938 120.952L395.442 120.113L398.797 82.1279L382.727 80.7084L383.477 72.2087L425.115 75.886Z" fill="#5105B3"/>
<path d="M434.036 86.0445C432.53 85.9116 431.274 85.2428 430.265 84.0381C429.255 82.8334 428.814 81.5232 428.939 80.1065C429.075 78.557 429.744 77.2999 430.945 76.3352C432.146 75.3704 433.499 74.9545 435.004 75.0874C436.465 75.2167 437.68 75.8589 438.648 77.0154C439.616 78.172 440.032 79.5247 439.896 81.0742C439.766 82.5353 439.122 83.7723 437.962 84.7852C436.805 85.7536 435.497 86.1738 434.036 86.0452V86.0445ZM426.103 122.822L429.036 89.6184L438.2 90.428L435.267 123.632L426.103 122.822Z" fill="#5105B3"/>
<path d="M461.518 126.62C455.32 126.072 450.501 124.062 447.059 120.591C443.663 117.123 442.189 112.844 442.638 107.752C443.1 102.528 445.375 98.4901 449.464 95.6389C453.556 92.7432 458.547 91.5557 464.436 92.0758C469.438 92.5176 473.611 94.024 476.953 96.5943C480.339 99.1689 482.135 102.585 482.339 106.841L473.108 106.026C472.754 104.477 471.732 103.16 470.044 102.074C468.359 100.943 466.255 100.267 463.732 100.044C460.411 99.7508 457.656 100.377 455.468 101.925C453.323 103.475 452.123 105.689 451.869 108.567C451.623 111.356 452.402 113.656 454.205 115.466C456.052 117.279 458.725 118.341 462.222 118.65C467.535 119.119 470.94 117.948 472.437 115.135L481.668 115.951C480.709 119.748 478.426 122.602 474.822 124.515C471.221 126.383 466.787 127.084 461.518 126.619V126.62Z" fill="#5105B3"/>
<path d="M526.736 98.248L509.684 109.458L523.803 131.452L513.111 130.508L502.507 114.178L496.469 118.129L495.513 128.954L486.349 128.144L490.514 80.9944L499.678 81.8033L497.402 107.57L498 107.623L514.517 97.169L526.736 98.248Z" fill="#5105B3"/>
<path d="M555.027 123.368L564.058 124.166C563.041 127.601 560.802 130.214 557.342 132.006C553.931 133.757 549.723 134.412 544.721 133.97C538.611 133.43 533.834 131.447 530.389 128.019C526.988 124.595 525.514 120.316 525.968 115.18C526.437 109.867 528.65 105.78 532.606 102.917C536.606 100.058 541.462 98.8809 547.173 99.3851C552.486 99.8542 556.808 101.686 560.14 104.881C563.476 108.031 564.917 112.419 564.466 118.046C564.384 118.976 564.235 119.899 564.02 120.817L534.934 118.248C535.04 120.577 535.985 122.512 537.767 124.053C539.554 125.549 542.084 126.442 545.361 126.732C550.408 127.178 553.63 126.056 555.028 123.37L555.027 123.368ZM546.534 106.623C543.657 106.368 541.281 106.739 539.408 107.733C537.536 108.728 536.296 110.135 535.689 111.956L555.744 113.728C555.646 111.801 554.783 110.207 553.154 108.948C551.573 107.648 549.366 106.873 546.533 106.623L546.534 106.623Z" fill="#5105B3"/>
<path d="M585.198 137.544C581.214 137.192 578.396 136.007 576.745 133.987C575.142 131.927 574.475 129.37 574.746 126.315L576.195 109.912L567.96 109.184L568.599 101.946L571.853 102.233C573.889 102.413 575.363 102.142 576.275 101.42C577.235 100.657 577.795 99.3679 577.955 97.5526L578.325 93.3689L586.826 94.1196L585.998 103.483L596.092 104.374L595.453 111.612L585.359 110.721L584.051 125.53C583.997 126.15 583.994 126.685 584.043 127.135C584.092 127.586 584.249 128.091 584.512 128.649C584.778 129.163 585.254 129.585 585.94 129.913C586.669 130.244 587.565 130.458 588.627 130.552C589.779 130.654 591.054 130.609 592.454 130.421L591.838 137.394C589.759 137.702 587.545 137.751 585.199 137.544L585.198 137.544Z" fill="#5105B3"/>
<path d="M614.185 140.105C608.607 139.613 604.401 138.237 601.567 135.979C598.732 133.721 597.323 130.741 597.337 127.038L606.368 127.836C606.839 131.091 609.62 132.943 614.711 133.392C619.183 133.787 621.514 132.899 621.706 130.731C621.791 129.757 621.373 128.939 620.45 128.278C619.527 127.616 617.934 126.962 615.671 126.316L609.523 124.702C602.589 122.884 599.343 119.475 599.785 114.471C600.075 111.195 601.694 108.773 604.643 107.204C607.637 105.639 611.325 105.051 615.708 105.438C620.755 105.883 624.545 107.178 627.078 109.32C629.655 111.466 631.025 114.131 631.19 117.313L622.026 116.504C621.625 113.97 619.322 112.517 615.116 112.145C611.132 111.793 609.048 112.658 608.864 114.739C608.774 115.757 609.174 116.529 610.065 117.053C610.959 117.534 612.474 118.069 614.608 118.659L620.889 120.285C627.948 122.202 631.235 125.906 630.75 131.396C630.453 134.761 628.769 137.155 625.699 138.58C622.672 140.008 618.835 140.516 614.186 140.106L614.185 140.105Z" fill="#5105B3"/>
<path d="M657.738 172.922L664.095 174.93L657.738 172.922ZM649.081 200.315L642.724 198.305L649.081 200.315ZM654.045 204.786L651.252 198.732L651.242 198.737L654.045 204.786ZM658.515 202.723L661.308 208.777L661.322 208.771L661.337 208.764L658.516 202.724L658.515 202.723ZM663.167 204.194L657.386 207.516L657.394 207.528L663.167 204.195V204.194ZM668.103 212.742L673.884 209.421L673.876 209.408L668.103 212.742V212.742ZM672.755 214.213L669.946 208.167L669.933 208.173L672.755 214.213ZM681.706 210.054L684.515 216.1L684.528 216.094L681.706 210.054V210.054ZM686.359 211.524L680.578 214.846L680.585 214.858L686.359 211.524ZM691.294 220.073L697.075 216.751L697.068 216.739L691.294 220.072V220.073ZM695.947 221.543L693.138 215.497L693.125 215.503L695.947 221.543ZM704.898 217.384L707.707 223.43L707.72 223.424L704.898 217.384V217.384ZM709.55 218.854L703.769 222.176L703.777 222.19L703.786 222.203L709.55 218.853V218.854ZM712.023 223.111L717.793 219.772L717.788 219.762L712.023 223.112V223.111ZM718.655 222.305L712.299 220.296L718.655 222.305ZM727.313 194.912L733.67 196.92L733.677 196.897L733.684 196.875L727.313 194.911V194.912ZM705.25 197.18L707.449 203.473L707.468 203.467L707.487 203.46L705.25 197.181V197.18ZM674.35 187.414L668.91 191.268L668.922 191.285L668.934 191.301L674.35 187.414ZM678.792 184.236L673.352 188.089L673.36 188.1L673.368 188.111L678.792 184.236ZM703.443 192.026L705.654 198.316L705.667 198.311L705.68 198.307L703.443 192.027V192.026ZM705.635 142.195C682.923 135.017 658.6 148.068 651.38 170.914L664.094 174.932C669.162 158.893 686.138 150.017 701.617 154.909L705.634 142.195H705.635ZM651.38 170.914L642.723 198.308L655.436 202.325L664.094 174.932L651.38 170.914ZM642.723 198.308C641.83 201.13 641.077 206.297 645.04 209.863C649.061 213.482 654.154 212.084 656.845 210.837L651.24 198.739C650.765 198.958 650.79 198.85 651.231 198.843C651.741 198.835 652.884 198.985 653.958 199.952C655.022 200.91 655.278 202.001 655.324 202.451C655.364 202.848 655.27 202.848 655.435 202.325L642.722 198.308H642.723ZM656.836 210.842L661.306 208.779L655.721 196.672L651.251 198.734L656.836 210.842ZM661.336 208.766C660.525 209.145 659.724 209.125 659.111 208.932C658.498 208.738 657.833 208.294 657.386 207.517L668.946 200.874C666.309 196.285 660.488 194.444 655.692 196.685L661.335 208.765L661.336 208.766ZM657.393 207.529L662.329 216.078L673.876 209.411L668.94 200.862L657.393 207.529ZM662.322 216.065C664.959 220.655 670.78 222.495 675.576 220.254L669.933 208.174C670.744 207.796 671.545 207.814 672.157 208.008C672.77 208.202 673.436 208.647 673.882 209.423L662.322 216.065ZM675.563 220.261L684.515 216.101L678.897 204.009L669.945 208.169L675.563 220.261ZM684.527 216.096C683.716 216.475 682.915 216.456 682.303 216.262C681.69 216.068 681.024 215.624 680.578 214.847L692.138 208.204C689.501 203.615 683.68 201.774 678.884 204.015L684.527 216.095V216.096ZM680.584 214.86L685.52 223.408L697.067 216.741L692.131 208.192L680.585 214.859L680.584 214.86ZM685.513 223.396C688.15 227.985 693.972 229.826 698.768 227.584L693.124 215.504C693.935 215.125 694.736 215.144 695.349 215.338C695.962 215.531 696.628 215.976 697.074 216.752L685.514 223.395L685.513 223.396ZM698.755 227.591L707.706 223.432L702.089 211.339L693.137 215.499L698.755 227.591ZM707.719 223.426C706.907 223.805 706.107 223.786 705.494 223.592C704.881 223.399 704.216 222.954 703.769 222.177L715.33 215.535C712.693 210.945 706.871 209.105 702.076 211.345L707.719 223.425V223.426ZM703.785 222.205L706.259 226.462L717.787 219.764L715.314 215.507L703.785 222.206V222.205ZM706.253 226.452C707.739 229.02 711.104 233.091 716.474 232.441C721.766 231.8 724.119 227.138 725.011 224.315L712.298 220.297C712.133 220.82 712.056 220.765 712.317 220.464C712.613 220.123 713.45 219.376 714.871 219.204C716.306 219.03 717.328 219.564 717.739 219.863C718.097 220.123 718.055 220.226 717.793 219.773L706.253 226.452ZM725.011 224.315L733.669 196.922L720.956 192.904L712.298 220.297L725.011 224.315ZM733.683 196.877C740.727 174.023 728.353 149.377 705.634 142.196L701.616 154.909C717.086 159.799 725.909 176.83 720.942 192.949L733.683 196.877ZM696.546 170.95C697.584 171.277 698.179 172.421 697.85 173.458L710.564 177.476C713.111 169.417 708.623 160.783 700.564 158.236L696.546 170.95ZM697.85 173.458C697.523 174.495 696.379 175.09 695.342 174.762L691.324 187.475C699.383 190.023 708.017 185.535 710.564 177.476L697.851 173.458H697.85ZM695.342 174.762C694.304 174.434 693.71 173.291 694.038 172.253L681.324 168.236C678.777 176.294 683.265 184.929 691.323 187.475L695.341 174.762H695.342ZM694.038 172.253C694.366 171.216 695.509 170.622 696.546 170.95L700.564 158.236C692.506 155.689 683.871 160.176 681.324 168.236L694.038 172.253ZM703.05 190.888C698.842 192.358 694.332 192.352 690.195 191.045L686.178 203.759C692.943 205.896 700.41 205.934 707.448 203.474L703.05 190.887L703.05 190.888ZM690.195 191.045C686.06 189.738 682.365 187.151 679.766 183.529L668.933 191.302C673.28 197.359 679.411 201.62 686.178 203.759L690.195 191.045ZM679.79 183.562C680.998 185.267 680.678 187.74 678.835 189.046L671.128 178.166C666.825 181.214 665.959 187.103 668.91 191.27L679.79 183.563V183.562ZM678.835 189.046C677.13 190.254 674.657 189.933 673.351 188.09L684.231 180.383C681.183 176.081 675.293 175.215 671.127 178.166L678.834 189.046H678.835ZM673.367 188.113C680.625 198.271 693.876 202.459 705.654 198.317L701.23 185.739C695.05 187.912 688.024 185.692 684.216 180.362L673.367 188.113ZM705.679 198.308C703.552 199.066 701.344 197.907 700.642 195.938L713.202 191.463C711.489 186.654 706.171 183.978 701.204 185.747L705.678 198.307L705.679 198.308ZM700.642 195.938C699.885 193.811 701.043 191.602 703.012 190.901L707.487 203.461C712.296 201.749 714.972 196.431 713.203 191.463L700.643 195.938H700.642Z" fill="#EF2D56"/>
<path d="M703.627 148.55C684.532 142.515 663.883 153.478 657.738 172.921L649.081 200.315C647.698 204.689 649.929 206.692 654.045 204.786L658.515 202.723C660.173 201.949 662.256 202.607 663.167 204.194L668.103 212.742C669.015 214.328 671.098 214.987 672.755 214.213L681.707 210.054C683.364 209.279 685.447 209.937 686.359 211.524L691.294 220.072C692.206 221.659 694.289 222.317 695.947 221.543L704.898 217.384C706.556 216.609 708.639 217.267 709.55 218.854L712.023 223.111C714.296 227.037 717.273 226.679 718.655 222.305L727.313 194.912C733.319 175.426 722.721 154.586 703.625 148.552L703.627 148.55ZM698.559 164.59C703.106 166.027 705.647 170.916 704.21 175.464C702.772 180.012 697.883 182.553 693.335 181.116C688.787 179.678 686.246 174.79 687.683 170.241C689.121 165.693 694.01 163.153 698.558 164.59H698.559ZM705.252 197.178C699.629 199.144 693.64 199.122 688.189 197.4C682.738 195.677 677.825 192.253 674.352 187.413C673.481 186.183 673.754 184.474 674.983 183.604C676.214 182.732 677.922 183.004 678.794 184.235C684.327 191.979 694.465 195.183 703.444 192.026C704.864 191.52 706.419 192.278 706.925 193.699C707.431 195.119 706.672 196.673 705.252 197.179V197.178Z" fill="#FCDC4D"/>
</svg>
