<svg width="492" height="145" viewBox="0 0 492 145" fill="none" xmlns="http://www.w3.org/2000/svg">
<path d="M65.7743 13.3954L430.671 31.2055L431.321 17.8875L66.4242 0.0774062L65.7743 13.3954ZM425.795 131.089L60.8983 113.279L60.2484 126.597L425.145 144.407L425.795 131.089ZM60.8983 113.279C33.3161 111.932 12.051 88.4814 13.3946 60.9025L0.0765727 60.2526C-1.62733 95.1893 25.3118 124.893 60.2451 126.597L60.895 113.279H60.8983ZM478.175 83.5886C476.828 111.171 453.377 132.436 425.799 131.092L425.149 144.41C460.085 146.114 489.789 119.175 491.493 84.2419L478.175 83.592V83.5886ZM430.671 31.2123C458.253 32.5592 479.519 56.0097 478.175 83.5886L491.493 84.2385C493.197 49.3019 466.258 19.5982 431.324 17.8943L430.675 31.2123H430.671ZM66.4242 0.084141C31.4876 -1.61976 1.78384 25.3193 0.0799401 60.2526L13.398 60.9025C14.7449 33.3203 38.1954 12.0552 65.7743 13.3988L66.4242 0.0807736V0.084141Z" fill="#FCDC4D"/>
<path d="M6.73753 60.5726C8.26296 29.3132 34.8418 5.20942 66.0978 6.73485L430.995 24.545C462.254 26.0704 486.358 52.6492 484.833 83.9053C483.307 115.165 456.728 139.268 425.472 137.743L60.5753 119.933C29.3159 118.408 5.21211 91.8287 6.73753 60.5726Z" fill="#7000FF"/>
<path d="M175.194 80.6759C174.19 85.7001 171.378 89.5221 166.758 92.1453C162.179 94.7685 156.542 95.9167 149.837 95.5901C141.624 95.1894 135.297 92.6773 130.849 88.0539C126.404 83.3867 124.353 77.5241 124.7 70.466C125.05 63.3204 127.727 57.643 132.741 53.4371C137.755 49.1875 144.234 47.258 152.181 47.6452C158.572 47.9584 163.852 49.6387 168.021 52.6896C172.234 55.7438 174.631 59.9092 175.221 65.1893L164.832 64.6808C164.105 62.2866 162.62 60.347 160.377 58.8586C158.138 57.3702 155.286 56.5419 151.821 56.3701C146.672 56.1176 142.54 57.3399 139.425 60.0372C136.314 62.7345 134.644 66.3679 134.421 70.9408C134.196 75.5575 135.546 79.3155 138.476 82.2182C141.405 85.0771 145.335 86.6227 150.262 86.8652C153.989 87.047 157.107 86.5318 159.616 85.3196C162.125 84.0635 163.856 82.3462 164.805 80.1675L175.194 80.6759Z" fill="white"/>
<path d="M180.599 96.4252L182.225 63.1318L190.549 63.5393L191.182 68.3749L191.782 68.4052C193.297 66.5666 194.893 65.2634 196.577 64.5024C198.264 63.6942 200.547 63.3608 203.433 63.5023L206.43 63.647L205.979 72.9006C204.746 72.6178 203.308 72.4359 201.668 72.3551C198.25 72.1867 195.56 73.0353 193.6 74.8975C191.687 76.7192 190.65 79.2684 190.489 82.5549L189.788 96.8697L180.599 96.4218V96.4252Z" fill="white"/>
<path d="M218.162 112.275C216.388 112.188 214.445 111.851 212.34 111.259L212.606 104.463C214.014 104.8 215.273 104.995 216.381 105.049C220.331 105.241 223.113 103.864 224.726 100.917L226.039 98.6443L223.042 98.4995L209.151 64.4485L219.139 64.9368L229.002 89.8487L229.602 89.879L241.179 66.0143L251.099 66.4992L233.312 102.742C232.673 104.002 232.09 105.019 231.561 105.793C231.08 106.571 230.228 107.575 229.012 108.807C227.84 110.04 226.328 110.945 224.473 111.521C222.661 112.144 220.56 112.397 218.162 112.282V112.275Z" fill="white"/>
<path d="M276.522 67.0648C282.071 67.3342 286.476 69.129 289.742 72.4492C293.052 75.7257 294.578 80.0259 294.318 85.3531C294.059 90.6803 292.099 94.8121 288.439 97.7484C284.782 100.641 280.246 101.954 274.831 101.688C269.814 101.442 265.884 99.9406 263.039 97.176L262.231 113.757L253.041 113.309L255.317 66.6978L262.907 67.0682L263.584 70.9743L264.184 71.0046C267.171 68.1255 271.286 66.8122 276.525 67.0682L276.522 67.0648ZM266.154 90.788C267.982 92.5256 270.562 93.4719 273.892 93.6369C277.222 93.7985 279.882 93.0846 281.873 91.4885C283.863 89.8957 284.927 87.7001 285.065 84.9019C285.206 82.016 284.364 79.6824 282.536 77.9044C280.711 76.1231 278.131 75.1533 274.801 74.9916C271.518 74.83 268.878 75.5472 266.888 77.14C264.898 78.7328 263.83 80.9721 263.689 83.858C263.551 86.7 264.372 89.0067 266.154 90.7847V90.788Z" fill="white"/>
<path d="M315.571 103.678C311.577 103.483 308.715 102.409 306.984 100.456C305.3 98.459 304.536 95.9301 304.684 92.8691L305.485 76.4228L297.229 76.0187L297.582 68.762L300.845 68.9203C302.886 69.0213 304.351 68.6913 305.233 67.9336C306.162 67.1322 306.671 65.8223 306.758 64.0039L306.964 59.8081L315.487 60.2223L315.029 69.6106L325.151 70.1056L324.797 77.3623L314.675 76.8673L313.951 91.7175C313.921 92.3404 313.937 92.8725 314.005 93.3237C314.072 93.7716 314.247 94.2699 314.534 94.8188C314.82 95.3239 315.311 95.7247 316.008 96.0244C316.749 96.3274 317.655 96.5059 318.719 96.5564C319.874 96.6136 321.147 96.5194 322.538 96.2769L322.198 103.268C320.133 103.655 317.921 103.793 315.571 103.678Z" fill="white"/>
<path d="M346.716 105.201C340.678 104.904 335.805 103.066 332.101 99.6814C328.394 96.2971 326.666 92.0307 326.919 86.8819C327.171 81.7332 329.283 77.6519 333.256 74.6415C337.273 71.6344 342.324 70.2773 348.406 70.577C354.487 70.8734 359.36 72.712 363.02 76.0962C366.728 79.4804 368.455 83.7469 368.203 88.8956C367.95 94.0444 365.815 98.1223 361.798 101.133C357.825 104.143 352.797 105.5 346.716 105.201ZM338.843 94.2026C340.799 96.0345 343.554 97.0346 347.106 97.2097C350.659 97.3814 353.497 96.6541 355.622 95.0209C357.75 93.3439 358.882 91.1518 359.013 88.4444C359.145 85.737 358.232 83.4674 356.276 81.6355C354.319 79.7599 351.568 78.7362 348.015 78.5611C344.463 78.3894 341.624 79.1403 339.496 80.8139C337.368 82.4471 336.24 84.6157 336.108 87.3231C335.977 90.0304 336.886 92.3236 338.843 94.1993V94.2026Z" fill="white"/>
<path d="M444.925 17.7428L440.282 24.2553L444.925 17.7428ZM400.119 25.2487L393.606 20.6051L400.119 25.2487ZM408.366 70.5805L403.894 77.2142L403.907 77.2243L408.366 70.5805ZM451.876 63.2901L458.254 68.1189L458.257 68.1122L451.872 63.2901H451.876ZM442.487 56.1512L448.879 60.9599L448.899 60.9329L448.919 60.906L442.484 56.1512H442.487ZM414.915 60.7713L410.383 67.3613L410.41 67.3815L410.44 67.4017L414.915 60.7713ZM414.259 57.4342L407.669 52.9017L407.628 52.9589L407.588 53.0162L414.259 57.4342ZM417.596 56.7776L422.054 50.1371L422.034 50.1236L422.014 50.1101L417.596 56.7809V56.7776ZM438.655 53.2485L432.304 48.3827L432.288 48.4029L432.271 48.4231L438.652 53.2485H438.655ZM442.023 52.7805L437.157 59.1314L437.214 59.1751L437.271 59.2155L442.026 52.7805H442.023ZM449.572 11.2235C431.54 -1.63315 406.467 2.56935 393.61 20.6017L406.638 29.889C414.366 19.0527 429.449 16.5238 440.285 24.252L449.572 11.2235ZM393.61 20.6017C380.524 38.9573 385.1 64.5394 403.897 77.2109L412.841 63.9434C401.513 56.3061 398.772 40.9205 406.638 29.889L393.61 20.6017ZM403.911 77.221C421.35 88.9226 445.582 84.8616 458.257 68.1156L445.498 58.4613C437.945 68.4422 423.219 70.9105 412.824 63.9366L403.911 77.2243V77.221ZM458.26 68.1088C471.939 49.9956 467.928 24.3126 449.572 11.2235L440.285 24.252C451.313 32.1148 453.738 47.5475 445.495 58.4646L458.264 68.1088H458.26ZM436.096 51.3392C434.231 53.821 431.415 55.4508 428.287 55.9761L430.931 71.7557C437.793 70.604 444.366 66.9572 448.882 60.9599L436.096 51.3392ZM428.287 55.9761C425.159 56.5014 421.967 55.8751 419.394 54.1375L410.443 67.3983C416.666 71.5974 424.068 72.904 430.934 71.7557L428.291 55.9761H428.287ZM419.451 54.1779C421.94 55.8886 422.617 59.3031 420.933 61.8522L407.591 53.0196C404.453 57.7608 405.692 64.1353 410.386 67.3646L419.451 54.1813V54.1779ZM420.852 61.9667C419.141 64.4552 415.727 65.132 413.178 63.4484L422.01 50.1068C417.269 46.9684 410.895 48.2076 407.665 52.9017L420.849 61.9667H420.852ZM413.137 63.418C423.351 70.274 437.571 67.9472 445.037 58.0706L432.274 48.4231C429.947 51.5009 425.25 52.2787 422.058 50.1337L413.137 63.418ZM445.006 58.1144C443.198 60.4749 439.723 61.0979 437.157 59.1314L446.889 46.4329C442.235 42.8669 435.716 43.9343 432.304 48.3827L445.003 58.1144H445.006ZM437.271 59.2155C434.604 57.2456 434.369 53.6796 436.059 51.3931L448.926 60.9026C452.206 56.4644 451.596 49.9081 446.778 46.3454L437.268 59.2122L437.271 59.2155Z" fill="white"/>
<path d="M444.926 17.7428C430.49 7.45202 410.413 10.816 400.119 25.2487C389.643 39.9406 393.304 60.4244 408.366 70.5804C422.283 79.9182 441.76 76.6552 451.876 63.29C462.837 48.7766 459.621 28.2187 444.926 17.7428ZM442.488 56.1512C439.299 60.3907 434.605 63.0308 429.607 63.8692C424.61 64.7077 419.313 63.7413 414.915 60.7712C413.814 60.0136 413.531 58.5319 414.259 57.4342C415.016 56.333 416.498 56.0502 417.596 56.7775C424.3 61.2797 433.759 59.7273 438.656 53.2485C439.457 52.2046 440.979 51.9824 442.023 52.7804C443.1 53.5751 443.286 55.0736 442.491 56.1478L442.488 56.1512Z" fill="#EF2D56"/>
</svg>
