<svg width="490" height="169" viewBox="0 0 490 169" fill="none" xmlns="http://www.w3.org/2000/svg">
<path d="M69.0471 13.667L431.992 55.3727L433.515 42.1274L70.57 0.421667L69.0471 13.667ZM420.576 154.718L57.6311 113.012L56.1082 126.258L419.053 167.964L420.576 154.718ZM57.6311 113.012C30.1982 109.861 10.5134 85.0658 13.6652 57.6306L0.419851 56.1077C-3.57286 90.8579 21.3603 122.265 56.1082 126.258L57.6311 113.012ZM475.956 110.752C472.804 138.185 448.009 157.87 420.574 154.718L419.051 167.964C453.801 171.956 485.209 147.023 489.201 112.275L475.956 110.752ZM431.99 55.3704C459.423 58.5222 479.108 83.3171 475.956 110.752L489.201 112.275C493.194 77.525 468.261 46.1178 433.513 42.1251L431.99 55.3704ZM70.5676 0.419363C35.8175 -3.57335 4.41256 21.3598 0.417547 56.1077L13.6628 57.6306C16.8146 30.1977 41.6095 10.5129 69.0447 13.6647L70.5676 0.419363Z" fill="#5105B2"/>
<path d="M7.04381 56.8702C10.6172 25.7787 38.7183 3.46968 69.8098 7.04308L432.755 48.7488C463.847 52.3222 486.156 80.4233 482.582 111.515C479.009 142.606 450.908 164.915 419.816 161.342L56.8709 119.636C25.7794 116.063 3.47041 87.9618 7.04381 56.8702Z" fill="#FCDC4D"/>
<path d="M158.421 101.779L155.092 90.457L132.771 87.8928L126.961 98.1637L116.893 97.0071L142.353 52.9583L153.679 54.26L168.487 102.935L158.419 101.779H158.421ZM136.974 80.5248L152.67 82.3288L147.152 63.7775L146.556 63.7084L136.974 80.5248Z" fill="#5105B2"/>
<path d="M182.115 66.9223C180.612 66.7495 179.375 66.0491 178.398 64.8165C177.421 63.5862 177.014 62.2637 177.177 60.8514C177.355 59.3055 178.057 58.0659 179.281 57.1328C180.506 56.1998 181.87 55.8196 183.37 55.9924C184.826 56.1606 186.024 56.8333 186.962 58.0153C187.9 59.1972 188.28 60.5611 188.102 62.1047C187.934 63.5631 187.259 64.7819 186.073 65.7634C184.891 66.7011 183.573 67.0858 182.115 66.9199V66.9223ZM173.217 103.479L177.023 70.3643L186.163 71.4149L182.356 104.529L173.217 103.479Z" fill="#5105B2"/>
<path d="M189.709 105.375L193.515 72.2605L201.793 73.212L202.106 78.0802L202.703 78.1493C204.334 76.4122 206.014 75.2187 207.744 74.5667C209.479 73.8709 211.783 73.6889 214.651 74.0184L217.633 74.3617L216.575 83.5682C215.366 83.2065 213.942 82.93 212.308 82.7434C208.908 82.3517 206.171 83.0222 204.092 84.7524C202.065 86.4435 200.862 88.9225 200.487 92.1895L198.851 106.428L189.711 105.377L189.709 105.375Z" fill="#5105B2"/>
<path d="M235.953 111.358C231.978 110.902 229.193 109.642 227.596 107.58C226.048 105.479 225.449 102.905 225.799 99.8571L227.679 83.4992L219.466 82.5546L220.295 75.3363L223.541 75.7096C225.574 75.9423 227.053 75.7096 227.983 75.0115C228.963 74.2742 229.557 73.0002 229.764 71.1893L230.244 67.0168L238.722 67.9914L237.648 77.3292L247.717 78.4858L246.887 85.704L236.821 84.5475L235.123 99.318C235.052 99.9354 235.036 100.472 235.073 100.924C235.11 101.375 235.252 101.885 235.501 102.449C235.755 102.97 236.22 103.405 236.895 103.751C237.616 104.101 238.506 104.338 239.565 104.46C240.713 104.592 241.989 104.582 243.394 104.43L242.595 111.384C240.508 111.637 238.294 111.628 235.955 111.358H235.953Z" fill="#5105B2"/>
<path d="M257.981 75.6404C256.479 75.4676 255.241 74.7672 254.265 73.5346C253.288 72.3043 252.88 70.9819 253.043 69.5695C253.221 68.0236 253.924 66.7841 255.147 65.8533C256.373 64.9202 257.737 64.5401 259.236 64.7129C260.693 64.881 261.891 65.5538 262.828 66.7357C263.766 67.9176 264.146 69.2816 263.969 70.8252C263.801 72.2813 263.125 73.5024 261.939 74.4838C260.757 75.4215 259.439 75.8063 257.981 75.6404ZM249.083 112.197L252.889 79.0825L262.029 80.1331L258.223 113.247L249.083 112.197Z" fill="#5105B2"/>
<path d="M265.577 114.091L269.383 80.9763L277.728 81.9348L278.067 85.9989L278.663 86.068C281.624 83.2779 285.223 82.1237 289.462 82.6121C294.141 83.1489 297.272 85.2985 298.855 89.0585L299.385 89.1184C302.528 85.8998 306.594 84.5774 311.584 85.151C315.646 85.6187 318.697 87.1094 320.733 89.6253C322.821 92.102 323.618 95.4819 323.125 99.7649L320.749 120.429L311.543 119.371L313.727 100.364C313.976 98.2005 313.529 96.4495 312.384 95.1086C311.285 93.7747 309.741 92.9936 307.755 92.7655C305.636 92.5213 303.839 92.9867 302.362 94.1594C300.933 95.2929 300.09 96.9863 299.832 99.2373L297.701 117.782L288.494 116.724L290.655 97.9148C290.909 95.7077 290.49 93.9152 289.395 92.5351C288.301 91.1574 286.76 90.3533 284.774 90.1252C282.788 89.8971 281.034 90.3441 279.518 91.4684C278.002 92.5927 277.115 94.2792 276.857 96.5302L274.719 115.141L265.579 114.091H265.577Z" fill="#5105B2"/>
<path d="M357.317 113.763L366.326 114.798C365.22 118.205 362.911 120.758 359.407 122.459C355.951 124.12 351.728 124.663 346.738 124.09C340.644 123.389 335.921 121.281 332.566 117.763C329.255 114.252 327.896 109.934 328.484 104.813C329.092 99.5136 331.412 95.4864 335.441 92.7286C339.515 89.9754 344.401 88.9271 350.097 89.5814C355.396 90.1896 359.667 92.1342 362.913 95.415C366.164 98.652 367.491 103.078 366.89 108.69C366.784 109.616 366.611 110.538 366.372 111.448L337.363 108.114C337.409 110.446 338.301 112.404 340.042 113.992C341.789 115.535 344.295 116.494 347.562 116.869C352.596 117.447 355.847 116.413 357.315 113.761L357.317 113.763ZM349.267 96.7996C346.397 96.4701 344.012 96.7766 342.116 97.7235C340.217 98.6681 338.941 100.044 338.287 101.848L358.289 104.147C358.243 102.218 357.421 100.603 355.827 99.2994C354.281 97.9585 352.094 97.1268 349.27 96.8019L349.267 96.7996Z" fill="#5105B2"/>
</svg>
