<svg width="800" height="300" viewBox="0 0 786 184" fill="none" xmlns="http://www.w3.org/2000/svg">
<path d="M62.1045 29.5596L720.572 13.3497L720.244 0.0197784L61.7768 16.2297L62.1045 29.5596ZM723.033 113.319L64.5655 129.529L64.8933 142.859L723.36 126.649L723.033 113.319ZM64.5655 129.529C36.9603 130.208 14.0308 108.381 13.3495 80.7737L0.019622 81.1014C0.879678 116.07 29.9249 143.717 64.8933 142.857L64.5655 129.527V129.529ZM771.786 62.1027C772.465 89.7079 750.638 112.637 723.033 113.319L723.36 126.649C758.329 125.789 785.976 96.7433 785.116 61.775L771.786 62.1027ZM720.57 13.3477C748.175 12.6684 771.104 34.4955 771.786 62.1027L785.116 61.775C784.256 26.8067 755.21 -0.840278 720.244 0.0197784L720.572 13.3497L720.57 13.3477ZM61.7748 16.2297C26.8065 17.0898 -0.84242 46.1351 0.019622 81.1034L13.3495 80.7757C12.6702 53.1704 34.4973 30.2409 62.1045 29.5596L61.7768 16.2297H61.7748Z" fill="#FCDC4D"/>
<path d="M6.6855 80.9386C5.91482 49.6508 30.6538 23.6644 61.9396 22.8938L720.407 6.68379C751.693 5.91311 777.681 30.6521 778.452 61.9379C779.222 93.2237 754.483 119.212 723.198 119.983L64.7303 136.193C33.4426 136.963 7.45617 112.224 6.6855 80.9386Z" fill="white"/>
<path d="M210.483 56.5828L211.631 103.234L202.367 103.463L201.602 72.4054L201.07 72.4193L187.107 98.503L177.577 98.7374L162.348 73.3707L161.748 73.3866L162.513 104.444L153.249 104.672L152.101 58.0188L163.696 57.7348L181.867 88.7624L182.467 88.7485L198.953 56.8648L210.483 56.5828Z" fill="#5105B3"/>
<path d="M239.097 103.225C233.055 103.374 228.062 101.896 224.117 98.7912C220.172 95.6867 218.138 91.5592 218.011 86.4048C217.884 81.2505 219.692 77.0276 223.434 73.7344C227.22 70.4412 232.157 68.7171 238.243 68.5681C244.331 68.4191 249.325 69.8949 253.224 73.0015C257.169 76.106 259.202 80.2335 259.33 85.3879C259.457 90.5422 257.627 94.7651 253.84 98.0603C250.097 101.354 245.183 103.076 239.095 103.225H239.097ZM230.439 92.8344C232.527 94.5168 235.345 95.3153 238.901 95.2259C242.454 95.1385 245.233 94.2029 247.235 92.4193C249.235 90.5919 250.203 88.3236 250.135 85.6123C250.068 82.901 248.991 80.7062 246.905 79.0238C244.818 77.2978 241.997 76.4774 238.442 76.5648C234.889 76.6522 232.11 77.6096 230.11 79.437C228.107 81.2207 227.142 83.4671 227.208 86.1764C227.275 88.8877 228.352 91.1044 230.439 92.8324V92.8344Z" fill="#5105B3"/>
<path d="M276.283 101.643L259.934 68.7031L269.863 68.4568L281.322 92.3159L281.922 92.302L292.058 67.9105L301.921 67.6682L287.279 101.373L276.283 101.643Z" fill="#5105B3"/>
<path d="M310.704 63.4514C309.192 63.4891 307.87 62.9648 306.731 61.8822C305.593 60.7977 305.007 59.5464 304.972 58.1242C304.934 56.569 305.456 55.2441 306.541 54.1517C307.625 53.0572 308.922 52.4931 310.434 52.4554C311.9 52.4196 313.179 52.9222 314.271 53.961C315.364 55.0018 315.93 56.2988 315.968 57.8541C316.003 59.32 315.503 60.621 314.464 61.7591C313.423 62.8515 312.17 63.4156 310.704 63.4514ZM306.958 100.889L306.138 67.565L315.334 67.3385L316.154 100.662L306.958 100.889Z" fill="#5105B3"/>
<path d="M351.492 88.9889L360.556 88.7665C359.932 92.2941 358.001 95.1424 354.764 97.3114C351.57 99.4347 347.464 100.559 342.443 100.682C336.311 100.833 331.342 99.399 327.532 96.3818C323.768 93.3627 321.822 89.2769 321.694 84.1226C321.563 78.7914 323.301 74.4812 326.91 71.1899C330.563 67.8987 335.257 66.1825 340.987 66.0415C346.318 65.9104 350.819 67.2432 354.49 70.0439C358.158 72.7988 360.085 76.9978 360.268 82.6388C360.292 83.5724 360.248 84.5059 360.137 85.4434L330.946 86.1625C331.314 88.4646 332.47 90.282 334.414 91.6128C336.357 92.8979 338.973 93.5017 342.262 93.4203C347.327 93.2952 350.402 91.8194 351.488 88.9909L351.492 88.9889ZM341.17 73.3053C338.282 73.3768 335.964 74.0104 334.214 75.2102C332.466 76.4099 331.391 77.9472 330.994 79.8243L351.121 79.3297C350.807 77.4268 349.77 75.9391 348.011 74.8725C346.294 73.7582 344.014 73.2378 341.17 73.3073V73.3053Z" fill="#5105B3"/>
<path d="M424.228 51.3193L424.438 59.8504L408.31 60.2476L409.249 98.3702L399.717 98.6045L398.78 60.482L382.651 60.8793L382.44 52.3482L424.228 51.3193Z" fill="#5105B3"/>
<path d="M434.234 60.4104C432.723 60.4481 431.4 59.9237 430.262 58.8412C429.124 57.7567 428.538 56.5054 428.502 55.0832C428.464 53.528 428.987 52.2031 430.071 51.1107C431.156 50.0162 432.453 49.4521 433.964 49.4144C435.43 49.3786 436.709 49.8812 437.804 50.92C438.896 51.9608 439.462 53.2578 439.5 54.8131C439.536 56.2789 439.035 57.5799 437.996 58.7181C436.955 59.8105 435.702 60.3746 434.236 60.4104H434.234ZM430.488 97.8476L429.668 64.524L438.864 64.2975L439.685 97.6212L430.488 97.8476Z" fill="#5105B3"/>
<path d="M466.109 97.637C459.888 97.7899 454.873 96.336 451.063 93.2732C447.297 90.2083 445.352 86.1226 445.225 81.0119C445.096 75.7701 446.904 71.5016 450.646 68.2084C454.388 64.8715 459.213 63.1295 465.122 62.9845C470.143 62.8614 474.457 63.8883 478.068 66.0672C481.723 68.2441 483.89 71.4361 484.573 75.643L475.309 75.8714C474.783 74.3738 473.621 73.1781 471.819 72.2902C470.018 71.3566 467.851 70.9197 465.318 70.9832C461.985 71.0647 459.32 71.9982 457.318 73.7819C455.361 75.5636 454.418 77.8994 454.489 80.7875C454.559 83.5861 455.59 85.7849 457.586 87.3799C459.626 88.9749 462.4 89.7277 465.91 89.6423C471.241 89.5112 474.493 87.9639 475.665 85.0003L484.929 84.7719C484.402 88.6531 482.456 91.7457 479.089 94.0518C475.722 96.3122 471.394 97.5099 466.107 97.639L466.109 97.637Z" fill="#5105B3"/>
<path d="M527.721 62.1086L512.037 75.1664L528.541 95.4323L517.809 95.6965L505.437 80.6644L499.881 85.2685L500.149 96.1315L490.951 96.3579L489.787 49.0389L498.984 48.8125L499.621 74.6718L500.221 74.6559L515.458 62.4105L527.721 62.1086Z" fill="#5105B3"/>
<path d="M558.657 83.8881L567.72 83.6656C567.096 87.1933 565.166 90.0416 561.928 92.2106C558.734 94.3339 554.628 95.4581 549.607 95.5813C543.475 95.7322 538.506 94.2981 534.696 91.281C530.932 88.2619 528.986 84.1761 528.858 79.0217C528.727 73.6906 530.465 69.3804 534.074 66.0891C537.727 62.7979 542.421 61.0817 548.151 60.9407C553.482 60.8096 557.983 62.1424 561.654 64.943C565.322 67.698 567.249 71.897 567.432 77.538C567.454 78.4715 567.412 79.4051 567.301 80.3426L538.11 81.0616C538.478 83.3637 539.634 85.1812 541.579 86.512C543.521 87.7991 546.137 88.4009 549.426 88.3195C554.491 88.1943 557.566 86.7185 558.653 83.8921L558.657 83.8881ZM548.334 68.2045C545.446 68.276 543.128 68.9096 541.378 70.1093C539.63 71.309 538.555 72.8464 538.158 74.7234L558.285 74.2289C557.971 72.324 556.934 70.8383 555.175 69.7697C553.458 68.6554 551.178 68.135 548.334 68.2045Z" fill="#5105B3"/>
<path d="M590.231 94.5804C586.232 94.6777 583.299 93.8176 581.432 91.9962C579.608 90.1291 578.657 87.6622 578.581 84.5974L578.176 68.1351L569.911 68.3377L569.732 61.0739L572.998 60.9945C575.042 60.9448 576.476 60.5078 577.3 59.6875C578.168 58.8215 578.579 57.4768 578.534 55.6554L578.43 51.4564L586.961 51.2458L587.192 60.6429L597.322 60.3926L597.5 67.6564L587.37 67.9067L587.736 82.768C587.752 83.3897 587.809 83.922 587.909 84.365C588.008 84.8079 588.221 85.2906 588.544 85.8169C588.868 86.2976 589.389 86.6631 590.106 86.9114C590.868 87.1596 591.782 87.2709 592.847 87.2431C594.003 87.2153 595.264 87.0285 596.634 86.6829L596.807 93.6806C594.775 94.2208 592.582 94.5188 590.227 94.5764L590.231 94.5804Z" fill="#5105B3"/>
<path d="M619.321 93.8653C613.724 94.0023 609.388 93.1085 606.319 91.1838C603.249 89.2591 601.513 86.4565 601.111 82.7759L610.175 82.5535C611.009 85.7335 613.98 87.2609 619.089 87.1358C623.576 87.0246 625.793 85.8805 625.741 83.7035C625.717 82.7263 625.209 81.9596 624.218 81.4074C623.226 80.8532 621.57 80.3844 619.248 79.9951L612.957 79.0834C605.862 78.0585 602.253 75.0354 602.13 70.0141C602.049 66.7268 603.386 64.1367 606.141 62.2458C608.939 60.3549 612.538 59.3538 616.936 59.2465C622.001 59.1214 625.912 59.9815 628.669 61.8247C631.472 63.668 633.132 66.1608 633.654 69.305L624.458 69.5315C623.775 67.0585 621.322 65.8747 617.103 65.978C613.104 66.0773 611.13 67.1698 611.182 69.2574C611.208 70.2803 611.692 71.0013 612.636 71.4224C613.579 71.7998 615.144 72.1613 617.329 72.5069L623.753 73.4166C630.983 74.5269 634.665 77.838 634.8 83.348C634.884 86.7246 633.48 89.2929 630.59 91.0527C627.743 92.8126 623.987 93.7501 619.321 93.8653Z" fill="#5105B3"/>
<path d="M98.9265 92.9912L94.9738 104.321L98.9265 92.9912ZM66.7827 81.7787L70.7353 70.449L66.7827 81.7787ZM36.7224 96.2904L25.3927 92.3377L36.7224 96.2904ZM25.5238 128.396L36.8535 132.349L25.5238 128.396ZM40.0236 158.494L43.9763 147.165L40.0236 158.494ZM72.1297 169.693L68.177 181.023L72.1297 169.693ZM102.19 155.181L113.52 159.134L102.19 155.181ZM113.402 123.038L102.083 119.055L102.077 119.071L102.071 119.087L113.4 123.04L113.402 123.038ZM51.9035 107.912L62.7962 102.879L62.7525 102.787L62.7088 102.696L51.9015 107.914L51.9035 107.912ZM53.3217 103.846L48.1038 93.0388L53.3217 103.846ZM71.3491 110.135L82.1564 104.917L82.1465 104.897L82.1366 104.875L71.3511 110.135H71.3491ZM69.9309 114.201L75.1488 125.008L69.9309 114.201ZM65.865 112.782L76.6723 107.564L65.865 112.782ZM55.9694 109.33L50.7515 98.5229L50.6601 98.5666L50.5687 98.6123L55.9694 109.328V109.33ZM75.1508 153.882L71.1981 165.212L75.1508 153.882ZM47.5337 144.249L51.4864 132.919L47.5337 144.249ZM44.3755 137.641L33.0458 133.688L44.3755 137.641ZM81.8128 150.698L93.0869 154.812L93.1167 154.73L93.1445 154.649L81.8148 150.696L81.8128 150.698ZM90.2624 121.292L79.4551 126.51L90.2624 121.292ZM80.3668 117.839L85.5847 128.647L80.3668 117.839ZM76.3009 116.421L87.1082 111.203L76.3009 116.421ZM77.7191 112.355L72.5011 101.548L77.7191 112.355ZM95.7465 118.644L106.639 113.611L106.588 113.497L106.532 113.384L95.7465 118.644ZM102.881 81.6615L70.7373 70.449L62.8339 93.1103L94.9778 104.323L102.881 81.6615ZM70.7373 70.449C61.5031 67.2272 51.8002 66.9809 43.1281 71.168C34.4561 75.3551 28.6164 83.1055 25.3947 92.3417L48.0561 100.245C49.7047 95.5177 51.9134 93.5771 53.562 92.7806C55.2126 91.9841 58.1046 91.4617 62.832 93.1103L70.7353 70.449H70.7373ZM25.3947 92.3397L14.1961 124.446L36.8575 132.351L48.0561 100.245L25.3947 92.3417V92.3397ZM14.1961 124.446C10.9724 133.692 10.7161 143.401 14.8992 152.081C19.0843 160.763 26.8387 166.604 36.0729 169.826L43.9763 147.165C39.249 145.516 37.3123 143.309 36.5178 141.661C35.7213 140.008 35.197 137.106 36.8555 132.351L14.1941 124.446H14.1961ZM36.0729 169.826L68.179 181.025L76.0824 158.363L43.9763 147.165L36.0729 169.826ZM68.179 181.025C77.4132 184.246 87.1161 184.493 95.7882 180.306C104.46 176.119 110.3 168.368 113.522 159.132L90.8603 151.229C89.2116 155.956 87.0029 157.897 85.3543 158.693C83.7037 159.49 80.8117 160.012 76.0844 158.363L68.181 181.025H68.179ZM113.522 159.134L124.734 126.99L102.073 119.087L90.8603 151.231L113.522 159.134ZM124.722 127.022C127.972 117.79 128.236 108.081 124.051 99.4009C119.868 90.7248 112.111 84.8832 102.879 81.6635L94.9758 104.325C99.7051 105.975 101.64 108.182 102.432 109.823C103.221 111.46 103.743 114.34 102.083 119.057L124.722 127.024V127.022ZM62.7108 102.696C64.8679 107.163 63.0087 112.496 58.5396 114.653L48.1038 93.0408C40.6354 96.6459 37.4911 105.662 41.0962 113.13L62.7088 102.696H62.7108ZM58.5396 114.653C59.2229 114.324 60.1803 114.608 60.5636 115.394L82.1366 104.877C75.999 92.288 60.7702 86.9271 48.1038 93.0408L58.5396 114.653ZM60.5438 115.353C58.3867 110.885 60.2478 105.552 64.7149 103.395L75.1488 125.008C82.6172 121.403 85.7615 112.387 82.1564 104.919L60.5438 115.353ZM64.7149 103.395C66.9555 102.313 69.4423 102.269 71.5577 103.006L63.6543 125.667C67.2256 126.913 71.357 126.839 75.1508 125.008L64.7169 103.395H64.7149ZM71.5577 103.006C73.6711 103.743 75.5918 105.326 76.6723 107.566L55.0597 118.002C56.891 121.796 60.081 124.422 63.6523 125.667L71.5557 103.006H71.5577ZM76.6723 107.566C72.0165 97.9251 60.3948 93.8711 50.7515 98.5249L61.1853 120.138C58.8912 121.246 56.166 120.296 55.0577 118L76.6703 107.564L76.6723 107.566ZM50.5707 98.6163C55.1173 96.3261 60.663 98.2588 62.7982 102.881L41.0108 112.947C44.5682 120.646 53.7944 123.866 61.3701 120.048L50.5707 98.6143V98.6163ZM79.1035 142.555L51.4864 132.921L43.583 155.583L71.2001 165.216L79.1035 142.555ZM51.4864 132.921C55.1173 134.186 56.9188 138.119 55.7052 141.595L33.0438 133.692C29.9313 142.614 34.5812 152.444 43.581 155.583L51.4844 132.921H51.4864ZM55.7052 141.595C57.1214 137.535 61.6104 135.368 65.6703 136.785L73.5737 114.123C56.9983 108.341 38.8259 117.114 33.0438 133.692L55.7052 141.595ZM65.6703 136.785C69.7303 138.201 71.8973 142.69 70.4811 146.75L93.1425 154.653C98.9245 138.078 90.1512 119.905 73.5737 114.123L65.6703 136.785ZM70.5387 146.589C71.7781 143.192 75.4984 141.299 79.1035 142.555L71.2001 165.216C80.1741 168.346 89.8969 163.555 93.0849 154.816L70.5387 146.589ZM89.1104 111.906C93.5775 109.749 98.9106 111.609 101.068 116.078L79.4551 126.513C83.0602 133.982 92.0759 137.126 99.5442 133.521L89.1104 111.908V111.906ZM101.068 116.078C96.4119 106.436 84.7902 102.382 75.1469 107.036L85.5807 128.649C83.2866 129.757 80.5614 128.808 79.4531 126.512L101.066 116.076L101.068 116.078ZM75.1469 107.036C77.3874 105.954 79.8742 105.91 81.9896 106.647L74.0862 129.308C77.6575 130.554 81.7889 130.48 85.5827 128.649L75.1488 107.036H75.1469ZM81.9896 106.647C84.103 107.384 86.0237 108.967 87.1042 111.207L65.4916 121.641C67.3229 125.435 70.5129 128.061 74.0842 129.308L81.9876 106.647H81.9896ZM87.1042 111.207C89.2613 115.674 87.4022 121.008 82.933 123.165L72.4972 101.552C65.0288 105.157 61.8845 114.173 65.4896 121.641L87.1022 111.207H87.1042ZM82.933 123.165C83.6163 122.835 84.5737 123.119 84.9571 123.906L106.53 113.388C100.392 100.799 85.1636 95.4383 72.4972 101.552L82.933 123.165ZM84.8498 123.681C82.8933 119.448 84.5399 114.111 89.1084 111.906L99.5423 133.519C107.11 129.866 110.014 120.922 106.637 113.613L84.8498 123.679V123.681Z" fill="#7000FF"/>
<path d="M98.9259 92.9913L66.782 81.7788C52.8205 76.9084 41.5921 82.329 36.7218 96.2905L25.5232 128.397C20.6389 142.398 26.0595 153.624 40.0229 158.495L72.1291 169.693C86.0906 174.564 97.319 169.143 102.189 155.181L113.402 123.038C118.31 109.088 112.889 97.8616 98.9278 92.9913H98.9259ZM51.9009 107.912C51.1759 106.413 51.8194 104.571 53.3191 103.846C59.9929 100.625 68.087 103.447 71.3465 110.135C72.0715 111.634 71.4279 113.476 69.9283 114.201C69.1516 114.576 68.3293 114.59 67.6003 114.336C66.8714 114.082 66.2358 113.559 65.8624 112.782C64.0886 109.11 59.6394 107.557 55.9668 109.33C54.4532 110.093 52.6119 109.452 51.9009 107.912ZM75.1482 153.882L47.5311 144.249C44.8456 143.312 43.4215 140.364 44.3729 137.641C47.972 127.322 59.3017 121.852 69.6204 125.451C79.9391 129.05 85.4093 140.38 81.8101 150.698C80.8349 153.37 77.8336 154.818 75.1502 153.882H75.1482ZM94.3257 122.71C92.826 123.435 90.9847 122.791 90.2598 121.292C88.486 117.619 84.0368 116.066 80.3641 117.84C79.5875 118.215 78.7652 118.229 78.0362 117.975C77.3073 117.72 76.6717 117.198 76.2982 116.421C75.5732 114.922 76.2168 113.08 77.7164 112.355C84.3903 109.134 92.4844 111.956 95.7438 118.644C96.4549 120.183 95.8253 121.985 94.3257 122.71Z" fill="#FCDC4D"/>
</svg>
