<svg width="564" height="165" viewBox="0 0 564 165" fill="none" xmlns="http://www.w3.org/2000/svg">
<path d="M72.1019 51.2572L495.759 13.5344L494.577 0.253473L70.9198 37.9763L72.1019 51.2572ZM504.628 113.14L80.9714 150.863L82.1535 164.144L505.811 126.421L504.628 113.14ZM80.9714 150.863C53.4661 153.312 29.1833 133 26.7338 105.494L13.4529 106.676C16.5548 141.516 47.3133 167.245 82.1535 164.143L80.9714 150.862V150.863ZM549.997 58.9025C552.446 86.4078 532.134 110.691 504.628 113.14L505.811 126.421C540.651 123.319 566.38 92.5606 563.278 57.7204L549.997 58.9025ZM495.759 13.5344C523.264 11.0849 547.547 31.3972 549.997 58.9025L563.278 57.7204C560.176 22.8801 529.417 -2.84851 494.577 0.253473L495.759 13.5344ZM70.9186 37.9763C36.0784 41.0783 10.3497 71.8367 13.4517 106.677L26.7326 105.495C24.2831 77.9896 44.5955 53.7068 72.1008 51.2572L70.9186 37.9763Z" fill="#FCDC4D"/>
<path d="M20.093 106.086C17.3173 74.9125 40.3384 47.3924 71.5105 44.6167L495.168 6.89382C526.341 4.11806 553.861 27.1392 556.637 58.3113C559.412 89.4847 536.393 117.005 505.219 119.78L81.5622 157.503C50.3888 160.279 22.8688 137.259 20.093 106.086Z" fill="#EF2D56"/>
<path d="M152.042 96.0775L176.279 93.9189L178.55 119.418L171.113 120.081L169.764 115.449L169.166 115.502C168.09 116.937 166.119 118.361 163.255 119.776C160.432 121.142 157.05 122.002 153.11 122.353C145.187 123.059 138.755 121.489 133.817 117.646C128.874 113.757 126.096 108.36 125.481 101.455C124.842 94.2838 126.798 88.1753 131.345 83.1296C135.89 78.0396 142.19 75.1365 150.247 74.4193C156.932 73.8237 162.485 74.8023 166.906 77.353C171.372 79.9003 174.154 83.3342 175.253 87.6536L164.761 88.5879C163.779 86.5783 162.086 85.1006 159.682 84.1538C157.317 83.1603 154.431 82.8147 151.022 83.1182C145.621 83.5991 141.525 85.4587 138.736 88.6959C135.941 91.89 134.755 95.8547 135.177 100.592C135.575 105.064 137.311 108.523 140.385 110.971C143.459 113.42 147.696 114.403 153.097 113.922C157.701 113.512 161.35 112.406 164.045 110.604C166.74 108.803 167.962 106.485 167.71 103.652L167.568 102.059L152.693 103.383L152.043 96.0786L152.042 96.0775Z" fill="white"/>
<path d="M188.616 81.0416C187.111 81.1757 185.755 80.7381 184.55 79.7298C183.345 78.7216 182.679 77.5099 182.553 76.0925C182.415 74.5432 182.852 73.1883 183.865 72.0266C184.876 70.866 186.136 70.2181 187.641 70.084C189.101 69.9544 190.411 70.3727 191.568 71.3412C192.725 72.3096 193.373 73.5679 193.511 75.1172C193.64 76.5778 193.224 77.9089 192.26 79.1104C191.292 80.2675 190.078 80.9108 188.617 81.0416H188.616ZM187.279 118.642L184.323 85.4394L193.487 84.6232L196.443 117.824L187.279 118.641V118.642Z" fill="white"/>
<path d="M225.303 81.7907L225.947 89.029L215.721 89.9395L218.033 115.903L208.803 116.725L206.491 90.7613L198.589 91.4649L197.944 84.2266L205.846 83.523L205.586 80.6006C205.267 77.0155 206.153 74.192 208.246 72.1312C210.378 70.0227 213.237 68.8087 216.823 68.4893C219.125 68.2847 221.463 68.4779 223.836 69.0701L222.9 75.847C221.629 75.6038 220.396 75.5344 219.2 75.6413C217.784 75.7674 216.664 76.2244 215.842 77.011C215.06 77.7498 214.732 78.8274 214.858 80.2437L215.076 82.7012L225.303 81.7907Z" fill="white"/>
<path d="M250.574 113.674C246.59 114.029 243.607 113.357 241.627 111.66C239.687 109.914 238.581 107.513 238.309 104.459L236.848 88.0581L228.614 88.7913L227.97 81.553L231.224 81.2631C233.261 81.0824 234.664 80.555 235.434 79.6831C236.245 78.7636 236.569 77.3961 236.407 75.5809L236.034 71.3979L244.535 70.6409L245.369 80.0037L255.462 79.1046L256.107 86.3429L246.013 87.242L247.332 102.049C247.388 102.669 247.479 103.196 247.607 103.632C247.734 104.066 247.977 104.535 248.334 105.039C248.688 105.498 249.23 105.829 249.962 106.031C250.738 106.23 251.658 106.281 252.72 106.187C253.871 106.085 255.118 105.818 256.463 105.384L257.083 112.357C255.091 113.025 252.921 113.464 250.575 113.673L250.574 113.674Z" fill="white"/>
<path d="M281.434 110.927C275.237 111.479 270.138 110.349 266.14 107.536C262.186 104.721 259.982 100.767 259.53 95.6761C259.065 90.452 260.593 86.0769 264.117 82.5509C267.636 78.9795 272.34 76.9324 278.228 76.4083C283.23 75.9628 287.603 76.7118 291.345 78.6533C295.131 80.5913 297.5 83.6376 298.45 87.7921L289.221 88.614C288.6 87.1522 287.362 86.036 285.509 85.263C283.652 84.4469 281.462 84.1514 278.938 84.3753C275.618 84.6708 273.017 85.7723 271.134 87.6808C269.296 89.5847 268.505 91.9751 268.76 94.8532C269.008 97.6426 270.18 99.7693 272.274 101.233C274.412 102.694 277.23 103.269 280.727 102.958C286.039 102.485 289.185 100.732 290.165 97.6994L299.395 96.8776C299.119 100.784 297.374 103.995 294.163 106.513C290.947 108.987 286.705 110.456 281.437 110.926L281.434 110.927Z" fill="white"/>
<path d="M342.927 97.9553L343.789 97.878L344.393 104.651L340.542 104.995C336.646 105.341 333.968 104.085 332.509 101.226C329.979 104.887 325.482 107.004 319.019 107.581C314.636 107.971 311.088 107.461 308.375 106.052C305.657 104.598 304.153 102.234 303.861 98.9579C303.585 95.8593 304.435 93.3734 306.41 91.5024C308.43 89.6269 311.265 88.3925 314.914 87.8003L329.755 85.3416L329.678 84.4789C329.52 82.708 328.691 81.4212 327.192 80.6176C325.692 79.814 323.703 79.523 321.224 79.7435C316.532 80.1618 313.975 82.018 313.555 85.3121L304.391 86.1282C304.51 82.459 306.001 79.4036 308.863 76.9621C311.724 74.5205 315.634 73.0792 320.592 72.6381C325.639 72.1892 329.855 72.9291 333.239 74.8581C336.623 76.787 338.506 79.8992 338.889 84.1936L339.877 95.283C340.051 97.2313 341.067 98.1224 342.925 97.9565L342.927 97.9553ZM330.4 92.5777L330.306 91.5149L317.839 93.5621C314.457 94.1759 312.863 95.5444 313.051 97.6689C313.257 99.9706 315.374 100.943 319.402 100.584C322.545 100.305 325.218 99.5092 327.421 98.1974C329.621 96.8414 330.614 94.9681 330.402 92.5777H330.4Z" fill="white"/>
<path d="M349.073 104.234L346.116 71.033L354.416 70.2942L355.705 74.9989L356.303 74.9454C357.55 72.9153 358.955 71.407 360.518 70.4203C362.077 69.3894 364.295 68.746 367.173 68.4891L370.161 68.2231L370.983 77.4529C369.724 77.3427 368.276 77.3597 366.638 77.5052C363.229 77.8087 360.682 79.017 358.996 81.1301C357.35 83.1954 356.674 85.8655 356.965 89.1414L358.235 103.418L349.072 104.234H349.073Z" fill="white"/>
<path d="M401.988 52.0029L411.151 51.1868L415.349 98.3338L407.779 99.0078L406.573 95.2329L406.042 95.2807C403.388 98.5509 399.472 100.416 394.292 100.878C388.758 101.37 384.127 100.221 380.399 97.4301C376.71 94.5907 374.629 90.5146 374.156 85.2018C373.683 79.889 375.06 75.5503 378.285 72.1846C381.506 68.7745 385.817 66.8286 391.218 66.3477C396.22 65.9022 400.32 66.8536 403.519 69.2008L401.988 52.0018V52.0029ZM394.911 92.7914C398.187 92.5004 400.702 91.4285 402.456 89.5768C404.21 87.7252 404.959 85.3609 404.702 82.4829C404.45 79.6491 403.299 77.4985 401.25 76.0299C399.24 74.5136 396.576 73.9032 393.256 74.1988C389.935 74.4943 387.398 75.5685 385.644 77.4201C383.891 79.2717 383.138 81.5917 383.386 84.3811C383.642 87.2592 384.797 89.4541 386.851 90.967C388.904 92.4799 391.59 93.088 394.911 92.7925V92.7914Z" fill="white"/>
<path d="M439.214 96.8778C433.636 97.3745 429.253 96.7607 426.066 95.0364C422.879 93.3121 420.966 90.6272 420.329 86.9808L429.36 86.176C430.397 89.2962 433.46 90.6295 438.551 90.1771C443.023 89.7793 445.161 88.4948 444.968 86.326C444.881 85.3519 444.325 84.621 443.3 84.1323C442.275 83.6435 440.591 83.2809 438.25 83.0422L431.914 82.5352C424.769 81.9669 420.974 79.1809 420.528 74.1784C420.237 70.9025 421.404 68.2324 424.031 66.1694C426.702 64.1018 430.23 62.873 434.613 62.4831C439.659 62.0342 443.617 62.64 446.487 64.3041C449.402 65.9636 451.219 68.345 451.942 71.4481L442.778 72.2642C441.938 69.8408 439.415 68.8156 435.209 69.1907C431.225 69.5453 429.326 70.7627 429.511 72.8439C429.601 73.8624 430.132 74.5512 431.1 74.9115C432.065 75.2275 433.65 75.4878 435.855 75.6924L442.325 76.1869C449.611 76.8325 453.498 79.8993 453.987 85.3894C454.287 88.754 453.051 91.407 450.278 93.3496C447.55 95.2876 443.863 96.464 439.214 96.8778Z" fill="white"/>
<path d="M65.8999 44.2269L69.6066 37.1375L65.8999 44.2269ZM12.5148 60.9508L19.6043 64.6575L12.5148 60.9508ZM30.2288 114.854L26.7085 122.038L26.7244 122.046L30.2288 114.854ZM82.0691 98.6134L89.0506 102.52L89.054 102.513L82.0691 98.6134ZM69.4122 91.491L76.4039 95.3785L76.421 95.3478L76.438 95.3171L69.4122 91.4899V91.491ZM36.5589 101.782L32.9727 108.933L33.0034 108.949L33.0352 108.964L36.5589 101.782ZM35.1949 97.8246L28.0441 94.2384L28.0122 94.3009L27.9816 94.3645L35.1949 97.8246ZM39.1528 96.4606L42.6594 89.27L42.6367 89.2586L42.614 89.2472L39.1528 96.4594V96.4606ZM64.2449 88.6005L57.2873 84.6517L57.2748 84.6744L57.2623 84.6971L64.2449 88.6005ZM68.2744 87.4627L64.3256 94.4202L64.387 94.4543L64.4484 94.4884L68.2756 87.4627H68.2744ZM69.6077 37.1386C46.3468 24.9751 17.5889 33.9844 5.4265 57.2453L19.6054 64.6587C27.6735 49.2283 46.764 43.2483 62.1943 51.3164L69.6077 37.1375V37.1386ZM5.4265 57.2453C-6.9553 80.9234 2.57799 110.215 26.7096 122.039L33.749 107.672C17.7049 99.8104 11.3918 80.3652 19.6054 64.6598L5.4265 57.2464V57.2453ZM26.7255 122.047C49.0919 132.946 76.9007 124.234 89.0517 102.522L75.0899 94.709C67.082 109.017 48.4747 114.847 33.7343 107.665L26.7255 122.048V122.047ZM89.0551 102.516C102.172 79.0228 93.2881 49.5216 69.6089 37.1398L62.1955 51.3187C77.8998 59.5311 83.8071 79.0967 75.0865 94.7158L89.0563 102.516H89.0551ZM62.4217 87.6059C60.3166 91.3921 56.7588 94.1486 52.6144 95.4478L57.3976 110.716C65.1577 108.284 72.1607 103.017 76.4062 95.3807L62.4228 87.6059H62.4217ZM52.6144 95.4478C48.469 96.7459 43.9757 96.5117 40.0849 94.6032L33.0363 108.967C40.8794 112.816 49.6364 113.148 57.3964 110.717L52.6133 95.4489L52.6144 95.4478ZM40.1474 94.6339C42.5696 95.849 43.5995 98.8078 42.4094 101.287L27.9838 94.3657C25.3922 99.766 27.6064 106.244 32.9738 108.936L40.1463 94.6339H40.1474ZM42.348 101.413C41.1329 103.835 38.1741 104.865 35.695 103.675L42.6162 89.2495C37.2148 86.6579 30.738 88.8721 28.0463 94.2395L42.348 101.412V101.413ZM35.6484 103.652C48.3849 109.863 64.2722 104.952 71.2298 92.5049L57.2646 84.6983C54.465 89.7065 47.7983 91.7763 42.6628 89.2711L35.6496 103.652H35.6484ZM71.2036 92.5504C69.8862 94.8715 66.8706 95.865 64.3267 94.4202L72.2244 80.5051C66.8615 77.461 60.2063 79.5116 57.2896 84.6517L71.2036 92.5504ZM64.4484 94.4884C61.8079 93.0506 61.1759 89.8883 62.3876 87.665L76.438 95.3182C79.2252 90.202 77.6349 83.4513 72.1005 80.4369L64.4472 94.4873L64.4484 94.4884Z" fill="white"/>
<path d="M65.8997 44.2268C46.5535 34.1104 22.6299 41.6045 12.5146 60.9507C2.21749 80.6425 10.1413 105.012 30.2286 114.854C48.7825 123.895 71.99 116.624 82.0689 98.6133C92.9878 79.058 85.5926 54.524 65.8997 44.2268ZM69.412 91.4909C66.2362 97.2027 60.9563 101.214 55.0036 103.079C49.0508 104.945 42.4251 104.662 36.5587 101.782C35.0867 101.044 34.4945 99.2851 35.1947 97.8245C35.9336 96.3525 37.692 95.7591 39.1526 96.4605C48.0892 100.818 59.3661 97.3277 64.2447 88.6003C65.0449 87.1909 66.8648 86.6623 68.2742 87.4625C69.7212 88.2503 70.1998 90.0451 69.412 91.4921V91.4909Z" fill="#EF2D56"/>
</svg>
