<svg width="42" height="42" viewBox="0 0 42 42" fill="none" xmlns="http://www.w3.org/2000/svg">
<path d="M24.257 5.77098C23.6566 1.4097 17.3531 1.40964 16.7527 5.77098L16.1663 10.0307L12.7396 7.43328C9.23115 4.77393 4.7739 9.23111 7.43328 12.7396L10.0307 16.1663L5.77098 16.7527C1.40969 17.3531 1.40966 23.6566 5.77098 24.257L10.0307 24.8434L7.43328 28.2701C4.77392 31.7786 9.23113 36.2358 12.7396 33.5764L16.1663 30.979L16.7527 35.2387C17.3531 39.6 23.6566 39.6 24.257 35.2387L24.8434 30.979L28.2701 33.5764C31.7786 36.2358 36.2358 31.7786 33.5764 28.2701L30.979 24.8434L35.2387 24.257C39.6 23.6566 39.6 17.3531 35.2387 16.7527L30.979 16.1663L33.5764 12.7396C36.2358 9.23115 31.7786 4.77389 28.2701 7.43328L24.8434 10.0307L24.257 5.77098Z" fill="#EF2D56" stroke="white" stroke-width="5"/>
</svg>
