<svg width="364" height="364" viewBox="0 0 364 364" fill="none" xmlns="http://www.w3.org/2000/svg">
<circle cx="182" cy="182" r="181" stroke="white" stroke-width="2"/>
<path d="M138.492 207.958L138.481 207.963L131.911 210.956C131.911 210.956 131.91 210.956 131.91 210.956C128.645 212.45 125 212.93 122.521 210.677C120.063 208.444 120.131 204.765 121.238 201.322L134.133 161.186C143.695 131.424 175.453 114.704 204.785 124.129C234.121 133.554 250.185 165.638 240.841 195.452L240.838 195.461L240.835 195.469L227.94 235.606C226.834 239.049 224.746 242.079 221.448 242.463C218.12 242.849 215.437 240.336 213.653 237.221C213.653 237.22 213.653 237.22 213.653 237.22L210.055 230.96L210.049 230.949C209.365 229.744 207.712 229.213 206.454 229.794L206.449 229.796L193.289 235.834C193.288 235.835 193.286 235.835 193.285 235.836L193.284 235.837L192.242 233.564C189.804 234.689 186.752 233.709 185.425 231.374L138.492 207.958ZM138.492 207.958C139.751 207.377 141.403 207.908 142.088 209.113L142.091 209.118L149.271 221.691L138.492 207.958ZM165.283 180.134L165.289 180.142C173.997 192.453 190.016 197.6 204.265 192.665L204.275 192.662C205.03 192.397 205.899 192.796 206.184 193.61C206.449 194.363 206.052 195.23 205.242 195.518C197.51 198.176 189.281 198.11 181.789 195.703C174.298 193.296 167.57 188.556 162.834 181.892C162.343 181.186 162.525 180.251 163.179 179.792C163.885 179.297 164.824 179.479 165.283 180.134ZM195.705 152.391C201.054 154.11 204.025 159.894 202.307 165.243C200.588 170.593 194.804 173.564 189.455 171.845C184.105 170.126 181.134 164.342 182.853 158.993C184.572 153.643 190.356 150.672 195.705 152.391Z" stroke="white" stroke-width="5"/>
<path d="M111.809 302.635C113.101 299.813 115.215 298.229 118.153 297.884C121.091 297.539 124.291 298.159 127.754 299.743C131.741 301.567 134.474 303.785 135.953 306.397C137.403 308.996 137.601 311.832 136.548 314.904L132.445 313.027C133.432 308.869 131.336 305.605 126.157 303.235C123.8 302.156 121.72 301.663 119.919 301.753C118.105 301.873 116.812 302.777 116.039 304.465C115.693 305.222 115.547 305.964 115.601 306.693C115.641 307.45 115.793 308.118 116.057 308.696C116.291 309.26 116.713 309.876 117.323 310.542C117.934 311.208 118.467 311.734 118.924 312.119C119.382 312.504 119.986 312.992 120.736 313.582L124.194 316.061C125.267 316.869 126.19 317.66 126.961 318.436C127.69 319.227 128.38 320.141 129.032 321.178C129.654 322.202 130.008 323.313 130.092 324.513C130.148 325.7 129.896 326.904 129.337 328.126C128.125 330.774 126.067 332.349 123.164 332.85C120.217 333.368 117.013 332.834 113.55 331.25C110 329.625 107.529 327.527 106.137 324.955C104.716 322.369 104.504 319.756 105.501 317.115L109.647 319.013C109.175 320.661 109.38 322.251 110.263 323.781C111.133 325.34 112.762 326.666 115.148 327.758C117.446 328.809 119.508 329.225 121.334 329.004C123.13 328.771 124.374 327.897 125.066 326.384C125.413 325.627 125.544 324.878 125.461 324.136C125.349 323.381 125.016 322.648 124.462 321.937C123.878 321.213 123.32 320.588 122.786 320.062C122.239 319.565 121.51 318.968 120.598 318.269L117.076 315.813C111.475 311.596 109.719 307.204 111.809 302.635Z" fill="white"/>
<path d="M96.8049 279.882C100.113 282.71 101.98 285.821 102.404 289.215C102.784 292.612 101.81 295.673 99.4811 298.397C97.0901 301.195 94.1402 302.652 90.6313 302.768C87.1224 302.884 83.7746 301.58 80.5879 298.856C78.0581 296.694 76.4164 294.281 75.6629 291.616C74.8643 288.955 75.154 286.424 76.532 284.024L79.7795 286.8C79.2053 288.161 79.1987 289.671 79.7599 291.329C80.2759 292.991 81.3732 294.539 83.0517 295.974C85.314 297.907 87.6668 298.824 90.1101 298.723C92.5292 298.602 94.5703 297.568 96.2336 295.622C97.8761 293.7 98.5725 291.58 98.3228 289.262C98.0279 286.947 96.7007 284.782 94.3411 282.765C92.6627 281.33 91.0145 280.427 89.3965 280.054C87.7785 279.682 86.2846 279.878 84.9147 280.644L81.6307 277.837C83.7075 276.244 86.1102 275.625 88.8389 275.978C91.5224 276.336 94.1777 277.637 96.8049 279.882Z" fill="white"/>
<path d="M80.8979 264.503L61.6944 278.898L59.42 275.864L61.8877 273.474L61.6862 273.206C60.1694 273.263 58.787 273.019 57.5392 272.475C56.2721 271.905 55.0436 270.826 53.8535 269.239L52.8171 267.856L56.2737 265.265C56.5424 265.784 57.003 266.478 57.6556 267.349C58.9608 269.09 60.5989 270.101 62.5701 270.383C64.522 270.64 66.5094 270.01 68.5321 268.494L78.3643 261.123L80.8979 264.503Z" fill="white"/>
<path d="M40.8744 255.607C41.6115 255.827 42.1626 256.275 42.5275 256.95C42.8925 257.626 42.9725 258.347 42.7675 259.112C42.5474 259.849 42.0994 260.4 41.4237 260.765C40.7479 261.13 40.0415 261.203 39.3043 260.982C38.5519 260.734 37.9933 260.272 37.6283 259.596C37.2634 258.921 37.191 258.214 37.4112 257.477C37.6032 256.755 38.0511 256.204 38.755 255.824C39.4308 255.459 40.1372 255.386 40.8744 255.607ZM68.0271 245.58L46.9099 256.984L44.9027 253.267L66.0199 241.863L68.0271 245.58Z" fill="white"/>
<path d="M60.0165 232.339L36.7816 238.351L35.8197 234.633L38.6511 233.504L38.567 233.179C35.8566 232.029 34.1046 229.921 33.3111 226.854C32.8061 224.902 32.8155 223.214 33.3393 221.789C33.8632 220.364 34.6301 219.24 35.6401 218.417L35.5559 218.092C32.2799 217.056 30.1729 214.725 29.2351 211.1C28.5458 208.436 28.7247 206.126 29.772 204.169C30.7883 202.22 32.7215 200.877 35.5716 200.14L50.6743 196.232L51.7324 200.321L37.4197 204.025C35.4989 204.522 34.1986 205.436 33.5188 206.769C32.831 208.071 32.6994 209.543 33.1243 211.185C33.5972 213.013 34.5591 214.367 36.0099 215.248C37.4528 216.097 39.1965 216.258 41.2412 215.729L54.8103 212.218L55.8804 216.354L41.893 219.973C39.9103 220.486 38.5481 221.416 37.8063 222.765C37.0255 224.091 36.8475 225.575 37.2723 227.217C37.7052 228.89 38.6241 230.206 40.029 231.164C41.4029 232.131 43.1432 232.342 45.2498 231.797L58.9584 228.25L60.0165 232.339Z" fill="white"/>
<path d="M53.282 159.409C52.9807 161.596 52.2169 163.155 50.9906 164.084C49.7643 165.013 48.2001 165.347 46.2981 165.085L31.5573 163.054L30.7647 168.808L27.341 168.336L27.6489 166.102C27.8454 164.675 27.7135 163.639 27.2532 162.994C26.7929 162.35 25.8812 161.933 24.5181 161.746L21.5224 161.333L22.053 157.481L28.7101 158.398L29.6534 151.551L33.077 152.023L32.1338 158.87L46.1137 160.796C48.3645 161.106 49.6514 160.088 49.9746 157.742C50.0925 156.886 50.1016 155.999 50.002 155.081L53.283 155.533C53.4701 156.754 53.4698 158.046 53.282 159.409Z" fill="white"/>
<path d="M59.9885 134.822C58.4944 138.739 56.1884 141.507 53.0705 143.126C49.9342 144.703 46.6768 144.848 43.2982 143.559C39.8898 142.259 37.5563 139.981 36.2975 136.727C35.0502 133.443 35.1736 129.842 36.6678 125.926C38.1505 122.039 40.4658 119.292 43.6135 117.684C46.7314 116.065 49.9795 115.9 53.358 117.189C56.7366 118.477 59.0644 120.77 60.3416 124.065C61.5889 127.35 61.4712 130.935 59.9885 134.822ZM51.5472 139.308C53.7406 138.227 55.3734 136.281 56.4455 133.47C57.5177 130.66 57.5957 128.121 56.6797 125.854C55.7638 123.586 54.1547 122.013 51.8525 121.135C49.5503 120.257 47.3025 120.358 45.1091 121.44C42.9157 122.521 41.2829 124.467 40.2107 127.277C39.1386 130.088 39.0605 132.627 39.9765 134.894C40.9039 137.131 42.5187 138.689 44.8209 139.568C47.1231 140.446 49.3652 140.359 51.5472 139.308Z" fill="white"/>
<path d="M64.3718 79.2953L64.8621 94.3039L83.7912 93.398L80.8296 97.4761L64.9813 98.3057L65.1939 104.63L72.0295 109.594L69.5475 113.012L41.9719 92.9857L44.454 89.5679L61.077 101.64L61.2744 101.368L60.9307 84.0336L64.3718 79.2953Z" fill="white"/>
<path d="M100.988 61.8902C101.171 62.113 101.481 62.5417 101.918 63.1764L84.9846 77.0456C86.6292 78.8009 88.5513 79.7084 90.7511 79.768C92.9508 79.8277 95.1647 78.945 97.3928 77.1202C100.71 74.4031 101.948 71.6725 101.107 68.9284L104.338 66.2823C105.347 68.4747 105.436 70.7802 104.605 73.1988C103.777 75.5723 102.113 77.783 99.613 79.831C96.37 82.4872 93.0733 83.7396 89.723 83.5882C86.3727 83.4369 83.5215 81.9254 81.1694 79.0537C78.7565 76.1077 77.7856 72.9527 78.2566 69.5887C78.7074 66.1999 80.4677 63.2484 83.5374 60.7341C86.3596 58.4226 89.3581 57.311 92.5328 57.3994C95.7322 57.4676 98.5507 58.9645 100.988 61.8902ZM85.7577 63.4449C83.7525 65.0873 82.5365 66.9105 82.1097 68.9146C81.683 70.9187 81.9969 72.7918 83.0515 74.5339L96.7169 63.3413C95.3247 61.7929 93.639 61.0227 91.6599 61.0305C89.7056 61.018 87.7382 61.8228 85.7577 63.4449Z" fill="white"/>
<path d="M117.322 66.486L107.479 44.5973L110.982 43.0224L112.69 45.8856L112.997 45.7478C113.828 42.6022 115.95 40.2617 119.365 38.7262C122.284 37.4138 124.979 37.1665 127.452 37.9843C129.912 38.7728 131.811 40.6555 133.15 43.6324L139.036 56.7219L135.14 58.4739L129.667 46.3038C128.643 44.0273 127.291 42.6182 125.608 42.0765C123.913 41.5055 122.044 41.6794 120.001 42.5981C117.87 43.5561 116.388 44.9418 115.555 46.7552C114.708 48.5394 114.823 50.6281 115.899 53.0213L121.175 64.7537L117.322 66.486Z" fill="white"/>
<path d="M159.706 52.4115C156.21 53.0369 153.367 52.8627 151.177 51.889C149.013 50.8782 147.601 49.164 146.941 46.7464L151.099 46.0027C152.133 48.8736 154.808 49.9231 159.123 49.1513C163.124 48.4358 164.918 46.9283 164.507 44.6288C164.158 42.6758 162.123 41.6581 158.402 41.5759L154.512 41.6377C153.465 41.5975 152.54 41.519 151.739 41.4022C150.933 41.2539 150.109 41.0111 149.269 40.6738C148.422 40.305 147.727 39.7792 147.182 39.0965C146.638 38.4137 146.272 37.5526 146.086 36.5131C145.709 34.4026 146.311 32.5882 147.892 31.0701C149.468 29.5205 151.673 28.4921 154.508 27.9851C157.69 27.4161 160.263 27.6224 162.226 28.604C164.184 29.5542 165.482 30.9961 166.12 32.93L161.915 33.6821C160.957 31.4153 158.698 30.6003 155.139 31.2369C153.469 31.5355 152.181 32.0584 151.275 32.8057C150.362 33.5215 150.008 34.4464 150.211 35.5804C150.312 36.1474 150.51 36.6159 150.803 36.986C151.123 37.3189 151.592 37.5765 152.209 37.7585C152.821 37.9091 153.362 38.0237 153.831 38.1024C154.326 38.1439 155.016 38.1831 155.9 38.2199L159.798 38.2054C165.013 38.2805 167.95 40.1608 168.609 43.8463C169.021 46.1458 168.38 48.0158 166.687 49.4564C165.026 50.8913 162.699 51.8763 159.706 52.4115Z" fill="white"/>
<path d="M223.707 46.8907C223.072 49.9292 221.361 51.9418 218.572 52.9286C215.783 53.9154 212.525 54.0195 208.798 53.2411C204.506 52.3449 201.35 50.7868 199.329 48.5668C197.34 46.3534 196.519 43.6321 196.866 40.4029L201.283 41.3253C201.24 45.5988 204.007 48.3178 209.583 49.4822C212.12 50.0121 214.257 50.0333 215.993 49.546C217.736 49.0273 218.797 47.8595 219.176 46.0427C219.346 45.2283 219.325 44.4719 219.111 43.7734C218.904 43.0437 218.608 42.4261 218.223 41.9208C217.869 41.422 217.321 40.9153 216.579 40.4006C215.836 39.886 215.2 39.4914 214.668 39.2171C214.137 38.9427 213.44 38.601 212.578 38.1921L208.657 36.5396C207.431 35.9895 206.357 35.4218 205.433 34.8366C204.547 34.2266 203.671 33.488 202.806 32.6209C201.973 31.7603 201.382 30.7543 201.034 29.6028C200.717 28.4579 200.696 27.2277 200.971 25.912C201.566 23.0615 203.224 21.0704 205.945 19.9387C208.704 18.7822 211.947 18.5932 215.675 19.3717C219.496 20.1697 222.37 21.669 224.297 23.8693C226.255 26.0762 227.041 28.5776 226.653 31.3734L222.189 30.4412C222.285 28.7287 221.733 27.224 220.533 25.9273C219.339 24.5992 217.458 23.667 214.89 23.1306C212.415 22.6138 210.312 22.665 208.581 23.2842C206.881 23.9099 205.861 25.0372 205.521 26.6661C205.351 27.4805 205.388 28.2402 205.634 28.9452C205.91 29.6567 206.397 30.2979 207.095 30.8686C207.825 31.4459 208.508 31.9318 209.144 32.3263C209.788 32.6895 210.631 33.1109 211.676 33.5904L215.653 35.2057C222.049 38.0778 224.734 41.9728 223.707 46.8907Z" fill="white"/>
<path d="M243.376 65.7572C239.524 63.7322 237.015 61.1119 235.849 57.8962C234.727 54.667 235 51.4663 236.667 48.2939C238.38 45.0366 240.934 42.963 244.33 42.073C247.726 41.1831 251.28 41.7134 254.99 43.664C257.936 45.2125 260.071 47.2027 261.396 49.6343C262.764 52.0525 263.042 54.5846 262.229 57.2304L258.448 55.2426C258.706 53.7879 258.378 52.314 257.464 50.8211C256.593 49.3148 255.18 48.0479 253.226 47.0205C250.592 45.6357 248.094 45.2628 245.734 45.9019C243.402 46.5558 241.64 48.0158 240.449 50.2817C239.273 52.5194 239.063 54.7409 239.819 56.9463C240.619 59.1383 242.393 60.9564 245.141 62.4008C247.095 63.4282 248.902 63.9445 250.563 63.9496C252.223 63.9548 253.636 63.4324 254.803 62.3826L258.627 64.3928C256.954 66.4056 254.748 67.5416 252.009 67.8008C249.313 68.0466 246.435 67.3654 243.376 65.7572Z" fill="white"/>
<path d="M262.292 77.2335L277.832 58.9441L280.722 61.3995L278.844 64.2763L279.1 64.4939C280.567 64.1022 281.969 64.0337 283.306 64.2883C284.668 64.5635 286.105 65.3435 287.617 66.6281L288.933 67.747L286.136 71.0391C285.759 70.593 285.156 70.0177 284.327 69.3132C282.669 67.9042 280.848 67.2804 278.863 67.4417C276.903 67.6237 275.104 68.6779 273.467 70.6044L265.511 79.9686L262.292 77.2335Z" fill="white"/>
<path d="M303.292 77.049C302.525 76.9975 301.888 76.6826 301.383 76.1044C300.877 75.5262 300.64 74.8413 300.67 74.0496C300.722 73.282 301.037 72.6454 301.615 72.1399C302.193 71.6345 302.866 71.4075 303.633 71.459C304.422 71.5346 305.069 71.8615 305.575 72.4397C306.08 73.0179 306.307 73.6908 306.256 74.4584C306.228 75.2049 305.913 75.8415 305.311 76.368C304.733 76.8735 304.06 77.1005 303.292 77.049ZM279.033 92.8382L297.102 77.0418L299.882 80.2219L281.813 96.0182L279.033 92.8382Z" fill="white"/>
<path d="M289.776 103.977L311.104 92.9705L312.865 96.3829L310.354 98.1109L310.508 98.4095C313.406 98.9307 315.581 100.599 317.034 103.414C317.958 105.206 318.323 106.854 318.127 108.359C317.932 109.865 317.433 111.13 316.63 112.157L316.784 112.455C320.208 112.741 322.779 114.547 324.496 117.874C325.758 120.32 326.095 122.613 325.507 124.753C324.947 126.878 323.359 128.616 320.743 129.966L306.88 137.12L304.943 133.366L318.081 126.586C319.844 125.676 320.909 124.496 321.277 123.046C321.66 121.624 321.462 120.16 320.684 118.653C319.819 116.975 318.581 115.867 316.971 115.33C315.376 114.82 313.64 115.05 311.763 116.019L299.308 122.446L297.349 118.65L310.188 112.024C312.008 111.085 313.13 109.876 313.555 108.396C314.023 106.93 313.868 105.444 313.09 103.937C312.298 102.401 311.11 101.321 309.528 100.698C307.974 100.059 306.23 100.239 304.297 101.237L291.714 107.73L289.776 103.977Z" fill="white"/>
<path d="M312.488 173.606C312.298 171.407 312.698 169.718 313.688 168.54C314.678 167.362 316.13 166.691 318.042 166.525L332.867 165.242L332.366 159.456L335.809 159.158L336.004 161.405C336.128 162.84 336.486 163.821 337.078 164.348C337.669 164.875 338.65 165.079 340.021 164.96L343.034 164.7L343.369 168.573L336.674 169.152L337.27 176.039L333.827 176.337L333.231 169.45L319.172 170.667C316.908 170.863 315.879 172.141 316.083 174.5C316.157 175.361 316.345 176.228 316.645 177.101L313.345 177.387C312.893 176.237 312.607 174.977 312.488 173.606Z" fill="white"/>
<path d="M311.391 199.068C311.981 194.918 313.617 191.708 316.299 189.439C319.009 187.206 322.153 186.344 325.733 186.853C329.345 187.367 332.125 189.071 334.073 191.966C336.016 194.892 336.693 198.431 336.103 202.581C335.517 206.7 333.868 209.891 331.154 212.156C328.472 214.425 325.341 215.305 321.761 214.796C318.181 214.287 315.403 212.567 313.428 209.636C311.485 206.709 310.806 203.187 311.391 199.068ZM318.63 192.825C316.73 194.365 315.569 196.624 315.145 199.602C314.722 202.58 315.208 205.073 316.603 207.081C317.998 209.09 319.916 210.267 322.355 210.614C324.795 210.961 326.964 210.364 328.864 208.824C330.764 207.285 331.925 205.026 332.348 202.047C332.772 199.069 332.286 196.576 330.891 194.568C329.491 192.591 327.571 191.429 325.132 191.083C322.692 190.736 320.525 191.317 318.63 192.825Z" fill="white"/>
<path d="M319.409 254.188L315.609 239.66L297.35 244.734L299.335 240.101L314.607 235.784L312.999 229.664L305.234 226.336L306.898 222.454L338.223 235.878L336.559 239.76L317.676 231.668L317.544 231.977L321.716 248.805L319.409 254.188Z" fill="white"/>
<path d="M287.553 279.267C287.326 279.09 286.929 278.74 286.362 278.218L299.805 260.945C297.813 259.597 295.737 259.137 293.579 259.566C291.421 259.995 289.457 261.346 287.688 263.619C285.055 267.003 284.452 269.94 285.88 272.43L283.315 275.725C281.845 273.811 281.248 271.582 281.523 269.039C281.805 266.542 282.938 264.017 284.923 261.467C287.498 258.158 290.435 256.207 293.736 255.613C297.037 255.019 300.152 255.862 303.081 258.142C306.086 260.481 307.732 263.342 308.017 266.727C308.327 270.132 307.264 273.4 304.827 276.531C302.587 279.41 299.909 281.158 296.793 281.774C293.658 282.416 290.578 281.58 287.553 279.267ZM302.062 274.379C303.654 272.333 304.436 270.286 304.409 268.237C304.381 266.189 303.66 264.432 302.246 262.966L291.398 276.906C293.098 278.108 294.912 278.486 296.841 278.04C298.749 277.62 300.49 276.399 302.062 274.379Z" fill="white"/>
<path d="M270.608 278.401L285.052 297.568L281.986 299.879L279.686 297.465L279.417 297.667C279.303 300.919 277.751 303.671 274.761 305.924C272.206 307.85 269.632 308.688 267.039 308.438C264.466 308.214 262.197 306.798 260.232 304.191L251.595 292.73L255.006 290.159L263.037 300.815C264.54 302.809 266.171 303.883 267.931 304.039C269.711 304.221 271.495 303.637 273.284 302.289C275.15 300.883 276.288 299.204 276.7 297.251C277.13 295.324 276.556 293.312 274.977 291.217L267.235 280.943L270.608 278.401Z" fill="white"/>
<path d="M232.39 301.509C235.661 300.125 238.472 299.666 240.823 300.131C243.157 300.638 244.913 301.997 246.092 304.208L242.202 305.854C240.558 303.283 237.718 302.852 233.68 304.56C229.937 306.143 228.521 308.01 229.431 310.162C230.204 311.989 232.414 312.531 236.06 311.787L239.84 310.866C240.87 310.673 241.789 310.545 242.596 310.482C243.416 310.448 244.273 310.502 245.167 310.645C246.074 310.818 246.868 311.176 247.551 311.722C248.233 312.267 248.78 313.026 249.191 313.998C250.027 315.973 249.841 317.875 248.635 319.706C247.441 321.566 245.518 323.057 242.866 324.179C239.889 325.438 237.335 325.807 235.203 325.284C233.083 324.791 231.498 323.672 230.447 321.928L234.382 320.263C235.818 322.262 238.201 322.556 241.531 321.148C243.093 320.487 244.234 319.692 244.952 318.762C245.684 317.862 245.825 316.882 245.376 315.821C245.151 315.29 244.855 314.877 244.487 314.581C244.101 314.327 243.587 314.18 242.945 314.139C242.314 314.128 241.762 314.136 241.287 314.163C240.795 314.232 240.114 314.347 239.243 314.506L235.445 315.383C230.343 316.465 227.063 315.281 225.604 311.833C224.694 309.682 224.905 307.716 226.237 305.937C227.539 304.169 229.59 302.694 232.39 301.509Z" fill="white"/>
</svg>
