<svg width="151" height="151" viewBox="0 0 151 151" fill="none" xmlns="http://www.w3.org/2000/svg">
<circle cx="75.125" cy="75.125" r="74.125" fill="#FCDC4D" stroke="white" stroke-width="2"/>
<path d="M62.9674 116.201C41.7843 107.898 30.916 82.7846 38.7402 60.2156C46.5645 37.6466 70.1637 26.0386 91.3465 34.3393C112.53 42.6398 123.398 67.7542 115.574 90.3232C107.75 112.893 84.1506 124.501 62.9674 116.201Z" fill="#5105B2"/>
<path d="M84.8826 41.1189C67.1721 34.1789 47.4417 43.8841 40.9002 62.7534C34.3586 81.6226 43.4452 102.621 61.1557 109.559C78.8662 116.5 98.5969 106.794 105.139 87.9256C111.68 69.0564 102.593 48.0588 84.8826 41.1189Z" fill="#7000FF"/>
<path d="M84.8818 41.119C67.1713 34.179 47.4409 43.8842 40.8994 62.7535C34.3578 81.6227 43.4444 102.621 61.1549 109.56C78.8654 116.501 98.5961 106.794 105.138 87.9257C111.679 69.0565 102.592 48.0589 84.8818 41.119ZM58.8287 116.27C37.6456 107.97 26.7773 82.8549 34.6015 60.2857C42.4258 37.7167 66.025 26.1086 87.2079 34.4093C108.391 42.7101 119.26 67.8243 111.436 90.3935C103.611 112.962 80.0119 124.571 58.8287 116.27Z" fill="#DAC4F7"/>
<path d="M36.9441 61.2037C44.6236 39.0523 67.4993 27.4622 88.3721 34.889C87.9873 34.7241 87.5999 34.5628 87.2079 34.4093C66.025 26.1086 42.4258 37.7167 34.6015 60.2857C26.7773 82.8549 37.6456 107.97 58.8287 116.27C59.2208 116.425 59.6138 116.568 60.0073 116.707C39.5937 107.957 29.2647 83.3551 36.9441 61.2037Z" fill="#DAC4F7"/>
<path d="M84.8824 41.1189C84.5391 40.9844 84.195 40.8586 83.8503 40.7363C100.887 48.0702 109.502 68.6184 103.087 87.1219C96.6725 105.625 77.5753 115.314 60.1367 109.139C60.4734 109.285 60.8122 109.426 61.1555 109.559C78.866 116.5 98.5967 106.794 105.138 87.9256C111.68 69.0564 102.593 48.0588 84.8824 41.1189Z" fill="#994AFC"/>
<path fill-rule="evenodd" clip-rule="evenodd" d="M62.2527 70.26C63.3184 67.2951 65.197 64.6304 67.714 63.7012C70.505 62.6713 73.2325 64.9455 74.5033 67.355C76.7244 71.5661 77.2425 77.7667 75.5792 82.3941C74.6197 85.0634 73.8612 86.7573 71.9245 88.5003C67.7894 92.2182 63.4265 88.0846 62.0468 83.6512C60.8556 79.8196 60.5897 74.8812 62.2503 70.2612L62.2527 70.26ZM77.0465 84.3959C76.1083 86.8563 74.6885 89.0505 72.6856 90.5669C70.5954 92.15 68.5632 92.4777 66.7365 91.9456C62.1225 90.122 59.599 85.1246 59.1949 79.9249C58.7116 73.7022 60.0619 66.546 65.1494 62.6602C65.893 62.0912 67.1324 61.5515 68.007 61.3971C74.4612 60.2624 78.0061 67.9524 78.4612 73.8053C78.7434 77.4442 78.2842 80.9526 77.0465 84.3959Z" fill="#994AFC"/>
<path fill-rule="evenodd" clip-rule="evenodd" d="M68.988 68.4955C69.9873 65.7145 71.2032 63.1518 73.221 61.5722C74.4285 60.627 75.5842 60.007 77.1369 60.1002C83.4448 60.4802 85.3034 71.4241 85.0409 76.8568C84.8604 80.5686 83.8867 84.2913 82.0125 87.4704C80.4832 90.0629 77.5236 92.7919 74.5093 91.6002C67.3568 88.7724 66.5546 75.2724 68.9896 68.4961L68.988 68.4955ZM65.9547 80.6793C66.3883 83.8709 67.0711 85.985 68.4917 88.7385C70.8603 93.3316 75.9251 95.9662 80.4121 92.4038C88.3451 86.1024 89.1308 68.21 82.6663 60.5729C79.5513 57.4171 75.7387 56.5969 71.9906 59.8571C66.5785 64.5649 65.0107 73.7474 65.953 80.6786L65.9547 80.6793Z" fill="#994AFC"/>
<path fill-rule="evenodd" clip-rule="evenodd" d="M61.1472 69.8005C62.2129 66.8356 64.0915 64.171 66.6085 63.2417C69.3995 62.2119 72.127 64.486 73.3978 66.8955C75.6189 71.1066 76.1371 77.3072 74.4737 81.9346C73.5143 84.6039 72.7558 86.2978 70.8191 88.0408C66.6839 91.7588 62.321 87.6252 60.9414 83.1917C59.7501 79.3601 59.4842 74.4217 61.1449 69.8017L61.1472 69.8005ZM75.941 83.9364C75.0029 86.3969 73.5831 88.591 71.5801 90.1074C69.4899 91.6906 67.4577 92.0182 65.631 91.4861C61.0171 89.6625 58.4935 84.6651 58.0894 79.4654C57.6061 73.2427 58.9565 66.0866 64.044 62.2007C64.7875 61.6317 66.0269 61.092 66.9015 60.9377C73.3557 59.8029 76.9006 67.493 77.3557 73.3458C77.6379 76.9848 77.1787 80.4931 75.941 83.9364Z" fill="#DAC4F7"/>
<path fill-rule="evenodd" clip-rule="evenodd" d="M67.8825 68.036C68.8818 65.255 70.0977 62.6924 72.1155 61.1128C73.323 60.1675 74.4787 59.5475 76.0314 59.6408C82.3394 60.0207 84.198 70.9646 83.9354 76.3974C83.7549 80.1091 82.7812 83.8318 80.907 87.0109C79.3777 89.6035 76.4181 92.3324 73.4038 91.1407C66.2514 88.313 65.4492 74.813 67.8842 68.0367L67.8825 68.036ZM64.8492 80.2198C65.2828 83.4114 65.9657 85.5255 67.3862 88.279C69.7549 92.8721 74.8196 95.5067 79.3067 91.9443C87.2396 85.6429 88.0254 67.7505 81.5608 60.1134C78.4458 56.9576 74.6332 56.1374 70.8851 59.3976C65.4731 64.1054 63.9052 73.2879 64.8475 80.2192L64.8492 80.2198Z" fill="#F2E8FF"/>
</svg>
