<svg width="24" height="24" viewBox="0 0 24 24" fill="none" xmlns="http://www.w3.org/2000/svg">
<path d="M0 1.47282V22.5261C0.000151898 22.5718 0.0148235 22.6164 0.042175 22.6544C0.0695266 22.6923 0.10834 22.722 0.15375 22.7395C0.199159 22.7571 0.249142 22.7618 0.297431 22.7531C0.34572 22.7444 0.390166 22.7226 0.425195 22.6906L12.2308 12L0.425195 1.30836C0.390166 1.27629 0.34572 1.25454 0.297431 1.24583C0.249142 1.23712 0.199159 1.24184 0.15375 1.25941C0.10834 1.27697 0.0695266 1.30659 0.042175 1.34456C0.0148235 1.38252 0.000151898 1.42714 0 1.47282ZM17.1809 7.6072L2.37809 0.034445L2.36886 0.0296236C2.11386 -0.0989461 1.87155 0.221407 2.0804 0.407833L13.6841 10.7106L17.1809 7.6072ZM2.08155 23.5922C1.87155 23.7786 2.11386 24.0989 2.37001 23.9704L2.37924 23.9656L17.1809 16.3928L13.6841 13.2884L2.08155 23.5922ZM23.1567 10.6607L19.023 8.54683L15.1362 12L19.023 15.4516L23.1567 13.3393C24.2811 12.7623 24.2811 11.2377 23.1567 10.6607Z" fill="#7000ff"/>
</svg>
