<svg width="125" height="33" viewBox="0 0 125 33" fill="none" xmlns="http://www.w3.org/2000/svg">
<path fill-rule="evenodd" clip-rule="evenodd" d="M1.98608 16.1293C1.98608 13.2606 2.8388 10.374 4.86045 8.74394C7.10239 6.93692 10.3854 7.95035 12.3644 9.56612C15.8232 12.3901 18.3672 17.4698 18.3672 21.9471C18.3672 24.5299 18.2286 26.2189 17.0153 28.3441C14.4233 32.8786 9.0068 30.8374 6.25323 27.5433C3.87449 24.6961 1.9843 20.6013 1.9843 16.1311L1.98608 16.1293ZM20.3924 23.1518C20.3426 25.5504 19.7582 27.8847 18.408 29.8401C16.9993 31.8812 15.2263 32.8393 13.3574 33.0001C8.4774 33.0001 4.47673 29.6113 2.37158 25.3413C-0.147498 20.2313 -1.27913 13.7164 2.13886 8.7207C2.63805 7.98968 3.60624 7.11745 4.36481 6.69384C9.96433 3.57133 15.8072 8.89944 18.1771 13.7056C19.6498 16.6941 20.3924 19.8202 20.3924 23.1518Z" fill="#5105B2"/>
<path fill-rule="evenodd" clip-rule="evenodd" d="M7.38174 12.1535C7.38174 9.45991 7.65532 6.87897 9.00013 4.86284C9.80489 3.65637 10.67 2.74304 12.141 2.30156C18.1171 0.508843 23.4875 9.16679 25.0543 13.8622C26.1238 17.0705 26.4613 20.554 25.7827 23.8785C25.2284 26.5899 23.3933 29.8965 20.201 29.8965C12.626 29.8965 7.38352 18.7166 7.38352 12.1535H7.38174ZM8.62885 23.5032C10.0945 26.0644 11.4322 27.6284 13.667 29.4872C17.3941 32.5883 22.9687 33.1245 25.9426 28.5989C31.1993 20.5951 25.9657 5.15775 17.4261 0.84844C13.4858 -0.783415 9.67698 -0.200738 7.28759 3.82081C3.83763 9.62793 5.44359 17.9409 8.62707 23.5032H8.62885Z" fill="#7000FF"/>
<path d="M43.5061 25.4371C40.9142 25.4371 38.8921 24.9691 37.4397 24.0333C36.0097 23.0757 35.2165 21.7263 35.0601 19.9852H38.6128C38.9703 21.8569 40.6014 22.7927 43.5061 22.7927C46.1203 22.7927 47.4275 22.0963 47.4275 20.7034C47.4275 20.0722 47.137 19.5717 46.5561 19.2017C45.9751 18.8099 45.0702 18.4943 43.8413 18.2549L40.9924 17.7979C39.3836 17.4932 38.0988 17.0144 37.1381 16.3615C36.1996 15.6868 35.7304 14.6748 35.7304 13.3254C35.7304 11.8019 36.3895 10.6158 37.7078 9.76696C39.0485 8.8964 40.769 8.46112 42.8693 8.46112C45.2378 8.46112 47.0588 8.91817 48.3324 9.83226C49.6284 10.7246 50.3769 11.889 50.578 13.3254H47.0253C46.6231 11.8454 45.2378 11.1055 42.8693 11.1055C40.4785 11.1055 39.2831 11.7801 39.2831 13.1295C39.2831 13.5865 39.4507 13.9674 39.7858 14.2721C40.1433 14.555 40.512 14.7509 40.8918 14.8597C41.2717 14.9686 41.8638 15.11 42.6682 15.2841L45.5841 15.7738C49.1815 16.4268 50.9802 18.0482 50.9802 20.6381C50.9802 22.2486 50.2875 23.4565 48.9022 24.2618C47.5168 25.0453 45.7182 25.4371 43.5061 25.4371Z" fill="white"/>
<path d="M63.6723 25.4371C60.6111 25.4371 58.1756 24.6536 56.3658 23.0865C54.5559 21.5195 53.651 19.5064 53.651 17.047C53.651 14.5224 54.5782 12.4657 56.4328 10.8769C58.2874 9.26639 60.6893 8.46112 63.6387 8.46112C66.0519 8.46112 68.0964 8.99434 69.7722 10.0608C71.4703 11.1272 72.487 12.6181 72.8221 14.5333H69.2024C68.9119 13.641 68.2751 12.9227 67.292 12.3786C66.3088 11.8128 65.0911 11.5299 63.6387 11.5299C61.6948 11.5299 60.1419 12.0522 58.98 13.0969C57.8181 14.1198 57.2372 15.4365 57.2372 17.047C57.2372 18.6358 57.7958 19.9199 58.913 20.8993C60.0525 21.8786 61.639 22.3683 63.6723 22.3683C66.6664 22.3683 68.5433 21.4542 69.3029 19.6261H72.8892C72.5317 21.4325 71.5262 22.858 69.8727 23.9027C68.2416 24.9256 66.1748 25.4371 63.6723 25.4371Z" fill="white"/>
<path d="M76.2803 25.1106V8.78758H79.5313L79.8665 11.1381H80.1346C80.7603 10.2458 81.4865 9.58197 82.3132 9.14669C83.1623 8.68964 84.3018 8.46112 85.7318 8.46112H87.0389V11.9869C86.4356 11.8998 85.7988 11.8563 85.1285 11.8563C83.5421 11.8563 82.2685 12.3351 81.3077 13.2927C80.3469 14.2504 79.8665 15.5671 79.8665 17.2429V25.1106H76.2803Z" fill="white"/>
<path d="M93.0849 5.78415C92.6604 6.21943 92.1353 6.43707 91.5097 6.43707C90.884 6.43707 90.3478 6.21943 89.9009 5.78415C89.454 5.34887 89.2306 4.83741 89.2306 4.24978C89.2306 3.64039 89.454 3.12894 89.9009 2.71542C90.3478 2.28014 90.884 2.0625 91.5097 2.0625C92.1353 2.0625 92.6604 2.28014 93.0849 2.71542C93.5318 3.12894 93.7552 3.64039 93.7552 4.24978C93.7552 4.83741 93.5318 5.34887 93.0849 5.78415ZM89.6998 25.1106V8.78758H93.286V25.1106H89.6998Z" fill="white"/>
<path d="M97.6206 25.1106V8.78758H100.905L101.207 10.8116H101.475C102.749 9.24463 104.48 8.46112 106.67 8.46112C109.172 8.46112 110.915 9.40786 111.898 11.3013H112.133C113.451 9.40786 115.406 8.46112 117.998 8.46112C119.987 8.46112 121.551 8.99434 122.691 10.0608C123.852 11.1055 124.433 12.6398 124.433 14.6639V25.1106H120.847V15.3168C120.847 14.0762 120.478 13.1404 119.741 12.5092C119.026 11.8563 118.11 11.5299 116.993 11.5299C115.764 11.5299 114.758 11.8998 113.976 12.6398C113.194 13.3798 112.803 14.4027 112.803 15.7085V25.1106H109.217V15.48C109.217 14.1959 108.86 13.2166 108.145 12.5419C107.43 11.8672 106.502 11.5299 105.363 11.5299C104.223 11.5299 103.24 11.8781 102.413 12.5745C101.609 13.271 101.207 14.2939 101.207 15.6432V25.1106H97.6206Z" fill="white"/>
</svg>
