<svg width="108" height="69" viewBox="0 0 108 69" fill="none" xmlns="http://www.w3.org/2000/svg">
<path d="M16.6101 42.302C14.6026 38.143 10.5571 35.4322 8.66958 31.1674C8.5863 31.0191 8.45183 30.9062 8.29133 30.8499C8.13083 30.7936 7.95532 30.7977 7.79762 30.8614C7.63993 30.9252 7.51087 31.0442 7.4346 31.1963C7.35833 31.3483 7.34009 31.5229 7.38327 31.6874C9.23042 35.9133 12.8 39.2851 15.6203 42.8685C16.0165 43.3705 16.9015 42.9065 16.6101 42.302Z" fill="#4A2974"/>
<path d="M7.87746 32.0564C10.1731 32.2225 12.4188 32.1608 14.7358 32.4973C17.1682 33.013 19.6321 33.367 22.1113 33.5569C22.3115 33.5848 22.5147 33.5321 22.676 33.4102C22.8373 33.2884 22.9436 33.1075 22.9715 32.9073C22.9995 32.7071 22.9468 32.504 22.825 32.3426C22.7032 32.1813 22.5222 32.075 22.322 32.047C19.6226 31.6351 16.8929 31.2299 14.119 30.9139C12.2552 30.6851 9.42815 30.1261 7.69197 31.0628C7.35745 31.2791 7.30949 32.0056 7.87746 32.0564Z" fill="#4A2974"/>
<path d="M34.6788 62.1353C33.0712 60.3868 31.2777 58.8063 29.5923 57.1384C27.8828 55.1173 25.9476 53.2985 23.8244 51.7177C23.4391 51.4838 22.7316 51.8136 23.0182 52.3236C24.319 54.221 25.8809 55.9254 27.6578 57.3865C29.5997 59.3817 31.6894 61.2275 33.9091 62.9083C34.4002 63.2623 35.1172 62.6122 34.6788 62.1353Z" fill="#4A2974"/>
<path d="M34.6454 62.6358C35.0902 60.7522 35.2028 58.8054 34.9781 56.883C35.0402 54.1069 34.9374 51.3296 34.6703 48.5656C34.6257 48.3663 34.5086 48.1906 34.3418 48.0726C34.1749 47.9547 33.9702 47.903 33.7674 47.9276C33.5646 47.9521 33.3781 48.0511 33.2442 48.2054C33.1103 48.3597 33.0385 48.5583 33.0428 48.7625C33.6852 53.2996 32.9041 58.0209 33.7961 62.5352C33.8943 62.9115 34.5581 63.0367 34.6454 62.6358Z" fill="#4A2974"/>
<path d="M34.1341 49.24C38.4259 47.9246 42.5996 46.2506 46.6109 44.2357C47.4266 43.8186 46.8814 42.49 46.069 42.9223C42.0482 44.9792 37.8071 46.3205 33.6373 48.0599C32.9383 48.356 33.3578 49.4735 34.1341 49.24Z" fill="#4A2974"/>
<path d="M46.778 43.4037C45.6625 41.7226 43.2734 40.7655 41.496 39.9133C39.1278 38.7607 36.7017 37.7799 34.3729 36.4437C33.6242 36.0029 32.7929 37.0757 33.5449 37.5317C35.5204 38.6791 37.5583 39.7153 39.6493 40.6355C41.8078 41.8849 44.0314 43.0184 46.3106 44.031C46.3921 44.0535 46.4786 44.0509 46.5585 44.0234C46.6385 43.996 46.7084 43.945 46.7589 43.8772C46.8094 43.8094 46.8383 43.7279 46.8417 43.6434C46.8451 43.5589 46.8229 43.4754 46.778 43.4037Z" fill="#4A2974"/>
<path d="M34.269 37.055C34.5922 34.1682 34.3023 31.0973 34.4266 28.1744C34.6658 25.6826 34.4711 23.1682 33.8511 20.7429C33.5992 19.9548 32.1667 20.3158 32.4087 21.0584C32.974 24.2698 33.0851 27.5447 32.7388 30.787C32.661 32.9041 32.363 35.3241 33.4728 37.1974C33.5187 37.2714 33.5858 37.33 33.6654 37.3654C33.745 37.4009 33.8334 37.4117 33.9192 37.3964C34.005 37.381 34.0842 37.3403 34.1465 37.2794C34.2089 37.2186 34.2516 37.1404 34.269 37.055Z" fill="#4A2974"/>
<path d="M22.3207 33.3518C23.2975 32.5537 24.1654 31.631 24.9024 30.6074C26.0987 29.3115 27.3603 28.0969 28.6154 26.8518C30.3169 25.175 32.7981 23.2799 33.6925 20.9681C33.7536 20.816 33.7581 20.6469 33.705 20.4918C33.6519 20.3366 33.5449 20.2057 33.4033 20.1229C33.2618 20.0401 33.0952 20.0109 32.934 20.0406C32.7727 20.0703 32.6275 20.157 32.5248 20.2848C30.4119 22.4813 28.4973 24.857 26.3473 27.0297C24.7929 28.5789 21.9364 30.7948 21.6189 32.9803C21.6052 33.0667 21.6189 33.1552 21.658 33.2335C21.6971 33.3118 21.7597 33.3758 21.837 33.4168C21.9144 33.4577 22.0026 33.4735 22.0893 33.4618C22.176 33.4502 22.2569 33.4117 22.3207 33.3518Z" fill="#4A2974"/>
<path d="M9.35553 58.1602C10.6438 55.5395 11.6508 52.8691 12.8968 50.2736C14.1429 47.6782 15.6736 45.1477 16.6553 42.4351C16.7141 42.2893 16.7127 42.1261 16.6512 41.9814C16.5897 41.8367 16.4733 41.7223 16.3275 41.6635C16.1817 41.6047 16.0185 41.6062 15.8738 41.6677C15.7291 41.7292 15.6148 41.8456 15.5559 41.9914C14.131 44.6419 12.95 47.4618 11.6176 50.1716C10.2065 52.5943 9.12727 55.1957 8.40892 57.9058C8.29741 58.4871 9.12635 58.6399 9.35553 58.1602Z" fill="#4A2974"/>
<path d="M8.69821 58.5746C13.6856 57.8814 19.1998 54.941 23.6244 52.6208C23.754 52.5449 23.8516 52.4246 23.8994 52.2823C23.9472 52.1399 23.9418 51.9851 23.8843 51.8464C23.8268 51.7077 23.7211 51.5945 23.5866 51.5277C23.4522 51.4609 23.2981 51.445 23.1528 51.483C20.7139 52.3347 18.405 53.6352 16.0297 54.6321C13.6544 55.629 10.964 56.5675 8.4553 57.6095C8.32732 57.6417 8.2174 57.7234 8.14968 57.8367C8.08196 57.95 8.06199 58.0855 8.09421 58.2135C8.12642 58.3415 8.20816 58.4514 8.32144 58.5191C8.43472 58.5869 8.57023 58.6068 8.69821 58.5746Z" fill="#4A2974"/>
<path d="M8.80521 56.3712C8.7699 56.5817 8.78165 56.7975 8.83964 57.0029C8.89763 57.2084 9.0004 57.3985 9.14058 57.5595C9.28076 57.7205 9.45488 57.8484 9.6504 57.9341C9.84591 58.0198 10.058 58.0612 10.2714 58.0552C11.3248 58.143 11.5207 56.4932 10.501 56.4139C10.2263 56.3945 10.2885 56.4604 10.195 56.1786C9.9682 55.4327 8.97082 55.7463 8.80521 56.3712Z" fill="#4A2974"/>
<path d="M8.86842 56.66C8.50495 57.4714 9.32199 58.1518 10.0769 58.2572C10.2366 58.2753 10.3979 58.2424 10.5378 58.1632C10.6777 58.084 10.7889 57.9626 10.8556 57.8164C10.8876 57.6937 10.9027 57.5673 10.9006 57.4406C10.8849 57.312 10.8353 57.19 10.7568 57.0869C10.6783 56.9838 10.5739 56.9035 10.4542 56.8541C10.1529 56.7132 9.97492 56.4816 9.6703 56.3255C9.51943 56.2655 9.35105 56.2669 9.2012 56.3294C9.05135 56.3919 8.93194 56.5106 8.86842 56.66Z" fill="#4A2974"/>
<path d="M8.94114 56.9941C8.37269 57.5957 9.00755 58.316 9.69841 58.4195C10.6322 58.4698 10.841 57.024 9.88867 56.9618C9.67862 56.9229 9.67862 56.9229 9.88867 56.9618L10.1501 57.4297L10.1103 57.2475C10.0852 57.123 10.0244 57.0086 9.93529 56.9181C9.84618 56.8277 9.73268 56.7652 9.60861 56.7383C9.48453 56.7114 9.35528 56.7213 9.23673 56.7667C9.11818 56.8122 9.01548 56.8912 8.94114 56.9941Z" fill="#4A2974"/>
<path d="M9.7389 57.9494L10.2328 57.9527C10.6594 57.9389 10.6651 57.2376 10.2471 57.2177L9.74316 57.1688C9.69191 57.1685 9.64112 57.1784 9.59367 57.1977C9.54621 57.2171 9.50304 57.2456 9.4666 57.2816C9.43016 57.3177 9.40118 57.3605 9.3813 57.4078C9.36143 57.455 9.35105 57.5057 9.35077 57.557C9.35049 57.6082 9.36028 57.659 9.37964 57.7065C9.39899 57.7539 9.42752 57.7971 9.46356 57.8335C9.4996 57.87 9.54248 57.899 9.58972 57.9188C9.63696 57.9387 9.68765 57.9491 9.7389 57.9494Z" fill="#4A2974"/>
<path d="M9.58984 57.6318C10.1483 58.0029 11.3208 58.2715 11.7782 57.5987C11.8397 57.4915 11.8592 57.3653 11.8328 57.2446C11.8064 57.1239 11.736 57.0174 11.6354 56.9458C11.2136 56.5448 10.3348 56.6734 9.80528 56.7256C9.70921 56.7449 9.62068 56.7914 9.55019 56.8595C9.4797 56.9276 9.43023 57.0144 9.40756 57.1098C9.3849 57.2051 9.39002 57.3049 9.42233 57.3975C9.45464 57.49 9.51275 57.5713 9.58984 57.6318Z" fill="#4A2974"/>
<path d="M10.3956 57.3126C10.3158 56.9057 10.1555 56.5188 9.92393 56.1748C9.85534 56.093 9.76361 56.0339 9.66078 56.0053C9.55796 55.9766 9.44888 55.9798 9.3479 56.0144L9.22645 56.0409C9.11394 56.0841 9.01519 56.1569 8.94068 56.2517C8.86617 56.3464 8.81869 56.4595 8.8032 56.579C8.7531 56.876 8.81114 57.1812 8.9668 57.439C9.12247 57.6969 9.36542 57.8904 9.65158 57.9845C9.74851 58.0227 9.85418 58.0331 9.95671 58.0145C10.0593 57.9959 10.1546 57.9491 10.2319 57.8792C10.3092 57.8094 10.3656 57.7193 10.3945 57.6192C10.4234 57.5191 10.4238 57.4129 10.3956 57.3126Z" fill="#4A2974"/>
<path d="M10.1967 57.1332C10.1003 56.6928 10.2484 56.2786 10.0643 55.8734C10.0239 55.7787 9.95416 55.6995 9.86545 55.6474C9.77674 55.5952 9.67368 55.5728 9.57131 55.5835C8.59955 55.796 8.58337 57.1042 9.16462 57.7248C9.25668 57.831 9.38274 57.9018 9.52126 57.9253C9.65977 57.9488 9.80216 57.9234 9.92404 57.8535C10.0459 57.7836 10.1397 57.6736 10.1895 57.5422C10.2392 57.4108 10.2417 57.2662 10.1967 57.1332Z" fill="#4A2974"/>
<path d="M10.4407 57.3023C10.5254 56.7024 10.4195 56.0911 10.1379 55.5547C10.1013 55.505 10.0551 55.463 10.0021 55.4313C9.94913 55.3995 9.89038 55.3786 9.82923 55.3698C9.76809 55.361 9.70577 55.3644 9.64595 55.3798C9.58613 55.3953 9.53 55.4225 9.48078 55.4598C8.85397 55.8674 9.10685 56.8781 9.4034 57.4337C9.69996 57.9893 10.4269 57.894 10.4407 57.3023Z" fill="#4A2974"/>
<path d="M10.3962 34.7675C10.3255 34.4315 10.2776 34.0912 10.2529 33.7488C10.175 33.5012 10.1194 33.2471 10.0868 32.9896C10.047 32.8074 10.0603 32.8681 10.1414 32.8026C10.4294 32.7152 10.7239 32.6508 11.0221 32.61C11.1904 32.536 11.3335 32.4147 11.434 32.2608C11.5346 32.107 11.5883 31.9272 11.5885 31.7434C11.5888 31.5596 11.5356 31.3797 11.4354 31.2255C11.3353 31.0714 11.1925 30.9497 11.0245 30.8752C10.7375 30.7749 10.4328 30.7354 10.1297 30.7592C9.82665 30.783 9.53186 30.8696 9.26406 31.0134C8.99626 31.1573 8.76131 31.3553 8.57417 31.5949C8.38703 31.8344 8.25179 32.1103 8.17702 32.405C8.1431 32.9514 8.23454 33.4983 8.44441 34.0039C8.65428 34.5095 8.977 34.9604 9.38787 35.3222C9.46143 35.4559 9.58508 35.5549 9.73164 35.5974C9.8782 35.64 10.0357 35.6225 10.1694 35.549C10.3031 35.4754 10.4021 35.3518 10.4446 35.2052C10.4872 35.0587 10.4698 34.9012 10.3962 34.7675Z" fill="#4A2974"/>
<path d="M9.50887 33.2588C9.59712 33.0803 9.58429 32.8763 9.66068 32.7164C9.73708 32.5565 9.66068 32.7164 9.66068 32.7164L9.99524 32.5C10.1326 32.4055 10.2387 32.2722 10.3 32.1171C10.3613 31.962 10.375 31.7922 10.3394 31.6292C10.3038 31.4663 10.2204 31.3177 10.0999 31.2024C9.97947 31.087 9.82742 31.0102 9.66311 30.9817C8.22587 30.7392 7.38599 32.864 8.76628 33.5007C8.89996 33.541 9.04277 33.5394 9.17552 33.4962C9.30827 33.4529 9.42459 33.3701 9.50887 33.2588Z" fill="#4A2974"/>
<path d="M9.13459 32.7839L9.41031 32.5168L8.84278 32.8319L8.91872 32.8153C9.9498 33.0193 10.2378 31.5721 9.37614 31.1242C9.08839 31.0045 8.77132 30.9741 8.46606 31.0369C8.59559 31.629 8.61886 32.2444 8.69098 32.8651C9.03038 32.8547 9.36008 32.7495 9.64279 32.5614C9.78052 32.4476 9.88269 32.2967 9.93712 32.1265C9.99155 31.9564 9.99593 31.7742 9.9498 31.6016C9.90367 31.429 9.80895 31.2733 9.67688 31.153C9.54481 31.0327 9.381 30.9529 9.20487 30.923C8.95509 30.9377 8.70914 30.9915 8.47603 31.0824C7.33724 31.3315 7.52182 33.1208 8.70094 32.9106C8.78032 32.8689 8.86948 32.8494 8.95904 32.8542L8.97994 31.1313C8.72982 31.1253 8.48594 31.2096 8.29286 31.3687C8.09978 31.5278 7.97041 31.7511 7.92845 31.9977C7.91072 32.1402 7.92983 32.2849 7.984 32.4179C8.03816 32.5509 8.12556 32.6678 8.23781 32.7574C8.3618 32.8635 8.51838 32.924 8.68152 32.9288C8.84466 32.9337 9.00453 32.8825 9.13459 32.7839Z" fill="#4A2974"/>
<path d="M43.9985 45.4594C44.4529 45.3882 44.878 45.1908 45.2257 44.8897C45.5733 44.5886 45.8294 44.196 45.9648 43.7565C46.0574 43.5046 46.087 43.234 46.0512 42.968C46.0153 42.7021 45.915 42.449 45.7591 42.2306C45.6031 42.0123 45.3962 41.8353 45.1563 41.7151C44.9163 41.595 44.6507 41.5352 44.3824 41.5411C43.7637 41.5491 43.5506 42.2481 43.6873 42.7273C43.7172 42.864 44.0531 43.236 44.0427 43.3337C43.9962 43.1211 43.9515 43.3536 43.906 43.3636C43.6096 43.6799 43.3827 44.0547 43.2398 44.4639C43.1934 44.581 43.178 44.7081 43.1952 44.8329C43.2123 44.9577 43.2615 45.0759 43.3379 45.1761C43.4142 45.2763 43.5152 45.355 43.6309 45.4046C43.7467 45.4543 43.8733 45.4732 43.9985 45.4594Z" fill="#4A2974"/>
<path d="M33.7071 30.05C36.5936 19.3156 43.2712 17.839 52.8469 15.283C57.8652 13.9308 62.2025 12.0115 65.4097 7.76198C65.7195 7.36009 65.1838 6.72948 64.7729 7.10575C54.323 17.5217 35.853 12.3657 32.7553 29.8445C32.6974 30.5254 33.5923 30.6161 33.7071 30.05Z" fill="#4A2974"/>
<path d="M53.5401 21.7979C57.84 17.9617 63.4969 14.1469 64.6837 8.08C64.7867 7.53243 63.9848 7.35781 63.7556 7.83752C62.6334 10.5174 61.0934 13.0023 59.1928 15.1997C57.264 17.2922 55.0965 19.1664 53.0836 21.1659C52.752 21.5408 53.1833 22.1306 53.5401 21.7979Z" fill="#4A2974"/>
<path d="M54.1319 22.8303C67.9008 13.0407 88.0961 27.6837 99.3983 11.9264C99.478 11.7958 99.5068 11.6405 99.4791 11.49C99.4515 11.3395 99.3694 11.2045 99.2484 11.1108C99.1274 11.0171 98.9762 10.9713 98.8236 10.9821C98.671 10.993 98.5278 11.0597 98.4213 11.1696C85.6487 25.5143 66.8883 10.8119 53.489 22.0004C53.3964 22.091 53.3404 22.2125 53.3316 22.3418C53.3228 22.4711 53.3617 22.5991 53.441 22.7015C53.5204 22.8039 53.6346 22.8736 53.762 22.8973C53.8893 22.9211 54.021 22.8972 54.1319 22.8303Z" fill="#4A2974"/>
<path d="M33.6745 52.5225C43.2328 49.159 53.0044 55.1358 62.797 52.2619C63.4044 52.129 63.225 51.3091 62.8093 51.0818C63.607 51.5279 55.2773 46.9062 55.3025 46.4393C55.3219 45.6554 59.4173 45.5392 59.9943 45.413C63.8998 45.0838 67.8423 45.7965 71.7664 45.4791C78.1778 44.9677 82.407 42.1174 85.9178 36.7832C85.9978 36.6756 86.0443 36.5468 86.0516 36.4129C86.0589 36.279 86.0267 36.1459 85.959 36.0302C85.8913 35.9145 85.7911 35.8212 85.6708 35.762C85.5506 35.7027 85.4155 35.6802 85.2825 35.6971C84.4123 35.792 75.2858 36.0381 75.7926 34.7181C75.9914 34.245 80.9494 32.2536 81.534 31.8712C84.4707 30.3117 87.2297 28.4386 89.7627 26.2846C94.341 22.1772 97.5445 16.7604 98.9382 10.7697C99.0867 10.2122 98.1216 9.946 97.9579 10.5068C94.269 23.2465 84.9357 29.4565 73.3618 34.6611C73.2641 34.7057 73.1813 34.7773 73.1233 34.8676C73.0652 34.9579 73.0343 35.0629 73.0343 35.1703C73.0343 35.2776 73.0652 35.3827 73.1233 35.4729C73.1813 35.5632 73.2641 35.6349 73.3618 35.6794C75.76 36.3774 78.2043 36.906 80.6765 37.2614C83.4965 37.9334 82.8811 36.4292 83.2863 38.2816C83.7844 40.5592 75.7992 43.4037 74.5607 43.7064C67.682 45.3543 60.519 43.739 53.5525 45.422C53.455 45.4334 53.3631 45.4734 53.2884 45.537C53.2136 45.6006 53.1594 45.6848 53.1324 45.7792C53.1054 45.8735 53.1069 45.9737 53.1367 46.0672C53.1666 46.1607 53.2234 46.2433 53.3001 46.3045C54.1375 46.9328 60.1384 50.2182 60.2234 51.0429C60.4492 53.0936 49.9753 51.4708 48.6391 51.2539C43.2019 50.3272 38.5414 49.5328 33.3267 51.6599C33.2123 51.706 33.1209 51.7957 33.0726 51.9092C33.0244 52.0227 33.0232 52.1507 33.0693 52.2651C33.1154 52.3795 33.2051 52.4709 33.3186 52.5192C33.4321 52.5675 33.5601 52.5687 33.6745 52.5225Z" fill="#4A2974"/>
<path d="M34.3103 35.6462C35.5099 32.329 40.9201 27.168 44.7332 27.2886C47.2987 27.3797 45.1583 29.2321 43.5018 32.0605C43.4343 32.1849 43.4137 32.3294 43.4438 32.4677C43.4739 32.606 43.5526 32.7289 43.6657 32.8141C43.7787 32.8992 43.9186 32.9409 44.0598 32.9316C44.2011 32.9222 44.3342 32.8625 44.4351 32.7633C49.7566 26.9057 59.0405 28.4707 66.1224 27.6058C68.8782 27.2575 70.0892 26.1017 67.3504 27.9099C62.9681 31.0614 57.8529 33.0402 52.4906 33.6583C52.3698 33.6749 52.2578 33.7305 52.1716 33.8166C52.0853 33.9027 52.0296 34.0147 52.0128 34.1354C51.996 34.2561 52.019 34.379 52.0785 34.4854C52.1379 34.5918 52.2305 34.6759 52.3421 34.7249C50.5812 33.9486 57.7489 37.1857 57.7408 37.5852C57.6037 38.7767 58.5161 36.111 56.5973 38.7582C54.4108 41.7821 47.6326 42.5806 44.5266 42.7827C43.9482 42.8296 44.0938 43.641 44.7126 43.633C51.0817 43.6558 54.528 40.4995 60.1422 38.3805C60.2369 38.3376 60.3172 38.2685 60.3738 38.1813C60.4305 38.0942 60.4609 37.9926 60.4616 37.8887C60.4623 37.7848 60.4333 37.6828 60.3778 37.5949C60.3224 37.507 60.2429 37.4368 60.1488 37.3926C53.255 34.4616 54.2609 35.1325 59.0405 33.562C63.5204 31.8473 67.7081 29.45 71.4552 26.4552C72.0331 26.0424 71.4742 25.3055 70.8887 25.4654C64.0683 27.3073 56.828 26.1385 50.0612 28.0801C48.2776 28.5816 46.5931 30.1911 44.9514 30.6138C44.587 30.6935 45.4368 31.16 45.4738 31.1837C45.5108 31.2074 49.0259 24.5835 48.0731 26.1921C48.1453 26.0814 48.1813 25.9511 48.1761 25.8191C48.171 25.6871 48.125 25.56 48.0444 25.4553C47.9639 25.3506 47.8527 25.2735 47.7265 25.2347C47.6002 25.196 47.465 25.1974 47.3396 25.2388C41.9854 26.7282 34.9719 29.3601 33.6503 35.3928C33.3941 35.8943 34.1352 36.0822 34.3103 35.6462Z" fill="#4A2974"/>
</svg>
