<svg width="271" height="265" viewBox="0 0 271 265" fill="none" xmlns="http://www.w3.org/2000/svg">
<path d="M220.46 200.971L220.443 200.961L220.426 200.951C219.235 200.261 217.377 200.672 216.589 201.801L216.584 201.808L216.579 201.815L199.444 226.24C199.442 226.243 199.44 226.246 199.438 226.248C193.89 234.184 182.855 236.628 174.474 231.777C174.472 231.776 174.469 231.775 174.467 231.773L148.62 216.87L148.613 216.865L148.605 216.861C147.414 216.171 145.556 216.582 144.768 217.711L144.763 217.718L144.758 217.725L127.623 242.15C127.622 242.152 127.621 242.153 127.62 242.155C122.072 250.094 111.033 252.539 102.651 247.686C102.649 247.685 102.647 247.684 102.646 247.683L76.7987 232.779L76.7913 232.775L76.7839 232.771C75.5925 232.081 73.7349 232.492 72.9465 233.621L72.9354 233.637L72.9241 233.653L64.3475 245.808C64.3462 245.809 64.3449 245.811 64.3435 245.813C59.9154 252.109 52.937 258.025 44.4299 256.224C36.0121 254.442 31.9006 246.297 30.2272 238.743L11.4355 153.912L11.4293 153.884L11.4233 153.856C-2.36926 89.4165 37.629 25.0925 101.217 11.0065C164.795 -3.07737 228.256 38.3302 242.52 102.722L261.312 187.553C262.986 195.107 262.699 204.227 255.821 209.397C248.87 214.622 240.045 212.206 233.373 208.369C233.371 208.368 233.369 208.367 233.368 208.366L220.46 200.971ZM174.363 138.112L174.352 138.125L174.342 138.137C153.293 162.698 118.074 170.5 88.6224 157.125L88.6076 157.119L88.5928 157.112C88.5603 157.097 88.5463 157.097 88.5382 157.096C88.5347 157.096 88.5303 157.096 88.5252 157.097C88.509 157.098 88.4849 157.102 88.4548 157.113C88.4149 157.128 88.3779 157.152 88.348 157.179C88.3347 157.191 88.3211 157.206 88.3074 157.225C88.2944 157.243 88.2814 157.265 88.2688 157.292C88.2539 157.325 88.2535 157.339 88.2533 157.347C88.2529 157.361 88.2552 157.391 88.2702 157.43C88.2853 157.47 88.3084 157.507 88.3359 157.537C88.3585 157.562 88.3892 157.587 88.4397 157.612C103.21 164.275 119.475 165.661 134.728 162.283C149.98 158.904 164.137 150.778 174.712 138.501C174.748 138.457 174.765 138.421 174.775 138.389C174.788 138.35 174.793 138.307 174.79 138.264C174.787 138.222 174.776 138.195 174.77 138.182C174.766 138.174 174.76 138.162 174.733 138.139C174.686 138.099 174.647 138.08 174.613 138.07C174.574 138.057 174.531 138.052 174.488 138.055C174.446 138.058 174.419 138.069 174.406 138.075C174.398 138.079 174.386 138.085 174.363 138.112ZM115.681 76.3006C105.91 78.465 99.6763 88.2462 101.841 98.0172C104.005 107.788 113.786 114.022 123.557 111.857C133.328 109.693 139.562 99.9116 137.397 90.1406C135.233 80.3696 125.452 74.1361 115.681 76.3006Z" fill="#7000FF" stroke="#FFCC00" stroke-width="16"/>
</svg>
