<svg width="102" height="79" viewBox="0 0 102 79" fill="none" xmlns="http://www.w3.org/2000/svg">
<path d="M35.2706 24.6108C38.628 20.5009 42.1012 16.5068 45.6901 12.5416C49.173 9.18288 52.2081 5.38894 54.7204 1.25371C55.1545 0.414359 53.9099 -0.396007 53.2732 0.211799C49.8 3.54026 46.9057 7.59228 43.7219 11.1812C40.0566 15.0248 36.6713 19.126 33.5918 23.4531C33.5158 23.5634 33.4623 23.6874 33.4342 23.8184C33.4062 23.9493 33.4042 24.0845 33.4284 24.2161C33.4526 24.3478 33.5025 24.4735 33.5752 24.5859C33.6479 24.6983 33.7422 24.7953 33.8524 24.8713C33.9626 24.9473 34.0867 25.0009 34.2176 25.0289C34.3485 25.057 34.4837 25.059 34.6153 25.0348C34.747 25.0106 34.8728 24.9607 34.9852 24.888C35.0976 24.8152 35.1945 24.7211 35.2706 24.6108Z" fill="#571986"/>
<path d="M53.0997 2.15077C52.03 5.74308 51.4364 9.46023 51.3341 13.207C50.7223 17.3709 50.3262 21.5636 50.1475 25.7683C50.1563 26.0796 50.2789 26.3768 50.4919 26.6038C50.705 26.8309 50.9938 26.972 51.3038 27.0005C51.6139 27.029 51.9237 26.9429 52.1746 26.7585C52.4255 26.5742 52.6002 26.3043 52.6656 25.9999C53.2155 21.8321 53.6207 17.6353 54.1127 13.4675C54.9251 9.80042 55.0915 6.01975 54.6047 2.29546C54.5772 2.12487 54.4939 1.96826 54.3678 1.85006C54.2418 1.73187 54.0801 1.65877 53.9081 1.64223C53.7361 1.62569 53.5634 1.66663 53.4172 1.75865C53.2709 1.85066 53.1593 1.98856 53.0997 2.15077Z" fill="#571986"/>
<path d="M51.9697 28.489C68.1283 28.8782 84.2884 27.7834 100.247 25.2184C100.519 25.1306 100.751 24.9472 100.899 24.702C101.047 24.4568 101.101 24.1664 101.052 23.8843C101.003 23.6023 100.853 23.3476 100.63 23.1672C100.408 22.9868 100.128 22.893 99.8417 22.903C83.9229 24.6106 67.7437 24.3501 51.8829 26.434C51.6407 26.4841 51.4242 26.6186 51.2721 26.8136C51.12 27.0086 51.0422 27.2513 51.0527 27.4984C51.0631 27.7455 51.1611 27.9808 51.3291 28.1623C51.4971 28.3438 51.7242 28.4596 51.9697 28.489Z" fill="#571986"/>
<path d="M52.463 50.5732C68.6711 43.019 84.3004 34.2492 100.19 25.8268C100.447 25.704 100.645 25.484 100.74 25.2153C100.835 24.9466 100.819 24.6513 100.697 24.3941C100.574 24.137 100.354 23.9391 100.085 23.8441C99.8166 23.7491 99.5211 23.7648 99.264 23.8876C82.969 31.1813 67.4265 40.4141 51.7104 48.9524C51.5169 49.0647 51.3723 49.2454 51.3051 49.4588C51.2379 49.6723 51.2529 49.9032 51.3471 50.1061C51.4414 50.3091 51.608 50.4695 51.8145 50.5559C52.0209 50.6423 52.2522 50.6485 52.463 50.5732Z" fill="#571986"/>
<path d="M50.6389 50.1101C54.1121 59.0535 58.251 67.7075 61.8689 76.5931C62.3899 77.8666 64.329 76.9404 63.808 75.6669C60.248 66.9839 56.7748 57.7511 52.2308 49.2997C52.0873 49.1693 51.9076 49.0857 51.7155 49.0599C51.5233 49.0341 51.3279 49.0674 51.1551 49.1554C50.9824 49.2433 50.8404 49.3818 50.7482 49.5523C50.656 49.7228 50.6179 49.9174 50.6389 50.1101Z" fill="#571986"/>
<path d="M33.0718 50.3411C42.4204 59.9502 52.4348 69.0383 62.0149 78.3291C62.1769 78.5011 62.3984 78.6047 62.6343 78.6187C62.8701 78.6328 63.1025 78.5562 63.2837 78.4046C63.4649 78.2529 63.5813 78.0378 63.6091 77.8032C63.6369 77.5686 63.5739 77.3322 63.4331 77.1424C58.8683 71.8393 53.8837 66.9127 48.5274 62.4104C43.7518 57.9821 39.063 53.4091 34.0559 49.1834C33.448 48.6045 32.4351 49.7043 33.0718 50.3411Z" fill="#571986"/>
<path d="M2.39124 70.7463C13.4783 65.2275 24.1225 58.8603 34.2287 51.7017C35.2996 50.9781 33.9972 49.4441 32.9263 50.1677C22.7383 57.0562 12.0872 62.9316 1.60981 69.2991C0.886231 69.8201 1.60978 71.1804 2.39124 70.7463Z" fill="#571986"/>
<path d="M1.60995 70.0226C9.07728 60.7898 16.3999 51.4701 23.6936 42.1215C24.5908 40.9927 22.7674 39.7192 21.8701 40.8479C14.5765 50.1966 7.39858 59.5452 0.162792 69.0096C-0.473957 69.9068 0.915313 70.8909 1.60995 70.0226Z" fill="#571986"/>
<path d="M2.39105 29.2421C9.65054 33.079 16.5903 37.4925 23.1433 42.4402C24.2721 43.3374 25.5745 41.485 24.4168 40.6168C17.8287 35.5678 10.6808 31.2947 3.11463 27.8818C2.30422 27.5345 1.60959 28.9527 2.39105 29.2421Z" fill="#571986"/>
<path d="M3.34632 29.5601C13.438 29.2229 23.4949 28.1978 33.4472 26.4921C34.8364 26.2895 34.4602 24.1767 33.0709 24.3503C23.2302 25.6238 13.187 26.4342 3.40418 28.0551C2.478 28.1998 2.47803 29.5601 3.34632 29.5601Z" fill="#571986"/>
</svg>
