<svg width="66" height="62" viewBox="0 0 66 62" fill="none" xmlns="http://www.w3.org/2000/svg">
<path d="M56.4802 45.396C59.8023 41.9688 63.4502 38.5732 65.9418 34.4837C66.1731 34.1157 65.6159 33.7267 65.3846 34.0947C62.8195 38.2262 58.9613 41.2014 56.0282 45.0175C55.881 45.2698 56.312 45.6273 56.4802 45.396Z" fill="#7000FF"/>
<path d="M65.9098 34.2207C64.3013 33.0328 61.8728 33.0538 59.9805 33.0117C57.3372 33.0786 54.6925 32.9662 52.0644 32.6753C51.6544 32.6017 51.4861 33.2956 51.8961 33.3902C56.4482 34.4415 61.2105 32.9697 65.668 34.6728C65.7255 34.6886 65.7866 34.6844 65.8414 34.6608C65.8962 34.6373 65.9413 34.5959 65.9694 34.5433C65.9975 34.4907 66.007 34.4302 65.9961 34.3716C65.9853 34.3129 65.9548 34.2597 65.9098 34.2207Z" fill="#7000FF"/>
<path d="M35.359 61.081C39.7588 59.0276 43.8782 56.4203 47.617 53.3226C47.8272 53.1333 47.617 52.7549 47.3436 52.8915C43.1385 54.9941 39.1226 58.0533 35.1277 60.5974C34.8544 60.7762 35.0436 61.2492 35.359 61.081Z" fill="#7000FF"/>
<path d="M35.4539 60.8603C36.5052 56.098 36.9257 51.1149 38.3554 46.4472C38.5026 45.9531 37.7562 45.6798 37.609 46.1634C36.9605 48.4719 36.4688 50.8216 36.1372 53.1965C35.5683 55.7021 35.2166 58.2522 35.0859 60.8183C35.1 60.8535 35.1234 60.8844 35.1536 60.9074C35.1837 60.9305 35.2196 60.9449 35.2574 60.9492C35.2951 60.9536 35.3333 60.9476 35.3679 60.9319C35.4025 60.9163 35.4322 60.8915 35.4539 60.8603Z" fill="#7000FF"/>
<path d="M38.1558 46.0479C34.2957 43.2089 30.5866 40.1701 27.0438 36.9438C26.7179 36.6284 26.1817 37.0804 26.5076 37.3958C30.0426 40.7228 33.8163 43.7867 37.7984 46.563C38.1243 46.7943 38.4397 46.3002 38.1558 46.0479Z" fill="#7000FF"/>
<path d="M26.6758 37.4167C31.0386 36.0711 35.5592 35.5559 39.901 34.2629C40.311 34.1367 40.1953 33.4744 39.7853 33.6006C35.5066 34.9252 30.4499 34.7254 26.5602 37.0908C26.3815 37.1434 26.4445 37.4903 26.6758 37.4167Z" fill="#7000FF"/>
<path d="M40.2057 34.0946C42.7814 29.9525 44.3057 24.9799 46.4398 20.5856C46.6501 20.1545 45.9668 19.9233 45.7565 20.3333C43.5593 24.5384 41.0573 29.2797 39.8168 33.8948C39.7642 34.1156 40.0585 34.3153 40.2057 34.0946Z" fill="#7000FF"/>
<path d="M52.3269 33.2853C51.3807 28.7017 48.3846 24.3914 46.6184 20.0706C46.4712 19.7237 45.872 19.9024 45.9771 20.2704C47.2807 24.7383 49.8248 29.2588 51.9379 33.4009C52.043 33.6322 52.3794 33.5165 52.3269 33.2853Z" fill="#7000FF"/>
<path d="M59.8436 59.914C59.381 54.8153 57.8041 49.7586 56.6161 44.7966C56.5215 44.4391 55.9643 44.5338 56.0379 44.9017C57.0366 49.9584 58.4454 54.9204 59.36 59.9982C59.4651 60.3135 59.8646 60.2189 59.8436 59.914Z" fill="#7000FF"/>
<path d="M59.9586 59.9877C56.0478 57.3175 51.5483 55.709 47.7532 52.8285C47.4378 52.5867 47.1119 53.0703 47.4063 53.3226C50.9281 56.3503 55.6588 58.2741 59.7483 60.3977C59.9901 60.5239 60.1794 60.1349 59.9586 59.9877Z" fill="#7000FF"/>
<path d="M58.9182 58.0639C58.8026 58.4003 58.6974 58.4423 58.3505 58.3477C58.2857 58.3237 58.2159 58.3169 58.1477 58.3279C58.0795 58.339 58.0154 58.3675 57.9615 58.4108C57.884 58.4776 57.8351 58.5717 57.8249 58.6736C57.8148 58.7603 57.8342 58.848 57.88 58.9223C57.9257 58.9967 57.9952 59.0535 58.0772 59.0836C58.7605 59.3569 59.6331 59.0836 59.6015 58.2215C59.591 57.8115 59.0549 57.6433 58.9182 58.0639Z" fill="#7000FF"/>
<path d="M59.0863 58.4213C58.9181 58.558 58.834 58.6841 58.6237 58.7367C58.457 58.7617 58.292 58.7968 58.1296 58.8418C58.0931 58.8594 58.0611 58.8851 58.0361 58.917C58.0112 58.949 57.994 58.9863 57.9858 59.026C57.9777 59.0657 57.9788 59.1067 57.9892 59.1459C57.9995 59.1851 58.0188 59.2213 58.0455 59.2518C58.171 59.3614 58.3238 59.435 58.4877 59.4649C58.6516 59.4948 58.8205 59.4799 58.9767 59.4218C59.1328 59.3636 59.2703 59.2644 59.3747 59.1346C59.4791 59.0047 59.5466 58.8491 59.5699 58.6841C59.5779 58.625 59.5677 58.5647 59.5408 58.5115C59.5138 58.4582 59.4712 58.4144 59.4187 58.3859C59.3662 58.3574 59.3064 58.3455 59.247 58.3518C59.1876 58.3581 59.1316 58.3824 59.0863 58.4213Z" fill="#7000FF"/>
<path d="M58.856 59.1466C59.0768 59.0625 59.1083 59.0204 58.9612 58.9994H58.7825C58.682 59.0013 58.5839 59.0304 58.4986 59.0835C58.444 59.1127 58.402 59.161 58.3806 59.2192C58.3593 59.2773 58.3602 59.3413 58.383 59.3989C58.6037 60.0296 59.7601 59.8404 59.4342 59.0835C59.4041 59.0292 59.3586 58.9849 59.3035 58.9563C59.2483 58.9277 59.1859 58.9161 59.1242 58.9228C59.0624 58.9296 59.004 58.9544 58.9563 58.9942C58.9086 59.034 58.8737 59.087 58.856 59.1466Z" fill="#7000FF"/>
<path d="M58.9602 59.2097C59.0127 59.3884 59.0338 59.2097 59.0232 59.2097C58.947 59.1938 58.8682 59.1938 58.792 59.2097C58.7487 59.2177 58.7082 59.237 58.6747 59.2656C58.6412 59.2941 58.6157 59.331 58.6008 59.3725C58.5859 59.4139 58.5821 59.4585 58.5898 59.5019C58.5976 59.5453 58.6165 59.5859 58.6448 59.6197C58.6869 59.6988 58.7497 59.7651 58.8266 59.8112C58.9034 59.8574 58.9914 59.8818 59.0811 59.8818C59.1708 59.8818 59.2587 59.8574 59.3356 59.8112C59.4124 59.7651 59.4753 59.6988 59.5174 59.6197C59.5331 59.5659 59.5356 59.5091 59.5246 59.4542C59.5136 59.3993 59.4895 59.3478 59.4543 59.3043L59.3492 59.094C59.2756 58.8627 58.8971 58.9889 58.9602 59.2097Z" fill="#7000FF"/>
<path d="M58.9701 59.1046C58.8124 59.1046 58.6442 59.0415 58.4865 58.989C58.3288 58.9364 58.1291 59.2623 58.3499 59.3359L58.844 59.4621C59.0753 59.5462 59.2119 59.1677 58.9701 59.1046Z" fill="#7000FF"/>
<path d="M58.7819 58.6106C58.3027 58.456 57.8099 58.3469 57.3102 58.2847C57.2645 58.2803 57.2185 58.2896 57.1782 58.3113C57.1378 58.3331 57.1048 58.3664 57.0834 58.407C57.0619 58.4475 57.0531 58.4936 57.0579 58.5392C57.0627 58.5848 57.081 58.628 57.1104 58.6632C57.3412 58.8595 57.6129 59.002 57.9057 59.0802C58.1985 59.1584 58.505 59.1704 58.803 59.1152C58.8699 59.1124 58.9329 59.0832 58.9783 59.0339C59.0236 58.9846 59.0476 58.9193 59.0448 58.8524C59.042 58.7855 59.0127 58.7224 58.9634 58.6771C58.9141 58.6317 58.8489 58.6078 58.7819 58.6106Z" fill="#7000FF"/>
<path d="M58.771 59.4725C58.9229 59.4426 59.0655 59.3771 59.187 59.2813C59.3086 59.1856 59.4058 59.0623 59.4704 58.9217C59.5351 58.7811 59.5654 58.6271 59.559 58.4725C59.5525 58.3179 59.5095 58.167 59.4333 58.0323C59.4107 58.0038 59.3819 57.9808 59.3492 57.965C59.3164 57.9492 59.2805 57.941 59.2441 57.941C59.2077 57.941 59.1718 57.9492 59.139 57.965C59.1063 57.9808 59.0775 58.0038 59.0549 58.0323C58.8446 58.3582 58.8551 58.6946 58.5503 58.9784C58.5052 59.0185 58.4741 59.0719 58.4614 59.1308C58.4488 59.1898 58.4551 59.2512 58.4797 59.3063C58.5043 59.3613 58.5459 59.4071 58.5982 59.437C58.6506 59.4669 58.7111 59.4793 58.771 59.4725Z" fill="#7000FF"/>
<path d="M59.1807 59.3149C59.4295 59.1023 59.59 58.8046 59.6308 58.4799C59.6717 58.1551 59.5899 57.8269 59.4014 57.5593C59.3697 57.5277 59.3297 57.5055 59.2861 57.4952C59.2425 57.4849 59.1968 57.487 59.1543 57.5012C59.1117 57.5154 59.074 57.5411 59.0452 57.5755C59.0165 57.6099 58.9978 57.6516 58.9914 57.696C58.9283 58.127 59.044 58.5475 58.7496 58.926C58.4553 59.3044 58.9284 59.5357 59.1807 59.3149Z" fill="#7000FF"/>
<path d="M58.971 59.0206C59.1476 58.7821 59.2716 58.5089 59.3351 58.219C59.3985 57.9291 59.3998 57.629 59.339 57.3386C59.3187 57.2988 59.2879 57.2654 59.2499 57.2421C59.2118 57.2188 59.1681 57.2064 59.1234 57.2064C59.0788 57.2064 59.0351 57.2188 58.997 57.2421C58.959 57.2654 58.9282 57.2988 58.9079 57.3386C58.7417 57.8017 58.6082 58.276 58.5085 58.7578C58.4138 59.0417 58.8133 59.294 58.971 59.0206Z" fill="#7000FF"/>
<path d="M63.5439 37.669C63.9564 37.3443 64.2905 36.931 64.5216 36.4597C64.7527 35.9884 64.8749 35.4711 64.879 34.9462C64.7634 34.0211 63.6385 33.0329 62.6924 33.4429C62.6513 33.4641 62.6153 33.494 62.5871 33.5306C62.5588 33.5673 62.539 33.6097 62.529 33.6548C62.519 33.6999 62.519 33.7467 62.529 33.7919C62.5391 33.837 62.559 33.8794 62.5872 33.916C63.0077 34.4836 63.9539 34.4521 63.9119 35.3352C63.7939 36.0629 63.5097 36.7536 63.0813 37.3536C62.8711 37.6585 63.3021 37.9424 63.5439 37.669Z" fill="#7000FF"/>
<path d="M64.7958 35.9554C65.6158 35.3561 65.0271 33.6425 63.9653 34.0735C63.9327 34.0892 63.9035 34.1113 63.8795 34.1383C63.8555 34.1654 63.8371 34.1969 63.8253 34.2312C63.8136 34.2654 63.8088 34.3016 63.8111 34.3377C63.8135 34.3738 63.823 34.4091 63.8391 34.4415C63.9443 34.6518 64.165 34.7569 64.2807 34.9461C64.3963 35.1353 64.2807 35.4402 64.2807 35.682C64.2792 35.7425 64.2946 35.8023 64.3251 35.8546C64.3557 35.9069 64.4002 35.9496 64.4537 35.978C64.5072 36.0064 64.5676 36.0193 64.628 36.0153C64.6884 36.0113 64.7465 35.9905 64.7958 35.9554Z" fill="#7000FF"/>
<path d="M65.1947 35.146C65.5101 34.7255 65.1946 34.2944 64.7741 34.1788L64.5849 35.0093C64.7173 35.0037 64.8475 35.0446 64.9529 35.125C65.4785 35.3773 65.7728 34.5362 65.2682 34.2734C64.9423 34.1052 64.5744 33.7793 64.2695 34.1893C64.2377 34.2339 64.2152 34.2845 64.2032 34.3379C64.1913 34.3914 64.1902 34.4467 64.2 34.5006C64.2098 34.5545 64.2303 34.6059 64.2603 34.6517C64.2903 34.6976 64.3292 34.737 64.3747 34.7675C64.3747 34.7675 64.0908 34.4942 64.3221 34.7675L64.4482 34.8832C64.6043 34.9979 64.7738 35.0932 64.9529 35.167L65.2682 34.3155C65.0471 34.2054 64.7979 34.1651 64.5534 34.1998C64.4519 34.2158 64.3595 34.2675 64.2928 34.3455C64.2261 34.4236 64.1895 34.5229 64.1895 34.6256C64.1895 34.7283 64.2261 34.8276 64.2928 34.9057C64.3595 34.9837 64.4519 35.0354 64.5534 35.0514C64.5534 34.9357 64.5534 34.9252 64.5534 35.0514C64.5954 35.3247 65.0265 35.3562 65.1947 35.146Z" fill="#7000FF"/>
<path d="M37.2925 58.0533C38.0018 56.3566 38.2903 54.5136 38.1335 52.6813C38.1223 52.6296 38.0938 52.5834 38.0527 52.5503C38.0116 52.5171 37.9603 52.499 37.9075 52.499C37.8547 52.499 37.8035 52.5171 37.7623 52.5503C37.7212 52.5834 37.6927 52.6296 37.6815 52.6813C37.4502 54.4579 37.1979 56.182 36.8405 57.9377C36.7879 58.211 37.2084 58.2951 37.2925 58.0533Z" fill="#7000FF"/>
<path d="M38.8173 51.0203C38.7387 50.7545 38.7172 50.475 38.7543 50.2003C38.7574 50.1464 38.7432 50.093 38.7137 50.0478C38.6842 50.0026 38.641 49.9681 38.5904 49.9493C38.5398 49.9304 38.4845 49.9283 38.4327 49.9432C38.3808 49.9582 38.3351 49.9893 38.3022 50.0321C38.1963 50.2198 38.1406 50.4316 38.1406 50.6471C38.1406 50.8626 38.1963 51.0745 38.3022 51.2621C38.4389 51.6196 38.9225 51.3567 38.8173 51.0203Z" fill="#7000FF"/>
<path d="M39.4905 37.6271C40.2479 37.1461 40.902 36.5191 41.4146 35.7827C41.9272 35.0462 42.2881 34.2152 42.4762 33.3378C42.4888 33.2967 42.4851 33.2523 42.466 33.2137C42.4468 33.1752 42.4136 33.1455 42.3732 33.1306C42.3328 33.1158 42.2883 33.1171 42.2488 33.1341C42.2092 33.1511 42.1778 33.1827 42.1608 33.2222C41.4459 34.7781 40.7941 36.376 39.3013 37.3222C39.1541 37.4378 39.3433 37.7322 39.4905 37.6271Z" fill="#7000FF"/>
<path d="M32.5009 32.1498C26.9501 25.8421 15.8906 23.7395 7.97441 26.0313C7.90301 26.0583 7.84335 26.1095 7.80581 26.1759C7.76828 26.2424 7.75525 26.3199 7.76901 26.395C7.78278 26.4701 7.82247 26.5379 7.88114 26.5867C7.93981 26.6356 8.01374 26.6622 8.09007 26.6621C16.5003 26.0629 25.6991 25.8947 32.0068 32.5703C32.2906 32.8647 32.7742 32.4652 32.5009 32.1498Z" fill="#7000FF"/>
<path d="M7.86853 26.0628C5.32442 23.7184 4.98798 19.7551 4.88285 16.5276C4.89261 16.4244 4.86099 16.3216 4.79494 16.2418C4.7289 16.1619 4.63384 16.1116 4.53068 16.1018C4.42752 16.0921 4.3247 16.1237 4.24485 16.1897C4.16501 16.2558 4.11467 16.3509 4.10491 16.454C3.55824 19.7235 4.80926 24.3912 7.38491 26.5989C7.7003 26.8617 8.1734 26.3466 7.86853 26.0628Z" fill="#7000FF"/>
<path d="M33.2572 27.5136C23.8903 20.6382 13.7033 15.8128 1.90793 15.7498C1.35075 15.7498 1.25614 16.6118 1.82384 16.6328C13.8716 17.0218 22.9336 21.7421 32.9629 27.9447C33.0199 27.9744 33.0859 27.9822 33.1482 27.9665C33.2106 27.9509 33.2651 27.9129 33.3014 27.8598C33.3377 27.8067 33.3532 27.7421 33.3451 27.6783C33.3369 27.6145 33.3057 27.5559 33.2572 27.5136Z" fill="#7000FF"/>
<path d="M2.07546 16.0965C0.0464836 11.8914 1.10828 6.87677 5.22932 4.53241C5.27828 4.50101 5.31545 4.45426 5.335 4.39948C5.35454 4.3447 5.35537 4.28498 5.33734 4.22968C5.31931 4.17438 5.28343 4.12663 5.23535 4.0939C5.18726 4.06117 5.12969 4.04531 5.07163 4.04882C0.761363 4.80574 -1.94045 13.626 1.70751 16.4224C1.91776 16.5276 2.17008 16.2963 2.07546 16.0965Z" fill="#7000FF"/>
<path d="M37.2619 27.5557C29.5455 16.6328 18.528 4.84795 4.27259 4.20667C4.16736 4.20911 4.06666 4.24997 3.98949 4.32154C3.91231 4.39312 3.864 4.49046 3.85365 4.59521C3.84331 4.69996 3.87163 4.80487 3.93331 4.89016C3.995 4.97545 4.08578 5.03522 4.1885 5.0582C18.9065 6.71923 28.0106 17.1269 36.9255 27.8395C37.1042 28.0498 37.388 27.7765 37.2619 27.5557Z" fill="#7000FF"/>
<path d="M9.85558 5.3525C10.991 3.17634 12.1894 1.22095 14.8071 0.874029C14.8653 0.860838 14.9178 0.829675 14.9572 0.78496C14.9966 0.740244 15.021 0.68425 15.0268 0.624915C15.0326 0.565581 15.0196 0.505926 14.9896 0.454404C14.9596 0.402882 14.9142 0.362112 14.8597 0.33788C11.9687 -0.471609 10.0869 2.91352 9.10918 5.07917C8.88841 5.55224 9.6243 5.80456 9.85558 5.3525Z" fill="#7000FF"/>
<path d="M40.5421 26.9775C34.2344 15.9495 26.0028 5.2159 14.0918 0.0435825C13.5136 -0.208726 13.1772 0.705886 13.7554 0.958195C26.0028 6.28821 32.6785 16.8221 40.0375 27.2403C40.2057 27.5557 40.6683 27.2613 40.5421 26.9775Z" fill="#7000FF"/>
</svg>
