<svg width="59" height="59" viewBox="0 0 59 59" fill="none" xmlns="http://www.w3.org/2000/svg">
<path d="M20.7136 45.0324C17.0335 38.807 17.125 33.0012 22.459 27.7879C22.531 27.7181 22.5746 27.624 22.5812 27.5239C22.5878 27.4238 22.557 27.3248 22.4948 27.2461C22.4325 27.1675 22.3433 27.1147 22.2443 27.0981C22.1454 27.0816 22.0438 27.1023 21.9593 27.1564C15.7403 31.682 15.9344 39.6334 20.2328 45.413C20.4424 45.7379 20.8767 45.3764 20.7136 45.0324Z" fill="#8E8E8E"/>
<path d="M21.6414 27.5082C24.3083 28.73 28.4709 27.4088 28.994 24.2404C29.0001 24.1685 28.9831 24.0966 28.9455 24.0351C28.9079 23.9736 28.8517 23.9257 28.785 23.8984C28.7183 23.8711 28.6446 23.8658 28.5747 23.8832C28.5047 23.9007 28.4422 23.94 28.3962 23.9954C27.6098 25.191 27.0727 26.2536 25.6488 26.8067C24.3723 27.3009 23.1034 27.048 21.7904 26.8983C21.7175 26.8972 21.6464 26.921 21.5887 26.9656C21.531 27.0102 21.4902 27.0731 21.4729 27.1439C21.4556 27.2147 21.4629 27.2893 21.4935 27.3555C21.5241 27.4216 21.5762 27.4755 21.6414 27.5082Z" fill="#8E8E8E"/>
<path d="M29.1966 24.7194C30.8307 23.8817 32.6664 23.5174 34.4966 23.6676C36.3268 23.8178 38.0786 24.4765 39.5543 25.5693C39.886 25.7986 40.3594 25.3858 40.0701 25.0452C37.2744 22.0317 32.3106 22.2904 28.9976 24.1803C28.6609 24.3756 28.8376 24.9282 29.1966 24.7194Z" fill="#8E8E8E"/>
<path d="M19.7345 45.0778C23.9701 54.3358 36.9727 55.159 43.4204 47.8455C49.8681 40.5319 48.8373 28.9089 39.5249 24.5429C38.9179 24.2577 38.578 25.1822 39.1367 25.4784C47.2987 29.9625 48.8208 39.6526 42.8668 46.8282C36.4135 54.6004 25.4618 52.556 20.2541 44.7561C20.0654 44.4857 19.5967 44.7704 19.7345 45.0778Z" fill="#8E8E8E"/>
<path d="M36.2947 46.9451C37.9472 47.2462 39.455 45.9455 40.0284 44.485C40.5128 43.2651 40.3525 41.4467 38.7685 41.2232C38.5587 41.1948 38.3957 41.5199 38.6014 41.6424C41.1327 43.1238 38.658 46.4998 36.3549 46.4656C36.2913 46.4576 36.2271 46.4752 36.1765 46.5146C36.1259 46.5539 36.093 46.6117 36.085 46.6753C36.077 46.7389 36.0947 46.803 36.134 46.8536C36.1733 46.9043 36.2312 46.9372 36.2947 46.9451Z" fill="#8E8E8E"/>
<path d="M37.9415 41.0135C36.9566 41.2271 36.0549 41.7222 35.346 42.4386C34.6372 43.1549 34.1516 44.0618 33.9484 45.0489C33.6172 47.0894 35.7213 47.2536 37.0682 46.3622C37.2592 46.234 37.1184 45.8765 36.8948 45.9359C36.3231 46.0662 35.3505 46.5928 34.773 46.1399C34.3617 45.7847 34.5216 45.0368 34.7092 44.596C34.9911 43.8509 35.4391 43.18 36.0191 42.6339C36.5992 42.0879 37.296 41.6812 38.0566 41.4447C38.1138 41.4294 38.1626 41.392 38.1922 41.3408C38.2218 41.2896 38.2299 41.2287 38.2146 41.1715C38.1994 41.1143 38.162 41.0656 38.1108 41.0359C38.0595 41.0063 37.9986 40.9982 37.9415 41.0135Z" fill="#8E8E8E"/>
<path d="M21.8734 41.27C21.8893 42.9011 22.7965 45.0236 24.7229 44.9658C25.02 44.9629 25.3121 44.8894 25.5752 44.7514C25.8382 44.6134 26.0647 44.4148 26.236 44.1721C26.4057 43.8604 26.4908 43.5096 26.4828 43.1548C26.4747 42.8 26.3738 42.4535 26.1902 42.1497C25.8873 41.6226 25.4935 41.1532 25.0272 40.7631C24.7222 40.4837 24.3975 40.2265 24.0557 39.9935C23.6961 39.7536 23.2373 39.3754 22.7965 39.3741C22.7444 39.3688 22.6918 39.3787 22.6451 39.4025C22.5984 39.4263 22.5596 39.4631 22.5332 39.5084C22.5069 39.5538 22.4942 39.6057 22.4967 39.6581C22.4992 39.7105 22.5167 39.761 22.5471 39.8037C22.7825 40.0812 23.076 40.3035 23.407 40.4547C23.6856 40.6368 23.9563 40.8208 24.2225 41.0227C24.6303 41.3325 24.9971 41.693 25.3139 42.0953C25.5091 42.3062 25.6521 42.5599 25.7312 42.8361C25.8103 43.1124 25.8234 43.4033 25.7694 43.6855C25.4043 44.7597 23.9635 44.4951 23.2786 43.9058C22.613 43.1598 22.2303 42.2039 22.1973 41.2047C22.2264 40.9609 21.8685 41.0255 21.8734 41.27Z" fill="#8E8E8E"/>
<path d="M36.0966 36.826C36.7508 37.058 38.5564 37.5105 38.7501 36.3907C38.9439 35.2709 37.2225 34.8161 36.5283 35.1522C36.4844 35.1726 36.4466 35.2039 36.4185 35.2432C36.3903 35.2824 36.3728 35.3283 36.3675 35.3763C36.3623 35.4244 36.3696 35.473 36.3886 35.5174C36.4076 35.5618 36.4378 35.6006 36.4762 35.6299C36.8278 35.8716 37.2432 35.8363 37.6364 36.0008C37.7298 36.0388 38.0469 36.2037 38.0454 36.2718C38.044 36.3398 37.749 36.4579 37.6425 36.4737C37.1637 36.5264 36.6792 36.4843 36.2167 36.3497C35.944 36.2678 35.8264 36.7181 36.0966 36.826Z" fill="#8E8E8E"/>
<path d="M27.7346 33.6497C27.6157 33.9326 27.5705 34.241 27.6029 34.5461C27.6354 34.8512 27.7447 35.1431 27.9205 35.3945C28.0931 35.5609 28.304 35.6822 28.5346 35.7479C28.7652 35.8135 29.0084 35.8214 29.2428 35.7708C30.1011 35.6345 31.3079 34.8344 30.9046 33.8083C30.6176 33.069 29.5851 32.6267 28.8643 32.5114C28.7913 32.5057 28.7186 32.5256 28.6588 32.5678C28.5989 32.61 28.5557 32.6718 28.5366 32.7425C28.5176 32.8132 28.5238 32.8884 28.5543 32.9549C28.5848 33.0215 28.6376 33.0753 28.7036 33.1071C29.2477 33.3388 30.9134 33.7724 30.2041 34.637C29.9969 34.8907 29.7155 35.0733 29.3994 35.159C29.0832 35.2447 28.7482 35.2293 28.4412 35.115C28.0124 34.8315 28.0959 34.1942 28.1366 33.7784C28.258 33.5305 27.8077 33.4129 27.7346 33.6497Z" fill="#8E8E8E"/>
<path d="M35.6431 27.0961C37.9766 28.4531 39.2239 31.3621 42.1531 31.5416C42.236 31.5503 42.319 31.5264 42.3848 31.4751C42.4505 31.4238 42.4937 31.349 42.5054 31.2665C42.538 30.3332 42.3232 29.408 41.8827 28.5846C41.4422 27.7612 40.7917 27.069 39.9972 26.5782C38.7855 25.7956 36.5032 24.9604 35.1071 25.7105C35.054 25.7319 35.0095 25.7704 34.9809 25.82C34.9522 25.8696 34.941 25.9274 34.9491 25.9841C34.9571 26.0408 34.9839 26.0931 35.0253 26.1328C35.0666 26.1724 35.12 26.1971 35.177 26.2028C36.586 26.3645 37.7557 26.1827 39.102 26.8499C39.9334 27.227 40.6383 27.8362 41.1318 28.6042C41.6253 29.3722 41.8866 30.2665 41.8842 31.1794L42.2384 30.9123C39.4732 30.7463 38.1571 27.8699 35.8782 26.6783C35.642 26.5711 35.4175 26.9611 35.6431 27.0961Z" fill="#8E8E8E"/>
<path d="M41.4788 36.8025C41.49 37.5386 41.5665 38.2723 41.7073 38.9949C41.9742 39.6456 42.729 39.7616 43.3601 39.8549C43.4086 39.8618 43.4579 39.8519 43.4999 39.8269C43.542 39.8019 43.5742 39.7633 43.5914 39.7175C43.9279 39.0439 44.0204 38.2745 43.8531 37.5404C43.6858 36.8062 43.2691 36.1528 42.674 35.6916C42.6352 35.6585 42.5862 35.6397 42.5351 35.6384C42.4841 35.637 42.4342 35.6532 42.3937 35.6843C42.3532 35.7153 42.3246 35.7593 42.3126 35.8089C42.3006 35.8585 42.306 35.9107 42.3278 35.9568C42.5752 36.4848 42.9931 36.9063 43.2343 37.4442C43.3723 37.7842 43.4401 38.1487 43.4334 38.5156C43.4268 38.8825 43.3459 39.2442 43.1956 39.579L43.4269 39.4416C42.7288 39.3889 42.086 39.2813 41.9903 38.49C41.9686 37.9177 41.9177 37.347 41.8378 36.7799C41.7747 36.5402 41.4373 36.5832 41.4788 36.8025Z" fill="#8E8E8E"/>
<path d="M41.4761 36.9806C41.5737 36.8431 41.6415 36.6867 41.6754 36.5215C41.7092 36.3563 41.7082 36.1859 41.6725 36.0211C41.6542 35.9816 41.6229 35.9496 41.5839 35.9304C41.5448 35.9112 41.5003 35.9059 41.4579 35.9156C41.4154 35.9253 41.3776 35.9493 41.3507 35.9835C41.3238 36.0177 41.3095 36.0601 41.3101 36.1037C41.3156 36.333 41.259 36.5596 41.1462 36.7594C40.9977 36.9626 41.3349 37.2161 41.4761 36.9806Z" fill="#8E8E8E"/>
<path d="M21.5198 29.9837C20.3936 31.4346 19.9105 33.5521 21.2068 35.0777C21.4525 35.3596 21.7521 35.5896 22.0879 35.7541C22.4237 35.9187 22.789 36.0144 23.1624 36.0359C23.5357 36.0573 23.9095 36.004 24.262 35.879C24.6144 35.7539 24.9383 35.5598 25.2147 35.3079C26.6416 34.1357 27.9279 31.6404 26.6905 29.8896C25.453 28.1388 22.9578 28.3771 21.4313 29.5211C21.1627 29.7178 21.4269 30.2081 21.735 30.0363C23.0443 29.3145 24.9376 28.739 26.1012 30.0916C27.3704 31.5727 26.0727 33.9435 24.7756 34.9421C24.537 35.1495 24.2573 35.3042 23.9549 35.396C23.6524 35.4879 23.3339 35.5149 23.0203 35.4753C22.7066 35.4356 22.4049 35.3302 22.1348 35.1659C21.8647 35.0016 21.6323 34.7822 21.4528 34.5219C20.5033 33.1798 21.0038 31.4734 21.8651 30.2354C21.892 30.1894 21.9009 30.1351 21.89 30.083C21.8791 30.0309 21.8493 29.9847 21.8063 29.9534C21.7633 29.922 21.7101 29.9077 21.6572 29.9134C21.6042 29.919 21.5553 29.944 21.5198 29.9837Z" fill="#8E8E8E"/>
<path d="M24.8548 6.96496C26.0846 13.9604 28.1099 20.9525 29.7218 27.8778C29.8595 28.4817 30.787 28.3889 30.702 27.7561C29.7452 20.7323 27.3099 13.6134 25.3082 6.83622C25.2334 6.58223 24.8122 6.70363 24.8548 6.96496Z" fill="#8E8E8E"/>
<path d="M24.9728 7.2174C26.6534 8.08799 28.0646 7.66478 29.7187 6.93212C31.2067 6.28814 32.7518 5.11446 34.4227 5.01321C36.5896 4.85824 38.5795 6.26819 40.2134 7.45434C43.8526 10.0808 45.9275 9.63344 49.3617 6.45387C49.6968 6.14035 49.2909 5.623 48.9188 5.88566C46.0504 8.16554 44.0681 9.16779 41.0057 7.02819C39.746 5.99839 38.3292 5.17736 36.8094 4.59639C32.5593 3.30339 29.2297 8.28016 25.2126 6.6715C24.8336 6.49528 24.626 7.03385 24.9728 7.2174Z" fill="#8E8E8E"/>
<path d="M27.3871 14.8409C31.3403 18.7341 35.6674 13.674 40.1042 13.0357C45.0753 12.3264 47.8269 11.801 49.6059 6.63555C49.7788 6.13031 49.022 5.81997 48.8473 6.31716C47.0281 11.4918 44.211 11.507 39.5188 12.2882C35.8119 12.8958 31.2059 17.2147 27.7478 14.4538C27.5068 14.2885 27.1611 14.6299 27.3871 14.8409Z" fill="#8E8E8E"/>
<path d="M25.0783 5.60109L24.9498 5.52026C24.8231 5.44749 24.9498 5.52027 24.959 5.56053C24.909 5.4965 24.843 5.44679 24.7677 5.41637C24.6923 5.38596 24.6103 5.37592 24.5299 5.38727C24.3995 5.40509 24.2812 5.47324 24.2004 5.57713C24.1196 5.68102 24.0827 5.81239 24.0975 5.94316C24.1636 6.30202 24.316 6.6394 24.5417 6.9261C24.7451 7.26092 25.0214 7.84166 25.4877 7.76929L25.1828 7.69479C25.287 7.76622 25.4023 7.82007 25.524 7.85419C25.6064 7.8657 25.6899 7.84404 25.7563 7.79397C25.8227 7.7439 25.8666 7.6695 25.8782 7.58714C25.8782 7.58714 25.8598 7.50663 25.8507 7.46637C25.8201 7.10913 25.8507 7.46637 25.7943 7.47921C26.0076 7.33743 25.6328 6.77065 25.5464 6.68871C25.4599 6.60676 25.2936 6.3228 25.1932 6.1424C25.1767 6.06993 25.1163 5.99053 25.0738 5.91552C25.062 5.88161 25.054 5.84651 25.0499 5.81085C25.0628 5.86721 25.0664 5.88332 25.0499 5.81085C25.0381 5.72331 25.0031 5.64052 24.9486 5.57104C24.894 5.50157 24.8219 5.44793 24.7396 5.4157L25.0283 5.79037C24.8778 5.92262 24.7345 6.06272 24.5988 6.21009C24.5344 6.22477 24.6662 6.24557 24.6662 6.24557C25.0971 6.42688 25.4138 5.84651 25.0783 5.60109Z" fill="#8E8E8E"/>
<path d="M17.5374 53.6502C17.5816 53.547 17.5816 53.547 17.5374 53.6502L17.1197 53.6014C16.9761 53.3801 17.072 53.3921 17.0468 53.5418C17.035 53.6371 17.0371 53.7337 17.0528 53.8284C17.0479 54.0667 17.0527 54.3112 17.0576 54.5557C17.0402 55.0674 17.069 55.5796 17.1438 56.0861C17.1531 56.14 17.1742 56.1912 17.2055 56.2361C17.2369 56.2809 17.2778 56.3183 17.3252 56.3455C17.3727 56.3727 17.4256 56.3891 17.4801 56.3935C17.5346 56.3979 17.5895 56.3902 17.6407 56.3709C19.0747 55.9557 20.3957 55.2203 21.5041 54.2201C21.5441 54.1885 21.5699 54.1424 21.5759 54.0918C21.5818 54.0412 21.5674 53.9903 21.5358 53.9503C21.5043 53.9103 21.4581 53.8845 21.4075 53.8786C21.3569 53.8726 21.306 53.887 21.266 53.9186C20.1309 54.7772 18.8241 55.3812 17.4346 55.6895L17.8348 55.9964C17.7621 55.4413 17.7337 54.8814 17.7497 54.3218C17.7499 54.0253 17.8078 53.4616 17.5756 53.2604C17.5465 53.2257 17.51 53.198 17.4689 53.1791C17.4278 53.1603 17.3829 53.1508 17.3377 53.1514C17.2924 53.152 17.2479 53.1626 17.2072 53.1825C17.1666 53.2024 17.1309 53.2311 17.1027 53.2665C17.045 53.3506 17.0118 53.4491 17.0066 53.551C17.0122 53.6117 17.0375 53.669 17.0787 53.7141C17.1198 53.7592 17.1745 53.7897 17.2345 53.8009C17.2945 53.8121 17.3565 53.8035 17.4112 53.7763C17.4658 53.7491 17.5101 53.7048 17.5374 53.6502Z" fill="#8E8E8E"/>
<path d="M25.2883 51.8754C31.652 47.0151 37.5523 41.5763 42.9135 35.6285C46.0954 32.1592 53.1307 25.6773 52.3 20.2849C52.2871 20.2064 52.2449 20.1358 52.182 20.0873C52.119 20.0388 52.04 20.0159 51.9609 20.0234C48.7808 20.6909 45.9175 22.4084 43.8313 24.8996C43.6425 25.1121 43.9615 25.4713 44.2004 25.2559C45.2999 24.1066 46.5385 23.0988 47.8873 22.256C49.0319 21.5547 51.3641 19.8205 51.7395 21.5052C52.0001 22.6486 50.5806 24.7084 50.0526 25.6249C47.9635 28.9738 45.5407 32.1026 42.8212 34.9634C37.4381 41.0607 31.4954 46.6401 25.0711 51.6285C24.8845 51.7387 25.1127 52.034 25.2883 51.8754Z" fill="#8E8E8E"/>
<path d="M19.7466 49.5214C20.0363 49.0827 20.3457 48.6565 20.6273 48.2197C20.9244 47.8243 21.1735 47.3951 21.3693 46.941C21.423 46.7679 21.2131 46.5531 21.0456 46.7099C20.7179 47.0731 20.44 47.4782 20.219 47.9146C19.9473 48.3577 19.6891 48.8231 19.4192 49.2742C19.2843 49.4997 19.6036 49.7488 19.7466 49.5214Z" fill="#8E8E8E"/>
<path d="M13.1337 30.0905C11.1836 29.364 9.12423 28.974 7.04352 28.9373C6.89859 28.9703 6.7299 29.085 6.80869 29.2449C10.7261 36.9577 20.747 39.824 28.0847 43.1069C35.2698 46.3144 45.0153 51.615 53.0482 48.5818C53.1101 48.5516 53.1587 48.4997 53.1848 48.436C53.2108 48.3722 53.2126 48.3012 53.1897 48.2362C52.2289 45.8041 49.8665 43.9115 47.5024 42.8663C47.2204 42.7442 47.0428 43.1913 47.3247 43.3134C49.679 44.3523 54.271 47.5917 49.84 48.8132C47.6174 49.4298 44.2459 48.4617 42.0841 47.8955C37.4764 46.5564 32.988 44.8368 28.6651 42.7544C24.8939 41.0728 21.0892 39.6529 17.446 37.7896C15.088 36.6495 12.8707 35.239 10.8387 33.5864C10.2916 33.1182 7.68864 31.1365 8.10273 30.0172C8.59101 28.7032 11.7324 30.0371 12.9432 30.4812C13.2338 30.5674 13.3921 30.1841 13.1337 30.0905Z" fill="#8E8E8E"/>
<path d="M16.1659 31.6104C17.0573 31.8054 17.9341 31.9359 18.809 32.0584C19.0268 32.085 19.128 31.7486 18.9072 31.6718C18.029 31.4486 17.1401 31.2695 16.244 31.1353C15.9328 31.0707 15.8789 31.5403 16.1659 31.6104Z" fill="#8E8E8E"/>
<path d="M51.8665 28.1508C52.2129 28.2582 52.6256 28.5454 52.9963 28.3508C53.6162 28.0232 53.6213 26.8193 53.6774 26.2475C53.6841 26.1964 53.6791 26.1445 53.6627 26.0957C53.6463 26.0469 53.619 26.0025 53.5829 25.9658C53.5468 25.9291 53.5028 25.9011 53.4542 25.884C53.4057 25.8669 53.3538 25.8611 53.3027 25.867C52.731 25.9973 52.1513 26.1294 51.5796 26.2597C51.4875 26.2736 51.4045 26.3232 51.3486 26.3977C51.2927 26.4722 51.2683 26.5657 51.2808 26.6581C51.411 27.2297 51.5413 27.8014 51.6716 28.3731C51.7119 28.5503 51.8724 28.7339 52.0737 28.6881C52.4924 28.5927 53.3086 28.4575 53.425 27.9651C53.4424 27.889 53.4409 27.8098 53.4207 27.7344C53.4005 27.659 53.3622 27.5897 53.3091 27.5325C53.256 27.4753 53.1897 27.432 53.116 27.4062C53.0423 27.3805 52.9634 27.3731 52.8863 27.3848C52.7119 27.3949 52.5405 27.434 52.379 27.5004L52.263 27.5862L52.1328 27.6836C52.0922 27.7131 52.0612 27.7538 52.0436 27.8007C52.026 27.8476 52.0225 27.8987 52.0336 27.9476C52.0448 27.9965 52.07 28.041 52.1062 28.0756C52.1424 28.1103 52.188 28.1336 52.2373 28.1426C52.4934 28.1935 52.7581 28.1798 53.0075 28.1026L52.7285 28.0306C52.6457 27.9648 52.7832 27.7132 52.6935 27.6913L52.6211 27.7079C52.5104 27.7369 52.4033 27.7783 52.302 27.8314L51.9477 27.9121L52.3578 28.2252C52.2257 27.6455 52.0954 27.0738 51.9652 26.5021L51.6583 26.9024C52.2622 26.7648 52.8661 26.6272 53.47 26.4896C53.3143 26.3641 53.1525 26.2485 52.9987 26.1311C53.0008 26.5479 52.974 26.9644 52.9185 27.3775C52.8896 27.5111 52.8598 27.789 52.7178 27.8721C52.5758 27.9553 52.1467 27.7821 51.9593 27.7401C51.7719 27.6981 51.6403 28.0499 51.8665 28.1508Z" fill="#8E8E8E"/>
<path d="M9.39885 37.1164C9.84701 37.3361 10.1697 37.7115 10.5974 37.9528C11.1272 38.1697 11.7125 38.2114 12.2677 38.0719C12.3163 38.0655 12.3632 38.0495 12.4056 38.0249C12.4481 38.0003 12.4852 37.9675 12.5148 37.9284C12.5445 37.8894 12.5662 37.8449 12.5786 37.7974C12.591 37.7499 12.5938 37.7005 12.587 37.6519C12.4769 37.1688 12.3118 36.4441 11.7327 36.3559C11.349 36.3078 11.0374 36.6499 10.6618 36.5999C10.2862 36.55 10.0501 37.2983 10.5568 37.4031C10.8785 37.4609 11.2104 37.4033 11.4938 37.2404C11.5743 37.222 11.679 37.1982 11.6017 37.1565C11.7544 37.2318 11.8359 37.7384 11.8734 37.8653L12.074 37.3707C11.8519 37.4606 11.6116 37.4967 11.3729 37.4761C11.1341 37.4554 10.9036 37.3786 10.7002 37.2518C10.3659 36.9976 9.99445 36.7966 9.59883 36.6558C9.54096 36.6433 9.48054 36.6512 9.42787 36.6783C9.3752 36.7053 9.3335 36.7497 9.30992 36.8041C9.28635 36.8584 9.28234 36.9192 9.29855 36.9761C9.31476 37.0331 9.3502 37.0826 9.39885 37.1164Z" fill="#8E8E8E"/>
<path d="M3.90578 28.0684C4.14286 28.5141 4.44344 29.2757 4.95418 29.4727C5.61577 29.737 5.78148 28.903 5.80134 28.4327C5.8212 27.9623 4.99787 27.7687 4.9883 28.3215C4.95103 28.4942 4.93722 28.6711 4.94724 28.8475C4.89863 28.9687 4.9711 28.9522 5.25322 28.7778L5.20196 28.7386C5.1692 28.6892 5.13044 28.6439 5.08657 28.604C4.86411 28.3234 4.65624 28.0315 4.4638 27.7295C4.26525 27.4529 3.7321 27.7523 3.90578 28.0684Z" fill="#8E8E8E"/>
<path d="M26.2168 9.71201C26.8377 8.91023 27.5143 8.15319 28.2416 7.44652C28.3993 7.28354 28.1553 7.06809 27.9706 7.18643C27.5426 7.50468 27.1577 7.8771 26.8255 8.29435C26.4859 8.66819 26.181 9.07219 25.9147 9.50134C25.7966 9.68919 26.0665 9.9072 26.2168 9.71201Z" fill="#8E8E8E"/>
<path d="M26.7583 11.0033L26.6698 11.0234C26.4041 11.084 26.4574 11.5038 26.7231 11.4433C26.9094 11.4391 27.0929 11.3973 27.2626 11.3203C27.2906 11.2958 27.3114 11.2641 27.3229 11.2287C27.3344 11.1933 27.3361 11.1554 27.3279 11.1191C27.3196 11.0828 27.3017 11.0494 27.2759 11.0225C27.2502 10.9955 27.2177 10.976 27.1818 10.9661C27.015 10.9701 26.8508 11.0075 26.6987 11.0761C26.433 11.1367 26.4845 11.5485 26.752 11.496L26.8486 11.4739C27.0847 11.3947 27.0241 10.9427 26.7583 11.0033Z" fill="#8E8E8E"/>
<path d="M29.2245 8.67086C29.8687 7.77866 30.6553 6.99849 31.5527 6.36163C31.7258 6.22902 31.5558 5.92897 31.3592 6.03303C30.3492 6.60621 29.5097 7.43769 28.9268 8.44224C28.7944 8.64181 29.0921 8.87043 29.2245 8.67086Z" fill="#8E8E8E"/>
<path d="M31.5978 9.56992C33.0291 7.81179 34.5743 6.14965 36.2236 4.59424C36.2682 4.55825 36.2966 4.50602 36.3027 4.44904C36.3088 4.39206 36.292 4.33501 36.256 4.29042C36.22 4.24583 36.1678 4.21736 36.1108 4.21129C36.0538 4.20521 35.9967 4.22201 35.9522 4.25801C34.1824 5.74062 32.6185 7.45287 31.3019 9.34937C31.1578 9.53467 31.4457 9.75706 31.5978 9.56992Z" fill="#8E8E8E"/>
<path d="M33.5496 11.1496C33.5349 10.8988 34.057 10.5512 34.2392 10.4588C34.2846 10.4385 34.3215 10.4032 34.3437 10.3587C34.3659 10.3143 34.372 10.2635 34.3609 10.2151C34.3499 10.1667 34.3224 10.1236 34.2832 10.0931C34.2439 10.0627 34.1953 10.0468 34.1457 10.0482C33.6014 10.1129 32.9439 10.61 33.0394 11.215C33.0603 11.2708 33.0995 11.3178 33.1505 11.3485C33.2015 11.3792 33.2614 11.3918 33.3204 11.3842C33.3795 11.3766 33.4343 11.3494 33.4759 11.3068C33.5175 11.2642 33.5434 11.2088 33.5496 11.1496Z" fill="#8E8E8E"/>
<path d="M34.8854 9.5748C36.0589 8.2479 37.0768 6.79114 37.9192 5.23291C38.0424 4.99308 37.6661 4.79087 37.5113 5.00399C36.4565 6.39629 35.6462 7.97 34.5185 9.30267C34.3334 9.53118 34.7065 9.79342 34.8854 9.5748Z" fill="#8E8E8E"/>
<path d="M34.5007 14.3206C36.2153 11.7542 38.0845 9.29452 40.098 6.95523C40.3321 6.68166 39.896 6.36602 39.6582 6.62348C37.6006 8.92949 35.7642 11.4237 34.1733 14.0734C34.0438 14.3231 34.3632 14.5722 34.5007 14.3206Z" fill="#8E8E8E"/>
<path d="M37.2974 13.7341C37.8288 12.9439 38.3818 12.1742 38.9861 11.4436C39.5909 10.7977 40.1439 10.1053 40.6402 9.37268C40.7564 9.17678 40.5264 8.87346 40.3241 9.06355C38.9926 10.3687 37.8514 11.8548 36.9341 13.4781C36.7571 13.7048 37.1097 13.9886 37.2974 13.7341Z" fill="#8E8E8E"/>
<path d="M41.753 11.2452C42.2559 10.4784 42.9404 9.83966 43.4333 9.06666C43.5844 8.83744 43.2435 8.56786 43.0862 8.80698C42.5833 9.57375 41.9204 10.233 41.4274 11.006C41.2907 11.2235 41.6082 11.4646 41.753 11.2452Z" fill="#8E8E8E"/>
</svg>
