<svg width="92" height="183" viewBox="0 0 92 183" fill="none" xmlns="http://www.w3.org/2000/svg">
<path d="M103.158 15.1629C101.292 1.61243 81.7077 1.61233 79.8422 15.1628L75.2747 48.3419C75.0903 49.6808 73.5327 50.3259 72.4556 49.5095L45.7648 29.2782C34.8641 21.0157 21.0156 34.864 29.2782 45.7648L49.5095 72.4556C50.3259 73.5327 49.6808 75.0903 48.3419 75.2747L15.1629 79.8422C1.61243 81.7076 1.61233 101.292 15.1628 103.158L48.3418 107.725C49.6808 107.91 50.3259 109.467 49.5095 110.544L29.2782 137.235C21.0157 148.136 34.864 161.984 45.7648 153.722L72.4556 133.49C73.5327 132.674 75.0903 133.319 75.2747 134.658L79.8422 167.837C81.7076 181.388 101.292 181.388 103.158 167.837L107.725 134.658C107.91 133.319 109.467 132.674 110.544 133.49L137.235 153.722C148.136 161.984 161.984 148.136 153.722 137.235L133.49 110.544C132.674 109.467 133.319 107.91 134.658 107.725L167.837 103.158C181.388 101.292 181.388 81.7076 167.837 79.8422L134.658 75.2747C133.319 75.0903 132.674 73.5327 133.49 72.4556L153.722 45.7648C161.984 34.8641 148.136 21.0156 137.235 29.2782L110.544 49.5095C109.467 50.3259 107.91 49.6808 107.725 48.3419L103.158 15.1629Z" fill="#994AFC" stroke="white" stroke-width="10"/>
</svg>
